<?xml version="1.0" encoding="UTF-8"?>
<svg version="1.1" xmlns="http://www.w3.org/2000/svg" width="1632" height="657">
<path d="M0 0 C142.56 0 285.12 0 432 0 C432 143.22 432 286.44 432 434 C289.44 434 146.88 434 0 434 C0 290.78 0 147.56 0 0 Z M90 69 C90 170.64 90 272.28 90 377 C98.18425649 372.90787175 105.97904638 368.75274834 113.75 364 C115.94195252 362.67192883 118.1346814 361.34513831 120.328125 360.01953125 C121.43349609 359.35131348 122.53886719 358.6830957 123.67773438 357.99462891 C128.92421198 354.84473752 134.20942498 351.76257785 139.5 348.6875 C141.00264404 347.81363647 141.00264404 347.81363647 142.53564453 346.92211914 C144.46993325 345.79748439 146.40433622 344.67304612 148.33886719 343.54882812 C152.10714732 341.35561995 155.86760778 339.14929826 159.625 336.9375 C160.29200928 336.5448999 160.95901855 336.1522998 161.64624023 335.74780273 C165.46340288 333.49906241 169.27728159 331.2448117 173.08984375 328.98828125 C183.83384985 322.63015791 194.5973908 316.30741103 205.38452148 310.02270508 C215.64071517 304.04680626 225.87479462 298.03423366 236.08984375 291.98828125 C246.83384985 285.63015791 257.5973908 279.30741103 268.38452148 273.02270508 C278.64071517 267.04680626 288.87479462 261.03423366 299.08984375 254.98828125 C308.81386458 249.23376815 318.55008652 243.50168938 328.3125 237.8125 C329.31104004 237.22984375 330.30958008 236.6471875 331.33837891 236.046875 C335.97274162 233.34330604 340.61039277 230.64591136 345.2578125 227.96484375 C346.81773984 227.05995015 348.37763771 226.15500573 349.9375 225.25 C350.64753174 224.84370361 351.35756348 224.43740723 352.08911133 224.01879883 C355.64014707 222.11730778 355.64014707 222.11730778 358 219 C357.07441284 218.5035498 357.07441284 218.5035498 356.13012695 217.99707031 C342.52409018 210.68921653 329.03045767 203.22164535 315.64501953 195.51806641 C301.56763013 187.43857524 287.39118926 179.53459829 273.19775391 171.66137695 C256.65017079 162.48151496 240.14641478 153.22474219 223.6784668 143.90283203 C213.38462365 138.07906836 203.06106075 132.30857228 192.73974609 126.53369141 C184.74694337 122.05937429 176.7652543 117.56545531 168.79296875 113.0546875 C158.56113625 107.26547294 148.32143226 101.49108769 138.0625 95.75 C137.00538818 95.15832031 135.94827637 94.56664063 134.85913086 93.95703125 C129.25651135 90.8215624 129.25651135 90.8215624 123.65283203 87.68798828 C114.72605132 82.6966479 105.85239608 77.62286292 97.02783203 72.45239258 C96.25681152 72.00275146 95.48579102 71.55311035 94.69140625 71.08984375 C94.00248291 70.68628662 93.31355957 70.28272949 92.60375977 69.86694336 C91.15723139 68.92074389 91.15723139 68.92074389 90 69 Z " fill="#FFFFFF" transform="translate(4,5)"/>
<path d="M0 0 C13.2 0 26.4 0 40 0 C51.4597886 17.1896829 51.4597886 17.1896829 55.875 24.25 C56.89579516 25.87372192 57.91662962 27.49741913 58.9375 29.12109375 C59.44539062 29.93046387 59.95328125 30.73983398 60.4765625 31.57373047 C62.93608521 35.49083571 65.40528718 39.40181434 67.875 43.3125 C68.36685791 44.09181885 68.85871582 44.8711377 69.36547852 45.67407227 C72.58535995 50.77217458 75.82072603 55.86019886 79.06298828 60.9440918 C85.21775153 70.5953721 91.31262491 80.28180585 97.36743164 89.99609375 C102.37054214 98.01467912 107.43130964 105.99541442 112.52148438 113.95898438 C113.06611328 114.81169922 113.61074219 115.66441406 114.171875 116.54296875 C114.6472168 117.28571045 115.12255859 118.02845215 115.61230469 118.79370117 C117.10962442 121.17429203 118.55307006 123.58845009 120 126 C120.33 84.42 120.66 42.84 121 0 C134.2 0 147.4 0 161 0 C161 64.02 161 128.04 161 194 C148.46 194 135.92 194 123 194 C116.25633803 185.0084507 116.25633803 185.0084507 113.265625 180.27734375 C112.61464844 179.25253906 111.96367188 178.22773438 111.29296875 177.171875 C110.61878906 176.10453125 109.94460938 175.0371875 109.25 173.9375 C104.89722664 167.08153429 100.54512838 160.23045687 96 153.5 C90.99197656 146.06949575 86.19258113 138.50796814 81.375 130.953125 C76.46785427 123.26800477 71.50174433 115.62383956 66.5 108 C58.71532189 96.13291491 51.04992319 84.19376722 43.42602539 72.22290039 C42.30177693 70.47041241 41.15494239 68.73241358 40 67 C39.67 108.91 39.34 150.82 39 194 C26.13 194 13.26 194 0 194 C0 129.98 0 65.96 0 0 Z " fill="#FFFFFF" transform="translate(693,3)"/>
<path d="M0 0 C97.40740741 0 97.40740741 0 114 8 C114.9384375 8.44214844 115.876875 8.88429687 116.84375 9.33984375 C136.99961759 19.55932156 151.49190239 38.5238593 158.68359375 59.7109375 C168.49226258 90.62786166 167.55462814 125.48524496 152.6640625 154.61328125 C148.95569734 161.20023926 144.27680585 166.61694974 139 172 C138.33484375 172.70125 137.6696875 173.4025 136.984375 174.125 C103.78927085 206.55991093 33.19079105 194 0 194 C0 129.98 0 65.96 0 0 Z M42 34 C42 76.57 42 119.14 42 163 C78.58841342 165.31940125 78.58841342 165.31940125 108.8984375 150.23828125 C122.6245579 135.61919762 123.67017115 113.64667752 123.13623047 94.68017578 C122.23413878 76.93257266 116.26807527 59.12126472 104.1015625 45.8828125 C86.55631752 30.16383837 64.82054302 34 42 34 Z " fill="#FFFFFF" transform="translate(505,240)"/>
<path d="M0 0 C0.77085937 0.67546875 1.54171875 1.3509375 2.3359375 2.046875 C3.02429687 2.63984375 3.71265625 3.2328125 4.421875 3.84375 C16.02061043 14.57143415 22.88605846 28.44575009 24.3359375 44.046875 C-5.22173178 46.2635784 -5.22173178 46.2635784 -12.09472656 42.83398438 C-15.43156444 39.79005309 -17.11445504 35.9979172 -18.80517578 31.87255859 C-22.41506725 24.19923046 -30.38909544 18.96963227 -38.0078125 15.94140625 C-50.97546502 11.57435856 -64.05719224 11.98104601 -76.79296875 17.37109375 C-82.35562921 20.25459529 -86.4208791 23.47729288 -90.6640625 28.046875 C-91.3240625 28.046875 -91.9840625 28.046875 -92.6640625 28.046875 C-92.91542969 28.57667969 -93.16679688 29.10648438 -93.42578125 29.65234375 C-94.36156961 31.46192818 -95.3792947 33.2294554 -96.43359375 34.97265625 C-109.69689903 56.95981816 -112.06538802 80.19333484 -106.6640625 105.046875 C-102.61798318 119.56065196 -94.40135805 132.22064958 -81.3671875 140.01953125 C-74.4115459 143.82591965 -67.6277215 146.41392522 -59.6640625 147.046875 C-58.23320313 147.16869141 -58.23320313 147.16869141 -56.7734375 147.29296875 C-41.90259381 147.93529577 -29.74187939 141.49142401 -18.6640625 132.046875 C-15.80293909 128.86062393 -13.23263463 125.47163784 -10.6640625 122.046875 C-10.13941406 121.36109375 -9.61476563 120.6753125 -9.07421875 119.96875 C-6.46618017 116.2494602 -5.39097933 113.35141047 -5.03515625 108.796875 C-4.96095459 107.90484375 -4.88675293 107.0128125 -4.81030273 106.09375 C-4.76204346 105.41828125 -4.71378418 104.7428125 -4.6640625 104.046875 C-5.23813339 104.04909561 -5.81220428 104.05131622 -6.40367126 104.05360413 C-12.3565916 104.07565757 -18.3095004 104.09078184 -24.26245117 104.10180664 C-26.48673982 104.10684817 -28.71102513 104.11368123 -30.93530273 104.12231445 C-34.12484559 104.13438798 -37.31434479 104.14010496 -40.50390625 104.14453125 C-42.00545509 104.15227318 -42.00545509 104.15227318 -43.53733826 104.16017151 C-44.91865685 104.16028481 -44.91865685 104.16028481 -46.32788086 104.16040039 C-47.14284531 104.162621 -47.95780975 104.16484161 -48.79747009 104.16712952 C-50.6640625 104.046875 -50.6640625 104.046875 -51.6640625 103.046875 C-51.76409539 100.91334326 -51.79487298 98.77649958 -51.796875 96.640625 C-51.79816406 95.33996094 -51.79945312 94.03929688 -51.80078125 92.69921875 C-51.79868652 92.01843262 -51.7965918 91.33764648 -51.79443359 90.63623047 C-51.7890849 88.55558985 -51.7943793 86.47516511 -51.80078125 84.39453125 C-51.79949219 83.09386719 -51.79820313 81.79320313 -51.796875 80.453125 C-51.79574707 79.24978516 -51.79461914 78.04644531 -51.79345703 76.80664062 C-51.6640625 74.046875 -51.6640625 74.046875 -50.6640625 73.046875 C-48.1690984 72.9518493 -45.70203988 72.92131242 -43.20678711 72.93334961 C-42.41369172 72.93322907 -41.62059633 72.93310854 -40.80346775 72.93298435 C-38.22441917 72.9337335 -35.64544198 72.94136179 -33.06640625 72.94921875 C-31.47888219 72.95068816 -29.89135765 72.95170888 -28.30383301 72.95227051 C-22.40306881 72.95752346 -16.50231496 72.97148454 -10.6015625 72.984375 C9.1675 73.0153125 9.1675 73.0153125 29.3359375 73.046875 C29.3359375 105.716875 29.3359375 138.386875 29.3359375 172.046875 C18.7759375 172.046875 8.2159375 172.046875 -2.6640625 172.046875 C-2.9940625 166.766875 -3.3240625 161.486875 -3.6640625 156.046875 C-5.1490625 157.7175 -5.1490625 157.7175 -6.6640625 159.421875 C-20.46398184 173.17285846 -38.73353715 179.92246481 -58.0390625 180.296875 C-81.83278695 179.78882394 -103.42653828 171.72516656 -120.6640625 155.046875 C-120.9940625 154.056875 -121.3240625 153.066875 -121.6640625 152.046875 C-122.3240625 152.046875 -122.9840625 152.046875 -123.6640625 152.046875 C-143.50632056 128.00563287 -149.40569602 98.52323437 -147.6640625 68.046875 C-145.17248805 42.97935949 -134.28685974 21.69609323 -116.6640625 4.046875 C-116.02082031 3.39203125 -115.37757812 2.7371875 -114.71484375 2.0625 C-83.65743984 -27.31066292 -32.1622054 -26.98784428 0 0 Z " fill="#FFFFFF" transform="translate(1508.6640625,20.953125)"/>
<path d="M0 0 C1.04623504 0.00092179 2.09247007 0.00184359 3.1704092 0.00279331 C4.96468601 0.00073132 4.96468601 0.00073132 6.79521084 -0.00137234 C8.13279653 0.00216726 9.47038198 0.00580208 10.80796719 0.00952244 C12.20711166 0.00980431 13.60625627 0.00964658 15.00540066 0.00907993 C18.81515014 0.00879195 22.62486841 0.01468885 26.43461061 0.02165389 C30.41179863 0.02788724 34.38898731 0.02849121 38.36617947 0.0296793 C45.90267094 0.03279267 53.43914798 0.04100614 60.97563308 0.05102879 C69.55348383 0.06218974 78.13133525 0.06770033 86.70919144 0.07272422 C104.35923101 0.08318875 122.00925712 0.1007883 139.65928555 0.12304783 C139.82452925 1.56020369 139.9881959 2.99754095 140.15119839 4.43495274 C140.24250971 5.23535008 140.33382103 6.03574743 140.42789936 6.86039925 C140.69741615 9.49591438 140.78863129 12.09529335 140.79209805 14.74414158 C140.79338711 15.69869236 140.79467617 16.65324314 140.7960043 17.6367197 C140.79213711 18.60158298 140.78826992 19.56644627 140.78428555 20.56054783 C140.78815273 21.55248142 140.79201992 22.54441502 140.7960043 23.5664072 C140.7940707 24.98469822 140.7940707 24.98469822 140.79209805 26.43164158 C140.79097012 27.28556492 140.78984219 28.13948826 140.78868008 29.01928806 C140.65928555 31.12304783 140.65928555 31.12304783 139.65928555 33.12304783 C105.66928555 33.12304783 71.67928555 33.12304783 36.65928555 33.12304783 C36.65928555 46.65304783 36.65928555 60.18304783 36.65928555 74.12304783 C66.68928555 74.12304783 96.71928555 74.12304783 127.65928555 74.12304783 C127.65928555 86.00304783 127.65928555 97.88304783 127.65928555 110.12304783 C97.95928555 110.12304783 68.25928555 110.12304783 37.65928555 110.12304783 C37.65928555 126.62304783 37.65928555 143.12304783 37.65928555 160.12304783 C72.63928555 160.12304783 107.61928555 160.12304783 143.65928555 160.12304783 C143.65928555 171.34304783 143.65928555 182.56304783 143.65928555 194.12304783 C95.14928555 194.12304783 46.63928555 194.12304783 -3.34071445 194.12304783 C-3.38101749 145.76388488 -3.38101749 145.76388488 -3.38954258 125.5664072 C-3.39548624 111.59659555 -3.40248976 97.6267899 -3.41615391 83.65698338 C-3.42609879 73.4848211 -3.43256741 63.31266368 -3.43480295 53.14049667 C-3.43611039 47.75085533 -3.43919834 42.36122789 -3.44644451 36.971591 C-3.45320165 31.90493349 -3.45533205 26.83829569 -3.45382214 21.7716341 C-3.4540986 19.90632425 -3.45610554 18.04101379 -3.45991993 16.17570782 C-3.46485239 13.64055675 -3.46371441 11.10548132 -3.46096897 8.57032871 C-3.46388181 7.82228853 -3.46679465 7.07424835 -3.46979576 6.30354029 C-3.45171832 0.18145163 -3.45171832 0.18145163 0 0 Z " fill="#FFFFFF" transform="translate(685.3407144546509,239.87695217132568)"/>
<path d="M0 0 C0.90492188 0.45761719 1.80984375 0.91523438 2.7421875 1.38671875 C24.45291201 13.0315619 37.55597333 33.3903254 45.375 56.1875 C45.61371826 56.87473145 45.85243652 57.56196289 46.09838867 58.27001953 C52.98604332 79.54826401 52.54819344 105.69453689 46 127 C45.68651611 128.03785645 45.68651611 128.03785645 45.36669922 129.09667969 C40.72751245 143.92122708 31.76034748 163.29956673 17.67578125 171.32421875 C17.12277344 171.54722656 16.56976562 171.77023438 16 172 C16 172.66 16 173.32 16 174 C0.9294615 184.85366286 -16.37654659 191.32651033 -35 192 C-35.75796875 192.03996094 -36.5159375 192.07992187 -37.296875 192.12109375 C-61.67168146 192.8163483 -83.7521372 185.15994119 -102 169 C-102.63679688 168.44699219 -103.27359375 167.89398438 -103.9296875 167.32421875 C-123.16507762 149.46278507 -130.4053087 122.39903331 -132.2890625 97.12109375 C-132.99300684 67.97139844 -124.0115827 39.75763957 -104.3359375 18.0625 C-78.61309165 -8.60230922 -33.56317839 -18.51548033 0 0 Z M-68 34 C-68.68449219 34.47953125 -69.36898438 34.9590625 -70.07421875 35.453125 C-84.38238313 46.58482066 -90.55898731 65.60747578 -92.77294922 82.90527344 C-95.11717563 104.53265261 -89.65757635 126.39258783 -76.3125 143.6875 C-68.25345113 152.58603313 -55.65477212 158.25691376 -43.734375 159.03515625 C-31.73283873 158.88085078 -21.65532336 156.13654335 -12 149 C-11.44699219 148.59265625 -10.89398437 148.1853125 -10.32421875 147.765625 C3.43932531 136.90127537 8.79571443 120.09519649 11.59375 103.47265625 C13.54301247 86.81021074 11.47645057 70.08720863 4 55 C3.63132812 54.21367188 3.26265625 53.42734375 2.8828125 52.6171875 C-3.60315592 39.77944312 -14.01401069 31.26015406 -27.5 26.74609375 C-41.43185042 22.58830714 -56.34952245 25.43047186 -68 34 Z " fill="#FFFFFF" transform="translate(1301,9)"/>
<path d="M0 0 C45.54 0 91.08 0 138 0 C138 11.88 138 23.76 138 36 C105 36 72 36 38 36 C38 48.87 38 61.74 38 75 C67.37 75 96.74 75 127 75 C127 86.55 127 98.1 127 110 C83.44 110.495 83.44 110.495 39 111 C39 126.84 39 142.68 39 159 C73.32 159.33 107.64 159.66 143 160 C143 171.22 143 182.44 143 194 C95.81 194 48.62 194 0 194 C0 129.98 0 65.96 0 0 Z " fill="#FFFFFF" transform="translate(1246,240)"/>
<path d="M0 0 C1.26392578 -0.01611328 2.52785156 -0.03222656 3.83007812 -0.04882812 C22.57933041 -0.05842836 41.10535499 5.02578819 55.0546875 18.02734375 C65.48093051 29.1983184 70.1875 43.28377392 70.1875 58.3125 C58.3075 58.3125 46.4275 58.3125 34.1875 58.3125 C32.5375 54.0225 30.8875 49.7325 29.1875 45.3125 C25.15668648 37.94186956 19.8627777 35.31922803 12.06640625 32.5625 C-0.77903292 29.06582091 -16.07432712 30.58503132 -27.875 36.6875 C-32.93882592 39.78515175 -36.16560736 43.54837576 -37.8125 49.3125 C-38.55217148 55.59970756 -37.0947492 60.96269225 -33.8125 66.3125 C-22.467348 78.40619811 -1.62591391 79.45854254 13.90844727 81.99438477 C32.69355223 85.13147049 54.12758418 90.48773069 67.1875 105.3125 C67.67992187 105.85132813 68.17234375 106.39015625 68.6796875 106.9453125 C78.2632565 118.34070051 78.18349838 132.53038014 77.41943359 146.68847656 C76.15442724 161.00035901 68.03811584 174.16387664 57.56640625 183.69921875 C36.7189042 200.3602482 10.44341048 203.24436991 -15.43994141 201.09423828 C-35.26456757 198.72990957 -53.36651938 191.44041938 -66.8125 176.3125 C-75.78803032 164.827341 -79.8125 152.70424593 -79.8125 138.3125 C-67.6025 138.3125 -55.3925 138.3125 -42.8125 138.3125 C-41.8225 142.2725 -40.8325 146.2325 -39.8125 150.3125 C-35.33827401 159.01238386 -29.71029337 164.14145234 -20.48828125 167.5 C-5.57005056 172.0299153 9.62075003 171.22714117 23.8125 164.4375 C30.15169038 160.98285397 34.73530653 157.28189198 37.1875 150.3125 C38.08681999 142.16934224 37.25041881 136.2107603 32.125 129.6875 C21.36503678 120.98795527 7.50397393 119.17437343 -5.68920898 116.50805664 C-16.3241939 114.3524625 -26.57760058 111.94599841 -36.8125 108.3125 C-37.44446289 108.09513184 -38.07642578 107.87776367 -38.72753906 107.65380859 C-53.84754704 102.39649871 -66.31323671 94.74138696 -74.125 80.25 C-79.17615999 69.1287765 -79.60993103 55.58685877 -75.84375 43.95703125 C-69.26880622 27.09628527 -58.31900656 15.44163273 -41.98828125 7.66015625 C-28.26350637 1.83598979 -14.80883971 -0.03741496 0 0 Z " fill="#FFFFFF" transform="translate(1469.8125,237.6875)"/>
<path d="M0 0 C13.2 0 26.4 0 40 0 C45.62513838 13.50033211 45.62513838 13.50033211 47.44091797 18.32714844 C47.85322159 19.42005188 48.26552521 20.51295532 48.69032288 21.63897705 C49.1199382 22.78420837 49.54955353 23.9294397 49.9921875 25.109375 C50.4544725 26.33662292 50.91675751 27.56387085 51.39305115 28.82830811 C52.63263205 32.11928773 53.8696171 35.41123715 55.1060524 38.70339966 C56.40926575 42.17198046 57.71494162 45.63963422 59.02026367 49.10742188 C65.02102727 65.05275952 71.01008375 81.00252019 76.98120117 96.95898438 C80.86023803 107.31991292 84.76182888 117.67222223 88.67161751 128.02157593 C89.55593596 130.36268012 90.43994488 132.70390094 91.32383728 135.04516602 C91.61773126 135.82362885 91.91162523 136.60209167 92.21442509 137.40414429 C92.81137941 138.98537705 93.40832036 140.56661486 94.00524807 142.14785767 C95.77221983 146.8279027 97.54128549 151.50714953 99.31185913 156.18583298 C100.42776146 159.13603784 101.5417136 162.08697649 102.65520096 165.03809357 C103.17545284 166.41570242 103.6965085 167.79300806 104.21845627 169.16997528 C104.94688964 171.09199334 105.67234904 173.01511141 106.3972168 174.93847656 C106.80497849 176.01695862 107.21274017 177.09544067 107.63285828 178.206604 C109.51804421 183.43741267 111.2417257 188.72517709 113 194 C99.47 194 85.94 194 72 194 C70.00335905 188.1985356 68.00857086 182.39650378 66.01855469 176.59277344 C65.34061755 174.61746091 64.66158445 172.64252417 63.98144531 170.66796875 C63.00559643 167.83430843 62.0336609 164.99933237 61.0625 162.1640625 C60.75626709 161.27756012 60.45003418 160.39105774 60.13452148 159.47769165 C59.85423096 158.65699188 59.57394043 157.83629211 59.28515625 156.99072266 C59.03644775 156.26680328 58.78773926 155.54288391 58.53149414 154.79702759 C58 153 58 153 58 151 C34.9 151.33 11.8 151.66 -12 152 C-16.29 165.86 -20.58 179.72 -25 194 C-38.2 194 -51.4 194 -65 194 C-63.1703338 187.29122392 -61.34331327 180.7630956 -59.06640625 174.22265625 C-58.79307968 173.4277478 -58.51975311 172.63283936 -58.23814392 171.81384277 C-57.65352001 170.1142635 -57.06743323 168.41518682 -56.47998047 166.71658325 C-54.88600531 162.10553928 -53.30499651 157.49004684 -51.72265625 152.875 C-51.24193161 151.47405846 -51.24193161 151.47405846 -50.75149536 150.04481506 C-47.95851836 141.89801426 -45.21579362 133.73530665 -42.5 125.5625 C-42.03313344 124.15925718 -41.56625485 122.75601836 -41.09936523 121.3527832 C-38.79753651 114.43108462 -36.50005865 107.50794308 -34.20378685 100.58439922 C-31.18131774 91.47167118 -28.15513236 82.36018283 -25.125 73.25 C-24.88649071 72.53282681 -24.64798141 71.81565361 -24.40224457 71.07674789 C-16.49366343 47.30156486 -8.36882116 23.61867305 0 0 Z M20 43 C19.82540253 43.55915604 19.65080505 44.11831207 19.47091675 44.69441223 C17.62127472 50.61775901 15.77120116 56.5409709 13.92089844 62.46411133 C13.23426867 64.66232031 12.54774189 66.86056145 11.86132812 69.05883789 C11.19467799 71.19377521 10.52770741 73.32861248 9.8604126 75.46334839 C9.19733908 77.58709469 8.53600721 79.71138553 7.87640381 81.83621216 C6.36537837 86.69322767 4.83230966 91.53781192 3.20410156 96.35693359 C2.92712433 97.19012619 2.65014709 98.02331879 2.36477661 98.88175964 C1.86245746 100.38654635 1.34909481 101.88773088 0.82052612 103.38349915 C-1.43373987 110.19399718 -1.40740946 115.29632294 -2 123 C13.51 123 29.02 123 45 123 C45.14292171 114.1704088 45.14292171 114.1704088 43.11987305 106.40795898 C42.70912033 105.21649765 42.29836761 104.02503632 41.87516785 102.79747009 C41.42099041 101.53023508 40.96649966 100.26311232 40.51171875 98.99609375 C40.04670978 97.66478969 39.58309742 96.33299709 39.12080383 95.00074768 C37.9074768 91.5158329 36.67590154 88.03765372 35.44006348 84.56066895 C34.19203981 81.03968345 32.96080815 77.51284339 31.72851562 73.98632812 C30.3381328 70.01022009 28.94612327 66.03474734 27.54167175 62.06358337 C25.30109504 55.72745871 23.09924933 49.38441227 21 43 C20.67 43 20.34 43 20 43 Z " fill="#FFFFFF" transform="translate(573,3)"/>
<path d="M0 0 C1.28922363 0.00563965 2.57844727 0.0112793 3.90673828 0.01708984 C26.3926383 0.30416808 45.91267606 6.77041595 62.5 22.4375 C74.68370441 35.16543328 81.40694848 50.38640919 85.8125 67.3125 C80.24453458 67.61027258 74.68123547 67.82733637 69.10717773 67.97167969 C67.21410403 68.03185429 65.32158429 68.11362758 63.43041992 68.21777344 C50.84865597 68.8930378 50.84865597 68.8930378 45.8125 67.3125 C42.07368666 63.80092052 40.57309333 60.05898266 38.8125 55.3125 C31.76377376 44.23491654 22.36103484 36.67085297 10.3125 31.9375 C1.11504019 29.91987542 -10.12919015 32.33815247 -18.15625 36.98046875 C-31.42003021 45.6784477 -38.33273637 60.01516859 -42 75.125 C-42.41994413 77.18272622 -42.8186008 79.24501272 -43.1875 81.3125 C-43.31898437 82.04339844 -43.45046875 82.77429688 -43.5859375 83.52734375 C-46.93492702 107.10604024 -42.37058426 132.5440476 -28.82421875 152.30078125 C-22.50971551 160.32286846 -13.15468399 166.19900678 -3.1875 168.3125 C8.35752682 169.45405719 19.31501139 168.35881627 29.125 161.625 C37.07720598 155.02285798 41.50037959 146.53750062 45.8125 137.3125 C46.4725 135.9925 47.1325 134.6725 47.8125 133.3125 C60.3525 133.3125 72.8925 133.3125 85.8125 133.3125 C85.13055509 140.13194907 84.60027267 145.13366774 82.1875 151.25 C81.92098633 151.93602295 81.65447266 152.6220459 81.37988281 153.32885742 C74.13806212 171.28832042 60.56623541 185.2438446 42.9375 193.125 C20.41894575 202.67824614 -7.35317442 204.71099182 -30.34375 195.90991211 C-36.89786004 193.22250298 -42.53196342 189.5849848 -48.1875 185.3125 C-48.87070313 184.80074219 -49.55390625 184.28898438 -50.2578125 183.76171875 C-51.9375 182.4375 -51.9375 182.4375 -54.1875 180.3125 C-54.1875 179.6525 -54.1875 178.9925 -54.1875 178.3125 C-55.1775 177.9825 -56.1675 177.6525 -57.1875 177.3125 C-79.60494928 153.37313215 -87.14151739 120.36933085 -86.46875 88.52734375 C-85.52884803 62.64479329 -76.0989773 37.01492906 -56.875 19.125 C-40.3686967 5.19693083 -21.32238479 -0.09695771 0 0 Z " fill="#FFFFFF" transform="translate(1154.1875,237.6875)"/>
<path d="M0 0 C1.6874269 0.00015917 3.37485866 0.00585622 5.06225586 0.01586914 C6.39189613 0.01799156 6.39189613 0.01799156 7.74839783 0.02015686 C10.59133215 0.02577324 13.43418892 0.03832848 16.27709961 0.05102539 C18.19962452 0.05603828 20.12215065 0.06060155 22.04467773 0.06469727 C26.7680151 0.07574798 31.49129419 0.09302356 36.21459961 0.11352539 C36.58139328 1.09901619 36.58139328 1.09901619 36.95559692 2.10441589 C50.88129868 39.57602749 50.88129868 39.57602749 64.96459961 76.98852539 C65.21723572 77.65441681 65.46987183 78.32030823 65.73016357 79.00637817 C65.98912415 79.6889267 66.24808472 80.37147522 66.51489258 81.07470703 C67.071077 82.54075931 67.62722805 84.00682426 68.18334961 85.47290039 C68.47323761 86.237108 68.76312561 87.00131561 69.0617981 87.78868103 C73.96551467 100.72377426 78.84182744 113.66924643 83.72106934 126.61358643 C84.86380308 129.64511482 86.00694917 132.67648716 87.1505127 135.70770264 C90.59388255 144.83538783 94.03195294 153.96503961 97.45877075 163.09895325 C97.965427 164.44938536 98.47224433 165.79975704 98.97921753 167.15007019 C100.66213108 171.63324817 102.33845682 176.11883241 104.01147461 180.60571289 C104.43938293 181.74638214 104.86729126 182.88705139 105.3081665 184.06228638 C105.69333435 185.09868256 106.0785022 186.13507874 106.4753418 187.20288086 C106.8131366 188.1079538 107.1509314 189.01302673 107.4989624 189.94552612 C108.21459961 192.11352539 108.21459961 192.11352539 108.21459961 194.11352539 C95.01459961 194.11352539 81.81459961 194.11352539 68.21459961 194.11352539 C62.17691725 180.52874009 57.91566332 166.21671652 53.21459961 152.11352539 C18.56459961 151.61852539 18.56459961 151.61852539 -16.78540039 151.11352539 C-17.77540039 155.07352539 -18.76540039 159.03352539 -19.78540039 163.11352539 C-20.50735431 165.68569682 -21.24689014 168.25306701 -22.01196289 170.81274414 C-22.20511078 171.45927444 -22.39825867 172.10580475 -22.59725952 172.77192688 C-22.99748153 174.10877547 -23.39905426 175.44522045 -23.80200195 176.78125 C-24.42074111 178.83535476 -25.03294917 180.89133663 -25.64477539 182.94750977 C-26.03762038 184.25686988 -26.43083507 185.56611915 -26.82446289 186.87524414 C-27.17718262 188.05046631 -27.52990234 189.22568848 -27.89331055 190.43652344 C-28.78540039 193.11352539 -28.78540039 193.11352539 -29.78540039 194.11352539 C-32.7424536 194.20220838 -35.67605095 194.22872835 -38.63305664 194.21118164 C-39.96269691 194.20905922 -39.96269691 194.20905922 -41.31919861 194.20689392 C-44.16213293 194.20127755 -47.0049897 194.1887223 -49.84790039 194.17602539 C-51.7704253 194.1710125 -53.69295144 194.16644923 -55.61547852 194.16235352 C-60.33881588 194.1513028 -65.06209497 194.13402722 -69.78540039 194.11352539 C-63.11348571 173.25034057 -56.24629049 152.46240961 -49.15509033 131.73794556 C-43.57665724 115.43107451 -38.09484182 99.09391896 -32.66040039 82.73852539 C-27.15524051 66.17708716 -21.61501432 49.62885991 -15.97290039 33.11352539 C-15.68985046 32.28411438 -15.40680054 31.45470337 -15.11517334 30.60015869 C-12.43064353 22.73884417 -9.72649395 14.88433679 -6.96118164 7.05102539 C-6.56455322 5.92567383 -6.1679248 4.80032227 -5.75927734 3.64086914 C-4.40725055 0.13217488 -4.40725055 0.13217488 0 0 Z M16.21459961 43.11352539 C12.14607964 54.58591325 8.11192182 66.07001034 4.10473633 77.56396484 C3.24558143 80.02478619 2.38282273 82.48431658 1.51928711 84.94360352 C0.20666616 88.68708737 -1.08897561 92.43605663 -2.37216187 96.18972778 C-2.85117288 97.58325284 -3.33546644 98.97497467 -3.8253479 100.36471558 C-4.51034566 102.31142843 -5.17536032 104.26396361 -5.83618164 106.21899414 C-6.21427979 107.3136499 -6.59237793 108.40830566 -6.98193359 109.53613281 C-8.15062816 114.12859733 -8.15062816 114.12859733 -7.78540039 123.11352539 C8.38459961 123.11352539 24.55459961 123.11352539 41.21459961 123.11352539 C41.21459961 116.01297794 40.80957931 111.66436664 38.50366211 105.32055664 C38.21962524 104.50342194 37.93558838 103.68628723 37.64294434 102.84439087 C36.72103369 100.2003494 35.78037911 97.56340468 34.83959961 94.92602539 C34.19987341 93.10047474 33.56170206 91.27437852 32.92504883 89.44775391 C31.96051334 86.68141699 30.9948995 83.9155081 30.0239563 81.15141296 C27.03729579 72.64801244 24.17132324 64.10703773 21.33959961 55.55102539 C20.91348197 54.26752769 20.48721747 52.98407873 20.06079102 51.70068359 C19.1105262 48.83880206 18.16170842 45.97645254 17.21459961 43.11352539 C16.88459961 43.11352539 16.55459961 43.11352539 16.21459961 43.11352539 Z " fill="#FFFFFF" transform="translate(930.785400390625,2.886474609375)"/>
<path d="M0 0 C13.2 0 26.4 0 40 0 C43.45891464 11.27065524 46.91740661 22.54143945 50.375 33.8125 C50.63291573 34.65323059 50.89083145 35.49396118 51.15656281 36.36016846 C59.3549449 63.08518342 67.53189374 89.81663579 75.67724609 116.55786133 C76.21079712 118.30888908 76.21079712 118.30888908 76.75512695 120.09529114 C77.41369666 122.2567904 78.07192312 124.41839429 78.72973633 126.5801239 C79.16008179 127.99259148 79.16008179 127.99259148 79.59912109 129.43359375 C79.97138321 130.65647095 79.97138321 130.65647095 80.35116577 131.90405273 C80.8791311 133.60955384 81.43542216 135.30626647 82 137 C84.04082375 131.67599871 85.89856159 126.34335786 87.57421875 120.89453125 C87.81491089 120.11812286 88.05560303 119.34171448 88.30358887 118.54177856 C89.10092716 115.96617853 89.89439463 113.38940638 90.6875 110.8125 C90.96534332 109.91250275 91.24318665 109.01250549 91.52944946 108.0852356 C98.1900605 86.50991661 104.69965483 64.88883989 111.20829773 43.26730347 C115.45196928 29.17206067 119.72732449 15.08647706 124 1 C136.87 1 149.74 1 163 1 C163 15.62515695 163 15.62515695 161.26269531 20.62768555 C160.88055374 21.75948746 160.49841217 22.89128937 160.10469055 24.05738831 C159.68342392 25.23856735 159.26215729 26.4197464 158.828125 27.63671875 C158.38832241 28.91489532 157.95026998 30.19367524 157.51383972 31.4730072 C156.35443576 34.85569118 155.17098987 38.22946875 153.98225021 41.60193634 C152.74976257 45.1122548 151.54045044 48.63054465 150.32836914 52.14794922 C147.58007909 60.10846242 144.79481259 68.05572068 142 76 C141.34030561 77.87873421 140.68063442 79.75747657 140.02099609 81.63623047 C138.03713907 87.27955593 136.04618294 92.92028671 134.03710938 98.5546875 C130.6519029 108.05950754 127.42293035 117.61004863 124.25 127.1875 C119.68601068 140.9637862 115.0727654 154.72251965 110.40637207 168.46450806 C109.67877192 170.60831397 108.95228552 172.75249822 108.22692871 174.89706421 C107.21280421 177.89461793 106.19484671 180.89084178 105.17578125 183.88671875 C104.86906998 184.7953064 104.5623587 185.70389404 104.24635315 186.64001465 C103.96436569 187.46610229 103.68237823 188.29218994 103.3918457 189.14331055 C103.14602249 189.86745651 102.90019928 190.59160248 102.64692688 191.33769226 C102 193 102 193 101 194 C98.26105915 194.08858646 95.5474673 194.11523479 92.80859375 194.09765625 C91.98875504 194.0962413 91.16891632 194.09482635 90.32423401 194.09336853 C87.69528618 194.08775289 85.06642227 194.07519779 82.4375 194.0625 C80.65950643 194.05748701 78.88151154 194.05292376 77.10351562 194.04882812 C72.73564455 194.03777839 68.36783652 194.02050331 64 194 C61.09855091 187.74767893 58.64500517 181.43441439 56.41796875 174.9140625 C56.08699188 173.95585602 55.75601501 172.99764954 55.41500854 172.01040649 C54.33559794 168.88315709 53.2615936 165.75407911 52.1875 162.625 C51.43136489 160.43180864 50.6747667 158.23877689 49.91772461 156.04589844 C48.7555706 152.67950032 47.59366358 149.3130199 46.43318176 145.94604492 C42.98293775 135.9372265 39.49883881 125.94042083 36.00518799 115.94668579 C31.579534 103.28650726 27.17050667 90.62113185 22.8125 77.9375 C18.46721021 65.29467649 14.03307284 52.68386535 9.56782532 40.08299255 C9.09640667 38.74890896 8.62755371 37.41391589 8.16130066 36.07801819 C6.93642668 32.57988754 5.66241584 29.11180836 4.30664062 25.66210938 C4.0283844 24.93239929 3.75012817 24.20268921 3.46343994 23.4508667 C2.93997241 22.08051637 2.40072719 20.71601293 1.84075928 19.36016846 C-0.76682822 12.42294417 0 8.29174275 0 0 Z " fill="#FFFFFF" transform="translate(837,240)"/>
<path d="M0 0 C12.87 0 25.74 0 39 0 C39 53.13 39 106.26 39 161 C67.38 161 95.76 161 125 161 C125 171.89 125 182.78 125 194 C83.75 194 42.5 194 0 194 C0 129.98 0 65.96 0 0 Z " fill="#FFFFFF" transform="translate(1047,3)"/>
<path d="M0 0 C13.86 0 27.72 0 42 0 C42 63.69 42 127.38 42 193 C28.14 193 14.28 193 0 193 C0 129.31 0 65.62 0 0 Z " fill="#FFFFFF" transform="translate(1011,241)"/>
<path d="M0 0 C4.95 0 9.9 0 15 0 C18.95751848 14.30722835 22.18744334 28.76059138 25.44458008 43.24072266 C26.17226968 46.47106968 26.90429031 49.70041222 27.63671875 52.9296875 C27.85962082 53.9274118 28.08252289 54.92513611 28.31217957 55.95309448 C28.51942154 56.86559967 28.72666351 57.77810486 28.94018555 58.71826172 C29.12131393 59.52351288 29.30244232 60.32876404 29.48905945 61.15841675 C29.83778335 63.00189172 29.83778335 63.00189172 31 64 C38.425 40.24 38.425 40.24 46 16 C50.95 16 55.9 16 61 16 C65.62 31.84 70.24 47.68 75 64 C80.28 42.88 85.56 21.76 91 0 C96.28 0 101.56 0 107 0 C101.88280947 20.58659218 96.24998926 41.02033603 90.5 61.4375 C90.22328461 62.42008852 90.22328461 62.42008852 89.940979 63.42252731 C87.63282887 71.61657711 85.31850575 79.80887442 83 88 C78.05 88 73.1 88 68 88 C65.59295358 82.71392862 63.86852102 77.45221791 62.3359375 71.85546875 C61.97962753 70.57897209 61.97962753 70.57897209 61.61611938 69.27668762 C60.86451329 66.58153681 60.1193755 63.8846559 59.375 61.1875 C58.62249937 58.47277951 57.86861352 55.75845859 57.11245728 53.04475403 C56.64377531 51.36155939 56.17737064 49.67772864 55.71347046 47.99320984 C54.61555297 43.90182174 54.61555297 43.90182174 53 40 C52.82682755 40.57185028 52.65365509 41.14370056 52.47523499 41.73287964 C50.67680495 47.6703931 48.87587984 53.60714556 47.07348633 59.54345703 C46.40064136 61.76070949 45.72843858 63.97815693 45.05688477 66.19580078 C44.09298704 69.37844169 43.12680212 72.56038036 42.16015625 75.7421875 C41.85908463 76.73805878 41.558013 77.73393005 41.24781799 78.75997925 C40.967603 79.68078278 40.687388 80.6015863 40.39868164 81.55029297 C40.15219376 82.3630368 39.90570587 83.17578064 39.65174866 84.01315308 C39 86 39 86 38 88 C32.72 88 27.44 88 22 88 C21.51120361 86.10016357 21.02240723 84.20032715 20.51879883 82.24291992 C18.88278972 75.88464866 17.24629463 69.52650264 15.60948658 63.168437 C14.61951493 59.32289129 13.62972357 55.47729937 12.64038086 51.6315918 C11.68404692 47.91423415 10.72721802 44.19700421 9.77004623 40.47986221 C9.39506182 39.02332734 9.02023699 37.56675137 8.64557266 36.11013412 C6.89645769 29.31065122 5.14464834 22.51230136 3.33349609 15.72900391 C3.09475266 14.83401688 2.85600922 13.93902985 2.61003113 13.016922 C2.18654025 11.43646112 1.75983982 9.85685468 1.32905579 8.27836609 C0.56153378 5.41867257 0 2.97743137 0 0 Z " fill="#FFFFFF" transform="translate(580,568)"/>
<path d="M0 0 C46.97142857 0 46.97142857 0 54.75 6.1875 C59.70432578 12.38040723 61.70229314 18.34152491 61.390625 26.2890625 C60.44805181 32.83052043 57.4013051 38.12712649 53 43 C53.72316406 43.67095703 53.72316406 43.67095703 54.4609375 44.35546875 C55.09257813 44.96003906 55.72421875 45.56460938 56.375 46.1875 C57.31472656 47.07501953 57.31472656 47.07501953 58.2734375 47.98046875 C62.81752423 53.29561092 62.57284787 59.51058008 62.37109375 66.1953125 C61.74550535 72.60923992 59.69242437 77.30194294 55.1328125 81.87109375 C40.10009688 94.06689611 17.09447192 88 0 88 C0 58.96 0 29.92 0 0 Z M14 12 C14 20.58 14 29.16 14 38 C18.9809375 38.0928125 18.9809375 38.0928125 24.0625 38.1875 C25.09511963 38.21481201 26.12773926 38.24212402 27.19165039 38.27026367 C32.93253302 38.32176382 36.95349713 37.80213712 42 35 C45.3436291 31.48490274 46.28165405 28.67067662 46.5 23.9375 C46.35052901 20.5099755 46.03441411 19.06118065 44.3125 16 C40.31568832 12.54329801 36.6885114 11.74649708 31.48046875 11.8046875 C30.09831177 11.81218018 30.09831177 11.81218018 28.68823242 11.81982422 C26.95536987 11.84713623 26.95536987 11.84713623 25.1875 11.875 C19.6496875 11.936875 19.6496875 11.936875 14 12 Z M14 50 C14 58.58 14 67.16 14 76 C17.67125 76.061875 21.3425 76.12375 25.125 76.1875 C26.2711377 76.21481201 27.41727539 76.24212402 28.59814453 76.27026367 C35.5072749 76.32659798 40.1133223 75.73064107 45.3125 70.8125 C47.47499321 67.20834464 48.22227994 64.19862102 48 60 C46.62405481 56.35374523 45.08095666 53.43909069 42 51 C38.82212459 49.9407082 36.57411057 49.88541061 33.23828125 49.90234375 C32.23063721 49.90484131 31.22299316 49.90733887 30.18481445 49.90991211 C28.90695068 49.91901611 27.62908691 49.92812012 26.3125 49.9375 C22.249375 49.958125 18.18625 49.97875 14 50 Z " fill="#FFFFFF" transform="translate(1361,568)"/>
<path d="M0 0 C47.54285714 0 47.54285714 0 55.25 5.1875 C65.23215456 15.39652171 64.33175804 30.66099426 64.25 44.0625 C64.26160156 45.96999023 64.26160156 45.96999023 64.2734375 47.91601562 C64.2500369 59.31795854 63.95502798 71.42805492 57 81 C42.29448239 94.12992643 15.59626557 88 0 88 C0 58.96 0 29.92 0 0 Z M15 12 C15 33.12 15 54.24 15 76 C36.54032522 77.78885438 36.54032522 77.78885438 45 73 C48.0656555 68.87722191 49.11684557 65.0591842 49.14526367 59.98510742 C49.15164352 59.20717331 49.15802338 58.4292392 49.16459656 57.62773132 C49.16570938 56.79538467 49.1668222 55.96303802 49.16796875 55.10546875 C49.17129715 54.23988846 49.17462555 53.37430817 49.17805481 52.48249817 C49.18311173 50.65264415 49.18546352 48.82278093 49.18530273 46.99291992 C49.18748393 44.20801391 49.2056381 41.42350758 49.22460938 38.63867188 C49.2275447 36.85677218 49.22952856 35.07487061 49.23046875 33.29296875 C49.23765427 32.46669479 49.24483978 31.64042084 49.25224304 30.78910828 C49.23307314 25.88302599 48.93162514 21.58799964 47 17 C38.9727494 9.2258676 38.9727494 9.2258676 15 12 Z " fill="#FFFFFF" transform="translate(300,568)"/>
<path d="M0 0 C7.63109048 6.17754944 9.46239694 13.69793629 10.625 23.125 C10.81199782 27.94105822 10.81081738 32.75606069 10.81030273 37.57519531 C10.8124809 39.8550101 10.83065267 42.13433354 10.84960938 44.4140625 C10.94590697 69.10177003 10.94590697 69.10177003 3.078125 77.84375 C-4.61210714 84.54805495 -15.84572223 85.6815969 -25.71875 85.34765625 C-35.0598753 84.56465016 -43.31360384 83.09614291 -50.1875 76.375 C-55.45654867 68.54669912 -56.52967921 60.55915576 -56.578125 51.30859375 C-56.58382507 50.45628677 -56.58952515 49.6039798 -56.59539795 48.72584534 C-56.60482482 46.92295564 -56.61137272 45.12004888 -56.61523438 43.31713867 C-56.62488169 40.5958735 -56.65590252 37.8753832 -56.6875 35.15429688 C-56.83657725 10.65251685 -56.83657725 10.65251685 -49.375 2.125 C-36.87922442 -8.54212549 -13.72814586 -7.6267477 0 0 Z M-38.75 12.1875 C-43.32418876 20.45622583 -42.6818107 30.38283796 -42.625 39.5625 C-42.63273437 40.80837891 -42.64046875 42.05425781 -42.6484375 43.33789062 C-42.96057031 56.50412791 -42.96057031 56.50412791 -38 68.1875 C-32.98760328 71.88712615 -29.21180049 72.4893268 -23 72.5 C-21.88625 72.53673828 -21.88625 72.53673828 -20.75 72.57421875 C-15.48598243 72.6021199 -12.57293396 71.55214487 -8.375 68.125 C-5.03206528 64.43624445 -4.26313188 61.01480659 -4.21386719 56.12597656 C-4.20425964 55.35127014 -4.1946521 54.57656372 -4.18475342 53.77838135 C-4.1783786 52.53456696 -4.1783786 52.53456696 -4.171875 51.265625 C-4.16332489 49.97081207 -4.16332489 49.97081207 -4.15460205 48.64984131 C-4.14516706 46.82419047 -4.13862404 44.99852271 -4.13476562 43.17285156 C-4.125083 40.39878089 -4.09405517 37.62545872 -4.0625 34.8515625 C-4.05596692 33.07292104 -4.05071765 31.29427431 -4.046875 29.515625 C-4.0345282 28.69451233 -4.0221814 27.87339966 -4.00946045 27.02740479 C-4.03087152 21.41037636 -4.99081373 17.23637055 -7.375 12.125 C-16.08738179 4.89557682 -30.05557607 4.63707922 -38.75 12.1875 Z " fill="#FFFFFF" transform="translate(1157.375,571.875)"/>
<path d="M0 0 C7.33679419 5.49968883 9.63687569 12.20385943 11 21 C11.44614572 26.6284476 11.43281499 32.2661293 11.39111328 37.90869141 C11.37502703 40.49565348 11.39103749 43.08105383 11.41015625 45.66796875 C11.43990093 69.52677949 11.43990093 69.52677949 4 78 C-5.05014663 85.88024962 -16.41848919 86.79668992 -28 86 C-36.41280682 84.90308154 -44.12763889 83.52484568 -50 77 C-57.00943336 67.37258551 -56.34830669 54.29656951 -56.31567383 42.93066406 C-56.31251457 40.63558341 -56.33605257 38.34179734 -56.36132812 36.046875 C-56.41647233 23.14747381 -55.74307781 11.07200843 -46.4375 1.3125 C-34.95774282 -7.45283184 -12.24873417 -6.42927868 0 0 Z M-38.4375 14 C-45.03226847 26.66195547 -43.8628251 49.60875888 -40.44140625 63.22265625 C-38.63010669 68.04255507 -35.51965336 70.74017332 -31 73 C-28.2552596 73.17830582 -25.55920948 73.27767275 -22.8125 73.3125 C-22.06935547 73.34150391 -21.32621094 73.37050781 -20.56054688 73.40039062 C-14.89465117 73.46494509 -11.63432325 72.29420685 -7 69 C0.82424786 55.69877864 -1.97821236 33.17363395 -4.171875 18.48828125 C-5.74232951 13.76950991 -8.18848467 11.41287622 -12.5625 9.1875 C-21.32096887 6.33325037 -32.32181832 6.47300717 -38.4375 14 Z " fill="#FFFFFF" transform="translate(465,571)"/>
<path d="M0 0 C5.19212878 4.08719228 7.77165729 8.46979911 8.640625 15.05078125 C8.7953125 16.84515625 8.7953125 16.84515625 8.953125 18.67578125 C4.333125 18.67578125 -0.286875 18.67578125 -5.046875 18.67578125 C-5.541875 17.03609375 -5.541875 17.03609375 -6.046875 15.36328125 C-7.3801163 12.29992682 -8.51564662 11.02577225 -11.609375 9.73828125 C-19.48018828 7.41314192 -26.73139861 8.0822139 -34.046875 11.67578125 C-36.86124796 14.13835759 -37.01547088 15.42454828 -37.484375 19.17578125 C-37.32644223 22.66221003 -37.32644223 22.66221003 -35.421875 24.98828125 C-30.16225144 28.7253822 -24.02100854 29.20295732 -17.796875 30.05078125 C0.39948287 32.78153777 0.39948287 32.78153777 6.796875 40.796875 C9.82865683 45.72352048 10.34067324 50.21633143 10.328125 55.92578125 C10.32570801 57.06031738 10.32570801 57.06031738 10.32324219 58.21777344 C10.19416749 64.10206111 9.21030106 68.68220123 5.953125 73.67578125 C5.39625 74.58328125 4.839375 75.49078125 4.265625 76.42578125 C-2.85263236 83.35165327 -11.72837924 85.56834642 -21.421875 85.98828125 C-30.72041082 85.7085023 -39.41877481 83.42690882 -46.046875 76.67578125 C-51.27744633 70.69607439 -52.07977777 64.41255912 -53.046875 56.67578125 C-48.096875 56.67578125 -43.146875 56.67578125 -38.046875 56.67578125 C-37.7065625 58.74859375 -37.7065625 58.74859375 -37.359375 60.86328125 C-36.35473881 65.42002398 -34.79276136 67.75216263 -31.046875 70.67578125 C-24.96849664 72.70190737 -16.79456702 73.0365132 -10.921875 70.17578125 C-7.28691254 67.01494432 -5.85953025 64.39773595 -5.046875 59.67578125 C-4.88116017 55.6986254 -5.37684625 52.61878468 -7.734375 49.30078125 C-14.01906716 44.88451108 -22.40404814 44.50192847 -29.81640625 43.3515625 C-37.18120943 42.10894139 -43.92752909 40.42717753 -48.984375 34.61328125 C-53.37320601 28.36252193 -52.57525581 21.00419335 -52.046875 13.67578125 C-50.42374544 7.00751013 -45.65023996 2.37870425 -40.046875 -1.32421875 C-29.22812501 -6.97401041 -10.26415407 -6.64035922 0 0 Z " fill="#FFFFFF" transform="translate(1306.046875,571.32421875)"/>
<path d="M0 0 C4.21582637 3.25768402 6.40813311 6.53067058 7.953125 11.7109375 C8.140625 15.6484375 8.140625 15.6484375 7.953125 18.7109375 C3.663125 18.7109375 -0.626875 18.7109375 -5.046875 18.7109375 C-8.046875 12.9609375 -8.046875 12.9609375 -8.046875 10.7109375 C-17.1442294 8.01542509 -27.35437313 7.00469406 -36.046875 11.7109375 C-36.89247955 13.57152933 -36.89247955 13.57152933 -37.046875 15.7109375 C-37.14871094 16.3709375 -37.25054688 17.0309375 -37.35546875 17.7109375 C-37.39800781 18.3709375 -37.44054688 19.0309375 -37.484375 19.7109375 C-37.54496094 20.3709375 -37.60554688 21.0309375 -37.66796875 21.7109375 C-36.84893511 24.34832886 -35.39570794 25.431269 -33.07299805 26.8359375 C-28.8471259 28.66091952 -24.26303573 29.08429386 -19.734375 29.7109375 C-10.52366903 31.00031695 -0.72621843 32.6499173 5.953125 39.7109375 C10.94974371 46.97575813 10.85052729 55.19921279 9.953125 63.7109375 C7.98526414 71.82441732 4.08978428 76.62387809 -2.671875 81.3984375 C-11.45019684 86.6654306 -22.30828305 86.64578987 -32.046875 84.5859375 C-39.48034689 82.57055735 -44.58533325 79.23390779 -48.921875 72.8359375 C-51.86387549 67.66514875 -53.046875 62.68688351 -53.046875 56.7109375 C-48.426875 56.7109375 -43.806875 56.7109375 -39.046875 56.7109375 C-38.655 58.0928125 -38.263125 59.4746875 -37.859375 60.8984375 C-36.41744604 65.23789194 -34.67699433 67.80684203 -31.046875 70.7109375 C-24.9808771 72.7329368 -16.81202184 73.05419352 -10.921875 70.2734375 C-7.0678116 66.83829403 -5.69707471 63.80687772 -5.046875 58.7109375 C-5.12948782 55.43224102 -5.38846061 52.56868963 -7.046875 49.7109375 C-13.25564129 45.42219305 -21.47414828 44.96150959 -28.75 43.69335938 C-36.60515546 42.2381777 -42.997995 40.6272575 -48.921875 34.9609375 C-52.93783971 28.81887383 -53.54505538 23.28326096 -52.57421875 16.16015625 C-50.89614992 8.36645881 -46.66205961 3.08251055 -40.046875 -1.2890625 C-29.16416932 -6.97225324 -10.37039415 -6.53097341 0 0 Z " fill="#FFFFFF" transform="translate(1233.046875,571.2890625)"/>
<path d="M0 0 C4.70462304 3.71953951 7.60545074 7.56753128 8.7265625 13.5234375 C8.7265625 15.1734375 8.7265625 16.8234375 8.7265625 18.5234375 C4.1065625 18.5234375 -0.5134375 18.5234375 -5.2734375 18.5234375 C-5.6240625 17.4303125 -5.9746875 16.3371875 -6.3359375 15.2109375 C-7.69299505 12.1215991 -8.27091962 11.52506363 -11.2734375 9.5859375 C-17.52374128 7.45845566 -24.53044718 7.69892405 -30.7734375 9.7109375 C-34.57373205 11.67894718 -35.92696624 12.48402372 -37.2734375 16.5234375 C-37.49918492 19.40736078 -37.551009 21.90249682 -36.2734375 24.5234375 C-30.36200642 28.58815705 -22.96976523 28.85678467 -16.03515625 29.80859375 C-7.17070403 31.17505081 2.20173118 33.9895766 7.7265625 41.5234375 C12.02198253 51.45877895 11.66056559 60.56070239 7.7265625 70.5234375 C4.42304094 76.88577532 -0.80495192 81.03694368 -7.3359375 83.8359375 C-18.70125725 86.49590595 -30.04015463 86.5956329 -40.5234375 81.0234375 C-46.2987069 77.33090305 -49.68066696 72.0823855 -51.92578125 65.65625 C-52.41589937 62.64945793 -52.2734375 59.56991322 -52.2734375 56.5234375 C-47.6534375 56.5234375 -43.0334375 56.5234375 -38.2734375 56.5234375 C-37.8815625 58.0909375 -37.4896875 59.6584375 -37.0859375 61.2734375 C-35.74503883 65.78779636 -34.4492033 68.06080639 -30.2734375 70.5234375 C-25.37544439 72.97243406 -17.26231657 72.47271851 -12.12109375 70.83984375 C-8.43310218 68.57825095 -6.6324105 65.52485801 -5.2734375 61.5234375 C-4.5395344 56.90800244 -4.56107593 53.69374579 -7.0234375 49.6484375 C-12.86774849 45.82715724 -19.53925444 44.98724328 -26.33203125 43.81640625 C-44.13018762 40.74002793 -44.13018762 40.74002793 -49.2109375 33.9609375 C-53.01262678 28.17463754 -52.84679421 22.24809264 -52.2734375 15.5234375 C-50.61384611 8.35520239 -47.50469613 3.46859495 -41.2734375 -0.4765625 C-29.8343731 -6.67170612 -11.11427254 -7.21854815 0 0 Z " fill="#FFFFFF" transform="translate(975.2734375,571.4765625)"/>
<path d="M0 0 C4.62 0 9.24 0 14 0 C14 12.54 14 25.08 14 38 C25.55 38 37.1 38 49 38 C49 25.46 49 12.92 49 0 C53.62 0 58.24 0 63 0 C63 29.04 63 58.08 63 88 C58.38 88 53.76 88 49 88 C49 75.46 49 62.92 49 50 C37.45 50 25.9 50 14 50 C14 62.54 14 75.08 14 88 C9.38 88 4.76 88 0 88 C0 58.96 0 29.92 0 0 Z " fill="#FFFFFF" transform="translate(696,568)"/>
<path d="M0 0 C4.62 0 9.24 0 14 0 C14 12.54 14 25.08 14 38 C25.55 38 37.1 38 49 38 C49 25.46 49 12.92 49 0 C53.62 0 58.24 0 63 0 C63 29.04 63 58.08 63 88 C58.38 88 53.76 88 49 88 C49 75.46 49 62.92 49 50 C37.45 50 25.9 50 14 50 C14 62.54 14 75.08 14 88 C9.38 88 4.76 88 0 88 C0 58.96 0 29.92 0 0 Z " fill="#FFFFFF" transform="translate(81,568)"/>
<path d="M0 0 C5.28 0 10.56 0 16 0 C22.61527853 19.49423613 28.95206107 39.05117208 34.93847656 58.74829102 C35.17795013 59.53537949 35.41742371 60.32246796 35.66415405 61.13340759 C36.12893029 62.66106981 36.59300134 64.18894679 37.05630493 65.71705627 C38.68663126 71.06401702 40.44811397 76.35603656 42.32055664 81.6237793 C43 84 43 84 43 88 C38.05 88 33.1 88 28 88 C26.99652209 84.87607768 25.9970752 81.75096549 25 78.625 C24.71382812 77.73554687 24.42765625 76.84609375 24.1328125 75.9296875 C23.86210938 75.07890625 23.59140625 74.228125 23.3125 73.3515625 C23.06113281 72.56604004 22.80976562 71.78051758 22.55078125 70.97119141 C22 69 22 69 22 67 C12.1 67 2.2 67 -8 67 C-8.66 69.97 -9.32 72.94 -10 76 C-11.23402777 80.03986463 -12.62247603 84.00518048 -14 88 C-18.95 88 -23.9 88 -29 88 C-28.2808948 82.96626362 -27.55414748 79.17982221 -25.9621582 74.49243164 C-25.54114334 73.24325455 -25.12012848 71.99407745 -24.68635559 70.70704651 C-24.22469954 69.35801392 -23.76283596 68.00905234 -23.30078125 66.66015625 C-22.82287559 65.25133198 -22.34544185 63.84234755 -21.86845398 62.43321228 C-20.86765319 59.48078787 -19.86280586 56.52978432 -18.85473633 53.57983398 C-17.57933567 49.84730324 -16.31141518 46.11229021 -15.04630756 42.3762598 C-14.05917139 39.46252618 -13.06920412 36.54976073 -12.07832909 33.63729668 C-11.61104215 32.26353857 -11.14428479 30.88960018 -10.67812538 29.51545906 C-7.31021568 19.59908702 -3.71244787 9.79249535 0 0 Z M7 21 C5.57023217 25.35813007 4.14622932 29.71808526 2.72753906 34.07983398 C2.24409497 35.56342333 1.75907875 37.04650134 1.27246094 38.52905273 C0.57333176 40.65996993 -0.12012543 42.79266126 -0.8125 44.92578125 C-1.03123779 45.58838455 -1.24997559 46.25098785 -1.4753418 46.93367004 C-2.38547586 49.75405555 -3 52.01399134 -3 55 C3.93 55 10.86 55 18 55 C17.30056211 50.10393474 16.55360567 46.05878706 15.15234375 41.41015625 C14.79462891 40.21455078 14.43691406 39.01894531 14.06835938 37.78710938 C13.50858398 35.94342773 13.50858398 35.94342773 12.9375 34.0625 C12.56044922 32.80630859 12.18339844 31.55011719 11.79492188 30.25585938 C10.86774943 27.16919668 9.93598162 24.0840006 9 21 C8.34 21 7.68 21 7 21 Z " fill="#FFFFFF" transform="translate(29,568)"/>
<path d="M0 0 C5.28 0 10.56 0 16 0 C18.70325475 6.85874344 20.8743318 13.8647308 23.04257202 20.90649414 C26.30025012 31.48126901 29.63070386 42.02127406 33.1875 52.5 C37.16135961 64.22765851 40.62104119 76.08917021 44 88 C38.72 88 33.44 88 28 88 C25.03 78.1 25.03 78.1 22 68 C12.43 68 2.86 68 -7 68 C-9.31 74.6 -11.62 81.2 -14 88 C-18.95 88 -23.9 88 -29 88 C-28.22404355 83.34426129 -27.29035891 79.50841507 -25.8046875 75.0859375 C-25.58026474 74.41413452 -25.35584198 73.74233154 -25.12461853 73.0501709 C-24.37930783 70.82355379 -23.6273105 68.59926091 -22.875 66.375 C-22.34828282 64.80754466 -21.82184024 63.23999703 -21.2956543 61.67236328 C-19.5385838 56.44547728 -17.76992096 51.2225461 -16 46 C-15.67102722 45.02853027 -15.34205444 44.05706055 -15.00311279 43.05615234 C-12.61135546 35.99402618 -10.21387285 28.93386196 -7.8125 21.875 C-7.47917664 20.89440613 -7.14585327 19.91381226 -6.8024292 18.90350342 C-5.85561327 16.11999905 -4.9067085 13.33721675 -3.95703125 10.5546875 C-3.6721434 9.71675659 -3.38725555 8.87882568 -3.09373474 8.01550293 C-1.11518466 2.23036932 -1.11518466 2.23036932 0 0 Z M8 21 C5.15595038 27.89990357 2.60221652 34.85561206 0.25 41.9375 C-0.06582031 42.86884766 -0.38164063 43.80019531 -0.70703125 44.75976562 C-1.00480469 45.65244141 -1.30257812 46.54511719 -1.609375 47.46484375 C-1.87717773 48.265271 -2.14498047 49.06569824 -2.42089844 49.89038086 C-3.13235646 52.11755381 -3.13235646 52.11755381 -3 55 C4.26 55 11.52 55 19 55 C17.75971197 50.63857562 16.51630535 46.27830425 15.26464844 41.92016602 C14.83990948 40.43763253 14.41704212 38.9545615 13.99609375 37.47094727 C13.39034619 35.33725864 12.7778715 33.20560026 12.1640625 31.07421875 C11.97752106 30.41161545 11.79097961 29.74901215 11.5987854 29.06632996 C10.69723732 25.95952679 9.81444281 23.72166421 8 21 Z " fill="#FFFFFF" transform="translate(797,568)"/>
<path d="M0 0 C5.28 0 10.56 0 16 0 C17.95060092 4.55140215 19.64046049 8.7263963 21.09716797 13.39990234 C21.48121796 14.62583099 21.86526794 15.85175964 22.26095581 17.11483765 C22.67148337 18.43850132 23.08189076 19.76220226 23.4921875 21.0859375 C23.92404244 22.47019162 24.35618709 23.85435539 24.78860474 25.23843384 C25.69353372 28.13758397 26.59602814 31.0374762 27.49658203 33.93798828 C28.63501283 37.6045178 29.77780653 41.2696675 30.92220688 44.93433762 C35.3941392 59.25697221 39.83402886 73.58469401 44 88 C38.72 88 33.44 88 28 88 C25.03 78.1 25.03 78.1 22 68 C12.43 68 2.86 68 -7 68 C-9.31 74.6 -11.62 81.2 -14 88 C-18.95 88 -23.9 88 -29 88 C-27.527663 80.21393549 -25.01641163 72.87547705 -22.40524292 65.41665649 C-21.05535249 61.56001526 -19.72163353 57.69778264 -18.38671875 53.8359375 C-17.97115471 52.63542503 -17.97115471 52.63542503 -17.54719543 51.41065979 C-13.91045973 40.8821077 -10.41851529 30.30512927 -6.92236328 19.72924805 C-6.68144455 19.00236786 -6.44052582 18.27548767 -6.19230652 17.52658081 C-5.54410478 15.57065299 -4.89782969 13.61408696 -4.25170898 11.6574707 C-2.91055937 7.73865612 -1.47155798 3.87149394 0 0 Z M8 20 C6.42960995 24.66181068 4.86312992 29.32490957 3.30029297 33.98925781 C2.76784386 35.57653441 2.23431935 37.16345069 1.69970703 38.75 C0.93240311 41.02771108 0.16894888 43.30668093 -0.59375 45.5859375 C-0.95466736 46.65320572 -0.95466736 46.65320572 -1.32287598 47.74203491 C-2.57091837 51.29348889 -2.57091837 51.29348889 -3 55 C4.26 55 11.52 55 19 55 C15.7 43.45 12.4 31.9 9 20 C8.67 20 8.34 20 8 20 Z " fill="#FFFFFF" transform="translate(248,568)"/>
<path d="M0 0 C44.84716157 0 44.84716157 0 52.3046875 5.7890625 C58.7652473 13.34245332 60.63934402 21.10990656 60.34765625 30.9765625 C59.41325651 39.1026906 56.35443733 46.66343593 50 52 C44.08155829 55.8022209 38.49974799 57.1368701 31.48046875 57.09765625 C30.55903076 57.09515869 29.63759277 57.09266113 28.68823242 57.09008789 C27.53299072 57.08098389 26.37774902 57.07187988 25.1875 57.0625 C19.6496875 57.0315625 19.6496875 57.0315625 14 57 C14 67.23 14 77.46 14 88 C9.38 88 4.76 88 0 88 C0 58.96 0 29.92 0 0 Z M14 12 C14 22.89 14 33.78 14 45 C28.13852582 46.01767138 28.13852582 46.01767138 40.61328125 40.53515625 C44.93764921 35.55299711 45.29431515 32.14454066 45.2109375 25.7578125 C44.82481248 20.70958534 42.93054176 18.02268956 39.59375 14.35546875 C35.15477927 10.73643529 30.07072208 11.46089572 24.625 11.6875 C21.11875 11.790625 17.6125 11.89375 14 12 Z " fill="#FFFFFF" transform="translate(1030,568)"/>
<path d="M0 0 C17.82 0 35.64 0 54 0 C54 3.96 54 7.92 54 12 C40.8 12 27.6 12 14 12 C14 20.58 14 29.16 14 38 C23.57 38 33.14 38 43 38 C43 41.96 43 45.92 43 50 C33.43 50 23.86 50 14 50 C14 58.58 14 67.16 14 76 C27.2 76 40.4 76 54 76 C54 79.96 54 83.92 54 88 C36.18 88 18.36 88 0 88 C0 58.96 0 29.92 0 0 Z " fill="#FFFFFF" transform="translate(1495,568)"/>
<path d="M0 0 C17.82 0 35.64 0 54 0 C54 3.96 54 7.92 54 12 C40.8 12 27.6 12 14 12 C14 20.58 14 29.16 14 38 C23.57 38 33.14 38 43 38 C43 41.96 43 45.92 43 50 C33.43 50 23.86 50 14 50 C14 58.58 14 67.16 14 76 C27.2 76 40.4 76 54 76 C54 79.96 54 83.92 54 88 C36.18 88 18.36 88 0 88 C0 58.96 0 29.92 0 0 Z " fill="#FFFFFF" transform="translate(161,568)"/>
<path d="M0 0 C17.82 0 35.64 0 54 0 C54 3.96 54 7.92 54 12 C40.8 12 27.6 12 14 12 C14 20.58 14 29.16 14 38 C23.57 38 33.14 38 43 38 C43 41.96 43 45.92 43 50 C33.43 50 23.86 50 14 50 C14 62.54 14 75.08 14 88 C9.38 88 4.76 88 0 88 C0 58.96 0 29.92 0 0 Z " fill="#FFFFFF" transform="translate(492,568)"/>
<path d="M0 0 C19.47 0 38.94 0 59 0 C59 3.96 59 7.92 59 12 C51.74 12 44.48 12 37 12 C37 37.08 37 62.16 37 88 C32.05 88 27.1 88 22 88 C22 62.92 22 37.84 22 12 C14.74 12 7.48 12 0 12 C0 8.04 0 4.08 0 0 Z " fill="#FFFFFF" transform="translate(835,568)"/>
<path d="M0 0 C4.95 0 9.9 0 15 0 C15 25.08 15 50.16 15 76 C26.22 76 37.44 76 49 76 C49 79.96 49 83.92 49 88 C42.18237576 88.02464247 35.3647772 88.04283244 28.54711914 88.05493164 C26.22582549 88.05997333 23.90453503 88.06680651 21.58325195 88.07543945 C18.25471205 88.08751225 14.92621398 88.09322979 11.59765625 88.09765625 C10.03048607 88.10539818 10.03048607 88.10539818 8.43165588 88.11329651 C7.47073532 88.11337204 6.50981476 88.11344757 5.51977539 88.11352539 C4.66928116 88.115746 3.81878693 88.11796661 2.94252014 88.12025452 C1 88 1 88 0 87 C-0.09514592 84.29161914 -0.12554932 81.60881487 -0.11352539 78.90014648 C-0.11367142 78.05143982 -0.11381744 77.20273315 -0.1139679 76.32830811 C-0.11326848 73.50921109 -0.10547478 70.69017929 -0.09765625 67.87109375 C-0.09579217 65.92196183 -0.09436822 63.97282945 -0.09336853 62.0236969 C-0.08954255 56.88293168 -0.07971159 51.74219453 -0.06866455 46.60144043 C-0.05845215 41.35994852 -0.05387128 36.1184521 -0.04882812 30.87695312 C-0.03808939 20.58462306 -0.02101201 10.29231386 0 0 Z " fill="#FFFFFF" transform="translate(1436,568)"/>
<path d="M0 0 C4.62 0 9.24 0 14 0 C14 29.04 14 58.08 14 88 C9.38 88 4.76 88 0 88 C0 58.96 0 29.92 0 0 Z " fill="#FFFFFF" transform="translate(1330,568)"/>
<path d="M0 0 C2.97 0 5.94 0 9 0 C9.44653931 0.94637329 9.44653931 0.94637329 9.90209961 1.91186523 C11.2450233 4.75479352 12.59121615 7.59616151 13.9375 10.4375 C14.40607422 11.43072266 14.87464844 12.42394531 15.35742188 13.44726562 C15.80537109 14.39150391 16.25332031 15.33574219 16.71484375 16.30859375 C17.12855225 17.18314209 17.54226074 18.05769043 17.96850586 18.95874023 C18.83676941 20.94083413 18.83676941 20.94083413 20 22 C20.29769287 21.36908447 20.59538574 20.73816895 20.90209961 20.08813477 C22.2450233 17.24520648 23.59121615 14.40383849 24.9375 11.5625 C25.64036133 10.07266602 25.64036133 10.07266602 26.35742188 8.55273438 C27.0293457 7.13637695 27.0293457 7.13637695 27.71484375 5.69140625 C28.33540649 4.37958374 28.33540649 4.37958374 28.96850586 3.04125977 C30 1 30 1 31 0 C33.64 0 36.28 0 39 0 C39 13.86 39 27.72 39 42 C36.69 42 34.38 42 32 42 C31.505 29.13 31.505 29.13 31 16 C28.36 21.61 25.72 27.22 23 33 C20.69 33 18.38 33 16 33 C12.04 24.585 12.04 24.585 8 16 C7.67 24.58 7.34 33.16 7 42 C4.69 42 2.38 42 0 42 C0 28.14 0 14.28 0 0 Z " fill="#FFFFFF" transform="translate(1593,568)"/>
<path d="M0 0 C9.24 0 18.48 0 28 0 C28 1.98 28 3.96 28 6 C24.37 6 20.74 6 17 6 C17 17.88 17 29.76 17 42 C14.69 42 12.38 42 10 42 C10 30.12 10 18.24 10 6 C6.7 6 3.4 6 0 6 C0 4.02 0 2.04 0 0 Z " fill="#FFFFFF" transform="translate(1561,568)"/>
<path d="M0 0 C4.29 0 8.58 0 13 0 C13.10831658 3.37586685 13.18746727 6.74823231 13.25 10.125 C13.30027344 11.55199219 13.30027344 11.55199219 13.3515625 13.0078125 C13.4321579 18.81068114 13.15970201 22.5514298 9 27 C6.30126695 28.29027018 3.99530611 28.50078231 1 29 C0.67 27.02 0.34 25.04 0 23 C0.804375 22.649375 1.60875 22.29875 2.4375 21.9375 C5.3867767 20.14332716 5.3867767 20.14332716 5.8125 16.3125 C5.874375 15.219375 5.93625 14.12625 6 13 C4.02 13 2.04 13 0 13 C0 8.71 0 4.42 0 0 Z " fill="#FFFFFF" transform="translate(901,568)"/>
</svg>
