<?xml version="1.0" encoding="UTF-8"?>
<svg version="1.1" xmlns="http://www.w3.org/2000/svg" width="449" height="148">
<path d="M0 0 C10.56 0 21.12 0 32 0 C32.33 27.39 32.66 54.78 33 83 C40.3006849 85.43356163 48.31400391 84.6157002 56 85 C56 56.95 56 28.9 56 0 C66.89 0 77.78 0 89 0 C89.02254805 14.32494764 89.04091336 28.6498836 89.05181217 42.97484493 C89.05704174 49.6257353 89.06414072 56.27660786 89.07543945 62.92749023 C89.08626571 69.34002877 89.09227628 75.75255504 89.09487724 82.16510201 C89.09673197 84.61764278 89.10035347 87.07018285 89.10573006 89.52271843 C89.11293702 92.94476677 89.11399109 96.36676371 89.11352539 99.78881836 C89.11712067 100.81380432 89.12071594 101.83879028 89.12442017 102.89483643 C89.1230455 103.82176804 89.12167084 104.74869965 89.12025452 105.70372009 C89.12117631 106.51397613 89.1220981 107.32423216 89.12304783 108.1590414 C89 110 89 110 88 111 C85.9979652 111.11515828 83.99184157 111.15968743 81.98657227 111.17700195 C80.05304649 111.19625481 80.05304649 111.19625481 78.08045959 111.21589661 C76.65911239 111.22406905 75.23776083 111.23151181 73.81640625 111.23828125 C72.74428044 111.24439454 72.74428044 111.24439454 71.65049553 111.25063133 C67.85887819 111.27152919 64.06729731 111.2858081 60.27563477 111.29516602 C56.37866022 111.30616786 52.48226666 111.34048325 48.58549595 111.38033772 C45.57493622 111.40664889 42.56451092 111.41487115 39.55384636 111.41844749 C38.11908026 111.42328543 36.68431903 111.43481875 35.24966621 111.45348549 C24.44877601 111.58514918 14.74123157 110.63440777 6.6453495 102.82489967 C1.11880154 96.69526244 -0.74358975 90.63700701 -0.56762695 82.53295898 C-0.56872215 81.18499489 -0.56872215 81.18499489 -0.56983948 79.80979919 C-0.56638592 76.87126002 -0.52763176 73.93435226 -0.48828125 70.99609375 C-0.47894516 68.94630295 -0.47183281 66.89650093 -0.46684265 64.84669495 C-0.44783559 59.4755829 -0.39878912 54.10515673 -0.34332275 48.73431396 C-0.29199423 43.24419429 -0.26929962 37.7539628 -0.24414062 32.26367188 C-0.19066397 21.50876616 -0.10277966 10.75454767 0 0 Z " fill="#FFFFFF" transform="translate(281,0)"/>
<path d="M0 0 C16.335 0.495 16.335 0.495 33 1 C34.216875 4.96 35.43375 8.92 36.6875 13 C38.12380076 17.66703653 39.56183264 22.33353839 41 27 C41.25507324 27.82886719 41.51014648 28.65773438 41.77294922 29.51171875 C44.3502523 37.87795313 47.04936714 46.19752678 49.83813477 54.49536133 C51.65011209 59.90202064 53.34960642 65.33583861 55.00390625 70.79296875 C56.11793497 74.37970434 57.30195531 77.94072966 58.5 81.5 C61.78044957 91.29088025 64.75752029 100.90884129 67 111 C33.34 111 -0.32 111 -35 111 C-33.87589158 100.88302425 -33.87589158 100.88302425 -32.546875 97.125 C-32.25981689 96.29339355 -31.97275879 95.46178711 -31.67700195 94.60498047 C-31.37109131 93.74533691 -31.06518066 92.88569336 -30.75 92 C-30.11076166 90.14930586 -29.4740755 88.29772837 -28.83984375 86.4453125 C-28.52644043 85.53040039 -28.21303711 84.61548828 -27.89013672 83.67285156 C-26.59041893 79.77013342 -25.44043109 75.83018831 -24.3125 71.875 C-22.71872867 66.29906329 -20.89995306 60.86771896 -18.84375 55.4453125 C-17.55024504 51.69654351 -16.81309886 47.87785609 -16 44 C-15 43 -15 43 -12.31616211 42.88647461 C-11.14835205 42.89171143 -9.98054199 42.89694824 -8.77734375 42.90234375 C-7.51728516 42.90556641 -6.25722656 42.90878906 -4.95898438 42.91210938 C-3.61848891 42.92046597 -2.27799412 42.92893093 -0.9375 42.9375 C0.40689942 42.9425134 1.7513006 42.94707658 3.09570312 42.95117188 C6.39717941 42.96300512 9.69856803 42.97949029 13 43 C12.60059204 41.81047729 12.60059204 41.81047729 12.19311523 40.59692383 C10.42343761 35.3104603 8.66523141 30.02747609 7.0625 24.6875 C5.97051273 21.08959772 4.84534016 17.50938787 3.63671875 13.94921875 C3.40654053 13.27093018 3.1763623 12.5926416 2.93920898 11.89379883 C2.28135136 9.96683293 1.61738959 8.04195418 0.953125 6.1171875 C0 3 0 3 0 0 Z M13 45 C10.01597894 55.4563033 7.22488341 65.92345385 4.796875 76.5234375 C4.22421677 79.0217994 3.62165574 81.51337704 3 84 C10.59 84 18.18 84 26 84 C25.34449806 77.68670865 25.34449806 77.68670865 23.73046875 71.95703125 C23.48329102 71.2815625 23.23611328 70.60609375 22.98144531 69.91015625 C22.71944336 69.21792969 22.45744141 68.52570313 22.1875 67.8125 C19.8195357 61.37664025 17.72249556 54.94638778 15.859375 48.34375 C15.24383555 45.8361673 15.24383555 45.8361673 13 45 Z " fill="#FFFFFF" transform="translate(35,0)"/>
<path d="M0 0 C10.23 0 20.46 0 31 0 C31.495 4.95 31.495 4.95 32 10 C35.19794991 17.3552848 40.14741698 22.93312366 45.35546875 28.9296875 C48.43791743 32.48245017 51.26032742 36.17827187 54 40 C54.57363281 40.76570313 55.14726562 41.53140625 55.73828125 42.3203125 C64.59140569 54.41515917 69.33023739 66.93408252 67 82 C64.01041003 92.08682794 57.88451719 101.74114721 48.859375 107.32421875 C44.09447381 109.83902771 39.8424223 111.12392755 34.4309082 111.12939453 C33.08480217 111.13412277 33.08480217 111.13412277 31.71150208 111.13894653 C30.27069527 111.13591019 30.27069527 111.13591019 28.80078125 111.1328125 C27.80999069 111.13376923 26.81920013 111.13472595 25.79838562 111.13571167 C23.7079563 111.13639139 21.61752486 111.13455162 19.52709961 111.13037109 C16.31424271 111.12500291 13.10152453 111.13033186 9.88867188 111.13671875 C7.85937469 111.13605827 5.83007759 111.13477772 3.80078125 111.1328125 C2.83417068 111.13483673 1.86756012 111.13686096 0.87165833 111.13894653 C-0.46026299 111.13421829 -0.46026299 111.13421829 -1.8190918 111.12939453 C-2.60422653 111.12859894 -3.38936127 111.12780334 -4.19828796 111.12698364 C-6 111 -6 111 -7 110 C-7.08737645 108.14630389 -7.10698153 106.28932459 -7.09765625 104.43359375 C-7.09443359 103.30888672 -7.09121094 102.18417969 -7.08789062 101.02539062 C-7.07951172 99.84138672 -7.07113281 98.65738281 -7.0625 97.4375 C-7.05798828 96.24962891 -7.05347656 95.06175781 -7.04882812 93.83789062 C-7.03699675 90.89187774 -7.02051287 87.94596319 -7 85 C-6.01902344 85.02320312 -5.03804688 85.04640625 -4.02734375 85.0703125 C7.99590289 85.26549508 20.51562734 84.9046867 32 81 C33.80615785 75.58152645 33.74286196 70.96825915 31.25 65.875 C28.09956438 60.2263242 24.71409805 55.46598763 20 51 C19.34 50.34 18.68 49.68 18 49 C18 48.01 18 47.02 18 46 C17.39551025 45.73662842 16.79102051 45.47325684 16.16821289 45.2019043 C13.87406404 43.93018999 12.84620481 42.86472135 11.30859375 40.76953125 C10.83873047 40.13080078 10.36886719 39.49207031 9.88476562 38.83398438 C9.40716797 38.16689453 8.92957031 37.49980469 8.4375 36.8125 C7.95603516 36.16474609 7.47457031 35.51699219 6.97851562 34.84960938 C3.97344774 30.71195744 1.84355487 26.76858722 0 22 C-0.58007812 20.74896484 -0.58007812 20.74896484 -1.171875 19.47265625 C-2.21056923 16.37127207 -2.26513614 13.70312172 -2.25 10.4375 C-2.25773437 8.76494141 -2.25773437 8.76494141 -2.265625 7.05859375 C-2 4 -2 4 0 0 Z " fill="#FFFFFF" transform="translate(382,0)"/>
<path d="M0 0 C25.08 0 50.16 0 76 0 C76 8.91 76 17.82 76 27 C62.14 27 48.28 27 34 27 C34 31.29 34 35.58 34 40 C47.86 40 61.72 40 76 40 C76 48.58 76 57.16 76 66 C50.92 66 25.84 66 0 66 C0 44.22 0 22.44 0 0 Z " fill="#FFFFFF" transform="translate(193,45)"/>
<path d="M0 0 C-1.06284348 6.73134203 -3.44216654 12.38405181 -6.39404297 18.47314453 C-8.05338965 21.91414206 -9.54958666 25.28985558 -10.6875 28.9375 C-12 33 -12 33 -16 41 C-4.78 41 6.44 41 18 41 C18 49.58 18 58.16 18 67 C-8.73 67 -35.46 67 -63 67 C-57.6754386 52.09122807 -57.6754386 52.09122807 -54.25 45.55078125 C-52.29742604 41.56631001 -50.80045566 37.42311442 -49.23828125 33.2734375 C-45.06701104 22.24654654 -40.07604952 11.63073398 -35 1 C-30.33692578 0.85719857 -25.67383973 0.7147919 -21.01074219 0.57275391 C-19.42382479 0.5243604 -17.83691071 0.47585828 -16.25 0.42724609 C-13.97136275 0.35746283 -11.69271395 0.28806785 -9.4140625 0.21875 C-8.70255035 0.19687622 -7.99103821 0.17500244 -7.25796509 0.15246582 C-2.22774341 0 -2.22774341 0 0 0 Z " fill="#FFFFFF" transform="translate(166,44)"/>
<path d="M0 0 C25.08 0 50.16 0 76 0 C76 8.91 76 17.82 76 27 C50.92 27 25.84 27 0 27 C0 18.09 0 9.18 0 0 Z " fill="#FFFFFF" transform="translate(193,0)"/>
<path d="M0 0 C26.07 0 52.14 0 79 0 C73.54198473 15.28244275 73.54198473 15.28244275 70 22 C69.34 23.65 68.68 25.3 68 27 C45.56 27 23.12 27 0 27 C0 18.09 0 9.18 0 0 Z " fill="#FFFFFF" transform="translate(105,0)"/>
<path d="M0 0 C1.65 0 3.3 0 5 0 C6.32 3.96 7.64 7.92 9 12 C9.33 12 9.66 12 10 12 C10.99 8.04 11.98 4.08 13 0 C14.65 0 16.3 0 18 0 C19 1 19 1 19.11352539 3.13305664 C19.10828857 4.04949951 19.10305176 4.96594238 19.09765625 5.91015625 C19.09443359 6.89951172 19.09121094 7.88886719 19.08789062 8.90820312 C19.07951172 9.94912109 19.07113281 10.99003906 19.0625 12.0625 C19.05798828 13.10728516 19.05347656 14.15207031 19.04882812 15.22851562 C19.03699913 17.8190666 19.02051689 20.40950559 19 23 C17.35 23 15.7 23 14 23 C13.67 20.69 13.34 18.38 13 16 C12.34 18.31 11.68 20.62 11 23 C9.68 23 8.36 23 7 23 C6.01 19.7 5.02 16.4 4 13 C3.67 16.3 3.34 19.6 3 23 C2.01 23 1.02 23 0 23 C0 15.41 0 7.82 0 0 Z " fill="#FFFFFF" transform="translate(59,125)"/>
<path d="M0 0 C1.65 0 3.3 0 5 0 C5.50559908 1.43554025 6.0042749 2.8735202 6.5 4.3125 C6.7784375 5.11300781 7.056875 5.91351563 7.34375 6.73828125 C8 9 8 9 8 12 C8.66 12 9.32 12 10 12 C10.12375 10.948125 10.2475 9.89625 10.375 8.8125 C10.91140782 5.54041229 11.63880035 2.99463924 13 0 C14.65 0 16.3 0 18 0 C18 7.59 18 15.18 18 23 C16.68 23 15.36 23 14 23 C13.67 20.69 13.34 18.38 13 16 C12.34 18.31 11.68 20.62 11 23 C9.68 23 8.36 23 7 23 C6.01 19.7 5.02 16.4 4 13 C3.67 16.3 3.34 19.6 3 23 C2.01 23 1.02 23 0 23 C0 15.41 0 7.82 0 0 Z " fill="#FFFFFF" transform="translate(87,125)"/>
<path d="M0 0 C1.65 0 3.3 0 5 0 C7.29604234 4.2061952 8.03772466 8.3260912 9 13 C10.32 9.04 11.64 5.08 13 1 C14.65 0.67 16.3 0.34 18 0 C18 7.59 18 15.18 18 23 C17.01 23 16.02 23 15 23 C14.67 20.36 14.34 17.72 14 15 C13.01 17.64 12.02 20.28 11 23 C9.68 23 8.36 23 7 23 C6.34 20.03 5.68 17.06 5 14 C4.67 16.97 4.34 19.94 4 23 C2.68 23 1.36 23 0 23 C0 15.41 0 7.82 0 0 Z " fill="#FFFFFF" transform="translate(341,125)"/>
<path d="M0 0 C1.65 0 3.3 0 5 0 C6.98 3.96 8.96 7.92 11 12 C11.33 8.04 11.66 4.08 12 0 C12.99 0 13.98 0 15 0 C15 7.59 15 15.18 15 23 C11 22 11 22 9.296875 19.27734375 C8.78640625 18.17519531 8.2759375 17.07304687 7.75 15.9375 C7.22921875 14.83277344 6.7084375 13.72804687 6.171875 12.58984375 C5.78515625 11.73519531 5.3984375 10.88054687 5 10 C4.67 14.29 4.34 18.58 4 23 C2.68 23 1.36 23 0 23 C0 15.41 0 7.82 0 0 Z " fill="#FFFFFF" transform="translate(411,125)"/>
<path d="M0 0 C2.32118724 1.74089043 3.36294453 3.54441679 5 6 C5.59275674 10.97299808 5.66916495 15.54529359 3.5625 20.125 C2 22 2 22 1 23 C-6.22962963 23.59259259 -6.22962963 23.59259259 -9.4375 21.125 C-12.71664548 16.66536215 -12.6203006 12.40075057 -12 7 C-9.49726379 1.05748415 -6.3024233 -0.51448353 0 0 Z M-6 4 C-6.97551509 6.92654527 -7.16478088 8.94654996 -7.1875 12 C-7.20167969 12.86625 -7.21585937 13.7325 -7.23046875 14.625 C-7.16255938 17.26721537 -7.16255938 17.26721537 -5 20 C-3.35 19.67 -1.7 19.34 0 19 C1.70178248 13.51647869 2.51218328 10.42102708 0 5 C-1.06645115 3.70366379 -1.06645115 3.70366379 -3.5625 3.9375 C-4.366875 3.958125 -5.17125 3.97875 -6 4 Z " fill="#FFFFFF" transform="translate(328,125)"/>
<path d="M0 0 C1.32 0 2.64 0 4 0 C5.17152378 3.45670732 6.33639077 6.91562122 7.5 10.375 C7.83386719 11.35984375 8.16773438 12.3446875 8.51171875 13.359375 C8.98544922 14.77089844 8.98544922 14.77089844 9.46875 16.2109375 C9.90864258 17.51490479 9.90864258 17.51490479 10.35742188 18.84521484 C11 21 11 21 11 23 C9.35 23 7.7 23 6 23 C5.67 21.02 5.34 19.04 5 17 C3.02 17 1.04 17 -1 17 C-1.33 18.98 -1.66 20.96 -2 23 C-3.32 23 -4.64 23 -6 23 C-5.02041148 14.77661215 -3.50099713 7.52884334 0 0 Z M2 7 C1.67 8.98 1.34 10.96 1 13 C1.66 13 2.32 13 3 13 C3 11.02 3 9.04 3 7 C2.67 7 2.34 7 2 7 Z " fill="#FFFFFF" transform="translate(6,125)"/>
<path d="M0 0 C0.77988281 -0.01417969 1.55976563 -0.02835937 2.36328125 -0.04296875 C4.98059271 0.21656297 6.53135653 0.67676533 8.6875 2.1875 C9.3671875 4.02734375 9.3671875 4.02734375 9.5625 6.125 C9.64242188 6.81464844 9.72234375 7.50429687 9.8046875 8.21484375 C9.6875 10.1875 9.6875 10.1875 7.6875 13.1875 C5.7421875 13.69921875 5.7421875 13.69921875 3.5625 13.875 C2.28375 13.978125 1.005 14.08125 -0.3125 14.1875 C-0.3125 17.1575 -0.3125 20.1275 -0.3125 23.1875 C-1.9625 23.1875 -3.6125 23.1875 -5.3125 23.1875 C-5.34137512 19.54168313 -5.35925585 15.89589537 -5.375 12.25 C-5.38337891 11.20908203 -5.39175781 10.16816406 -5.40039062 9.09570312 C-5.40522461 7.61166992 -5.40522461 7.61166992 -5.41015625 6.09765625 C-5.41539307 5.18121338 -5.42062988 4.26477051 -5.42602539 3.32055664 C-5.22182379 -0.51623771 -3.38674775 0.02771479 0 0 Z M-0.3125 4.1875 C-0.3125 6.1675 -0.3125 8.1475 -0.3125 10.1875 C1.3375 10.1875 2.9875 10.1875 4.6875 10.1875 C5.06968767 8.53135343 5.40145102 6.86292976 5.6875 5.1875 C4.62104885 3.89116379 4.62104885 3.89116379 2.125 4.125 C1.320625 4.145625 0.51625 4.16625 -0.3125 4.1875 Z " fill="#FFFFFF" transform="translate(373.3125,124.8125)"/>
<path d="M0 0 C2 1.25 2 1.25 3 3 C2.6875 5.6875 2.6875 5.6875 2 8 C1.01 8 0.02 8 -1 8 C-1.66 6.68 -2.32 5.36 -3 4 C-4.32 4.33 -5.64 4.66 -7 5 C-8.17287572 11.68531992 -8.17287572 11.68531992 -6 18 C-4.01508358 17.73323796 -4.01508358 17.73323796 -2 17 C-1.67 16.01 -1.34 15.02 -1 14 C0.65 14 2.3 14 4 14 C3.125 18.75 3.125 18.75 2 21 C-1.56471391 22.18823797 -4.2558336 22.26274852 -8 22 C-11.1850357 20.23984869 -11.83296972 19.50109084 -13 16 C-13.5068437 11.17252148 -13.8609538 6.62788277 -11.125 2.4375 C-7.48313317 -1.73993549 -5.2790018 -1.1113688 0 0 Z " fill="#FFFFFF" transform="translate(48,126)"/>
<path d="M0 0 C1.2065625 0.0309375 1.2065625 0.0309375 2.4375 0.0625 C4.52786528 4.68578538 5.51075798 9.43960321 6.5625 14.375 C6.74425781 15.21095703 6.92601562 16.04691406 7.11328125 16.90820312 C7.55855365 18.95879972 7.9985552 21.01053962 8.4375 23.0625 C7.1175 23.0625 5.7975 23.0625 4.4375 23.0625 C4.1075 21.0825 3.7775 19.1025 3.4375 17.0625 C1.1275 17.0625 -1.1825 17.0625 -3.5625 17.0625 C-3.8925 19.0425 -4.2225 21.0225 -4.5625 23.0625 C-5.8825 23.0625 -7.2025 23.0625 -8.5625 23.0625 C-7.90120429 20.06123487 -7.23351259 17.06159896 -6.5625 14.0625 C-6.30984375 12.92167969 -6.0571875 11.78085938 -5.796875 10.60546875 C-5.53390625 9.43628906 -5.2709375 8.26710937 -5 7.0625 C-4.75121094 5.94875 -4.50242187 4.835 -4.24609375 3.6875 C-3.30681092 0.08065392 -3.30681092 0.08065392 0 0 Z M-0.5625 7.0625 C-0.8925 9.0425 -1.2225 11.0225 -1.5625 13.0625 C-0.5725 13.0625 0.4175 13.0625 1.4375 13.0625 C1.1075 11.0825 0.7775 9.1025 0.4375 7.0625 C0.1075 7.0625 -0.2225 7.0625 -0.5625 7.0625 Z " fill="#FFFFFF" transform="translate(395.5625,124.9375)"/>
<path d="M0 0 C1.51400391 0.01740234 1.51400391 0.01740234 3.05859375 0.03515625 C4.07050781 0.04417969 5.08242188 0.05320312 6.125 0.0625 C7.29869141 0.07990234 7.29869141 0.07990234 8.49609375 0.09765625 C8.49609375 1.41765625 8.49609375 2.73765625 8.49609375 4.09765625 C5.85609375 4.42765625 3.21609375 4.75765625 0.49609375 5.09765625 C0.49609375 5.75765625 0.49609375 6.41765625 0.49609375 7.09765625 C1.23859375 7.01515625 1.98109375 6.93265625 2.74609375 6.84765625 C5.49609375 7.09765625 5.49609375 7.09765625 7.80859375 8.53515625 C10.28328104 12.29301473 10.29984447 15.72260081 9.49609375 20.09765625 C7.93359375 22.16015625 7.93359375 22.16015625 5.49609375 23.09765625 C-0.66606841 23.7463049 -0.66606841 23.7463049 -3.44140625 21.59765625 C-3.79203125 21.10265625 -4.14265625 20.60765625 -4.50390625 20.09765625 C-4.00890625 18.61265625 -4.00890625 18.61265625 -3.50390625 17.09765625 C-2.92640625 17.42765625 -2.34890625 17.75765625 -1.75390625 18.09765625 C0.69493237 19.36841523 0.69493237 19.36841523 4.49609375 19.09765625 C4.49609375 16.78765625 4.49609375 14.47765625 4.49609375 12.09765625 C3.62984375 12.31421875 3.62984375 12.31421875 2.74609375 12.53515625 C1.28255208 12.90104167 -0.18098958 13.26692708 -1.64453125 13.6328125 C-2.56492187 13.86291016 -2.56492187 13.86291016 -3.50390625 14.09765625 C-3.53076563 11.95188988 -3.55023713 9.8060298 -3.56640625 7.66015625 C-3.57800781 6.46519531 -3.58960938 5.27023438 -3.6015625 4.0390625 C-3.47195922 0.13541183 -3.47195922 0.13541183 0 0 Z " fill="#FFFFFF" transform="translate(264.50390625,124.90234375)"/>
<path d="M0 0 C4.29 0 8.58 0 13 0 C13 1.32 13 2.64 13 4 C10.03 4 7.06 4 4 4 C4.33 5.65 4.66 7.3 5 9 C6.65 9 8.3 9 10 9 C10.33 10.32 10.66 11.64 11 13 C8.69 13 6.38 13 4 13 C4 15.31 4 17.62 4 20 C7.3 20 10.6 20 14 20 C14 20.99 14 21.98 14 23 C9.38 23 4.76 23 0 23 C0 15.41 0 7.82 0 0 Z " fill="#FFFFFF" transform="translate(205,125)"/>
<path d="M0 0 C1.32 0 2.64 0 4 0 C5.32 3.96 6.64 7.92 8 12 C8.28875 10.948125 8.5775 9.89625 8.875 8.8125 C9.77225193 5.77181289 10.76423419 2.91287656 12 0 C13.32 0 14.64 0 16 0 C15.38334864 5.39392739 14.12077204 10.28395283 12.4375 15.4375 C12.20353516 16.16904297 11.96957031 16.90058594 11.72851562 17.65429688 C11.15732778 19.43780179 10.57936877 21.21913583 10 23 C8.68 23 7.36 23 6 23 C0.44419134 7.25512528 0.44419134 7.25512528 0 0 Z " fill="#FFFFFF" transform="translate(182,125)"/>
<path d="M0 0 C2 1.8125 2 1.8125 3 4 C2.6875 6.25 2.6875 6.25 2 8 C1.01 8 0.02 8 -1 8 C-1.33 6.35 -1.66 4.7 -2 3 C-3.65 3 -5.3 3 -7 3 C-8.4105233 7.40788531 -8.64911662 11.94446402 -7.25 16.375 C-5.67196119 18.42645046 -4.51912388 18.66411682 -2 19 C-1.67 17.35 -1.34 15.7 -1 14 C0.32 14 1.64 14 3 14 C3.25 16.3125 3.25 16.3125 3 19 C0.64239439 21.73482251 -0.90068314 21.98758539 -4.5 22.4375 C-8 22 -8 22 -10.375 20.5625 C-13.48163102 15.66358185 -13.30294496 10.70750793 -12.3125 5.125 C-9.65074426 -1.21251368 -6.50442423 -1.77393388 0 0 Z " fill="#FFFFFF" transform="translate(307,126)"/>
<path d="M0 0 C4.29 0 8.58 0 13 0 C13 1.32 13 2.64 13 4 C9.7 4 6.4 4 3 4 C3 5.98 3 7.96 3 10 C6.465 9.505 6.465 9.505 10 9 C10.33 10.32 10.66 11.64 11 13 C8.36 13 5.72 13 3 13 C3 15.31 3 17.62 3 20 C6.63 20 10.26 20 14 20 C14 20.99 14 21.98 14 23 C9.38 23 4.76 23 0 23 C0 15.41 0 7.82 0 0 Z " fill="#FFFFFF" transform="translate(163,125)"/>
<path d="M0 0 C1.75 0.125 1.75 0.125 4 1 C6.25 4.0625 6.25 4.0625 8 7 C8.99 4.69 9.98 2.38 11 0 C12.32 0 13.64 0 15 0 C14.58242084 3.34063327 13.62195388 5.79031426 12 8.6875 C9.55663029 13.31750854 9.21179603 17.83217694 9 23 C7.68 23 6.36 23 5 23 C4.96132813 22.07380859 4.96132813 22.07380859 4.921875 21.12890625 C4.54021525 15.4300323 3.47182949 11.08445404 0.83984375 6.0078125 C0 4 0 4 0 0 Z " fill="#FFFFFF" transform="translate(434,125)"/>
<path d="M0 0 C2.475 0.495 2.475 0.495 5 1 C5 7.27 5 13.54 5 20 C7.97 20 10.94 20 14 20 C14 20.99 14 21.98 14 23 C9.38 23 4.76 23 0 23 C0 15.41 0 7.82 0 0 Z " fill="#FFFFFF" transform="translate(142,125)"/>
<path d="M0 0 C1.98 0.495 1.98 0.495 4 1 C4 7.27 4 13.54 4 20 C6.97 20 9.94 20 13 20 C13 20.99 13 21.98 13 23 C8.38 23 3.76 23 -1 23 C-1.02682987 19.35411831 -1.04675569 15.70843154 -1.0625 12.0625 C-1.07087891 11.02158203 -1.07925781 9.98066406 -1.08789062 8.90820312 C-1.09272461 7.42416992 -1.09272461 7.42416992 -1.09765625 5.91015625 C-1.10289307 4.99371338 -1.10812988 4.07727051 -1.11352539 3.13305664 C-1 1 -1 1 0 0 Z " fill="#FFFFFF" transform="translate(227,125)"/>
<path d="M0 0 C1.32 0 2.64 0 4 0 C4 7.59 4 15.18 4 23 C2.68 23 1.36 23 0 23 C0 15.41 0 7.82 0 0 Z " fill="#FFFFFF" transform="translate(115,125)"/>
</svg>
