<?xml version="1.0" encoding="UTF-8"?>
<svg version="1.1" xmlns="http://www.w3.org/2000/svg" width="2560" height="609">
<path d="M0 0 C0.97050293 0.16628906 1.94100586 0.33257812 2.94091797 0.50390625 C47.8835263 8.4233086 109.72005203 28.56155003 140.57421875 64.8515625 C146.02362056 73.53236399 148.45785889 83.334092 146.53125 93.46484375 C144.13572662 102.7189787 139.01780345 110.6656399 131 116 C126.58763916 118.36946055 122.02293096 120.4977069 117 121 C116.3915625 121.06316406 115.783125 121.12632812 115.15625 121.19140625 C102.533743 121.90027893 93.73145584 116.47860506 84.06982422 109.20117188 C50.91598131 84.31675962 7.56329508 68.04351921 -34.00390625 67.76171875 C-35.15882065 67.753647 -36.31373505 67.74557526 -37.50364685 67.73725891 C-39.9486239 67.72346617 -42.39361982 67.71272265 -44.83862305 67.70483398 C-47.29441124 67.69340273 -49.75017637 67.67309476 -52.20581055 67.64331055 C-107.40642923 66.97554608 -158.32228091 87.62789717 -199.9921875 123.421875 C-202.03972279 125.17690525 -204.09662149 126.89970514 -206.18359375 128.60546875 C-208.430483 130.51579207 -210.30959155 132.31203062 -212.1875 134.5625 C-215.10676613 138.00145966 -218.15191583 141.28373098 -221.25 144.5625 C-232.26882909 156.46753154 -240.8666776 170.0201525 -249 184 C-249.55083252 184.93465088 -249.55083252 184.93465088 -250.11279297 185.88818359 C-266.81612752 214.48548488 -276.91880051 249.95784649 -277.23828125 283.1171875 C-277.2480751 283.96376923 -277.25786896 284.81035095 -277.26795959 285.68258667 C-277.78850495 342.40356634 -262.93209845 395.85480019 -226 440 C-225.50467773 440.59683594 -225.00935547 441.19367188 -224.49902344 441.80859375 C-186.7634187 487.13923766 -132.20680192 516.45233656 -73.43218994 522.78858948 C-69.41466258 523.13780051 -65.40589109 523.20177065 -61.375 523.23828125 C-60.03026863 523.25297203 -60.03026863 523.25297203 -58.65837097 523.26795959 C-39.4125898 523.43497621 -20.83585046 523.40789092 -2 519 C-1.03980957 518.78569336 -0.07961914 518.57138672 0.90966797 518.35058594 C20.97368436 513.80516821 39.89196758 506.73733819 58 497 C58.64743164 496.65888184 59.29486328 496.31776367 59.96191406 495.96630859 C68.75407195 491.31914882 76.96400994 486.14347014 84.97827148 480.24902344 C96.57471974 471.77222926 106.52749133 468.20457569 121 470 C129.85650498 472.67571109 137.31438359 478.22881023 142.3046875 486.04296875 C146.79096578 494.50795369 148.66264332 503.54654425 146.2421875 512.94140625 C138.781367 534.53078841 114.86414068 546.26000194 95.95410156 556.89746094 C94.14510804 557.91812745 92.34925892 558.9619965 90.5546875 560.0078125 C56.46806104 579.18639276 17.61177694 588.81581919 -21 593 C-22.17691406 593.13277344 -23.35382813 593.26554688 -24.56640625 593.40234375 C-89.93813288 599.3749796 -159.79369652 582.25791553 -214 545 C-214.57024902 544.60844727 -215.14049805 544.21689453 -215.72802734 543.81347656 C-240.53656123 526.65694797 -264.79205114 506.1749733 -283 482 C-283.92362263 480.81573773 -284.84817138 479.63219741 -285.7734375 478.44921875 C-323.13959649 430.19853175 -346.5557287 369.28733875 -348 308 C-348.02046387 307.16855469 -348.04092773 306.33710938 -348.06201172 305.48046875 C-349.7989399 223.37113633 -320.75453891 146.49120593 -264 87 C-256.08218969 78.74815347 -247.99950541 71.07961092 -239 64 C-237.2072822 62.50125642 -235.41563104 61.00123613 -233.625 59.5 C-227.65250713 54.63476705 -221.43987173 50.21573524 -215 46 C-214.26023926 45.51515137 -213.52047852 45.03030273 -212.75830078 44.53076172 C-191.70950779 30.85778641 -169.77427401 20.05994351 -146 12 C-145.04770508 11.67660645 -144.09541016 11.35321289 -143.11425781 11.02001953 C-128.30784431 6.07695533 -113.37117788 2.6566544 -98 0 C-96.68080566 -0.2477417 -96.68080566 -0.2477417 -95.33496094 -0.50048828 C-64.99246427 -6.09354857 -30.31541033 -5.37811365 0 0 Z " fill="#FFFFFF" transform="translate(355,9)"/>
<path d="M0 0 C1.06089844 0.763125 2.12179687 1.52625 3.21484375 2.3125 C17.80282556 13.1299131 38.87509414 29.58375366 43 48 C43.28587659 53.95576234 41.94661191 58.44621702 38 63 C32.11373109 67.97556655 25.50200924 71.85965045 18.875 75.75 C17.91207031 76.32621094 16.94914062 76.90242188 15.95703125 77.49609375 C9.57171859 81.26404303 4.06780315 84.2662672 -3.5 84.375 C-4.3971875 84.40335937 -5.294375 84.43171875 -6.21875 84.4609375 C-13.51347257 83.25198067 -17.98532659 77.01654 -22.6875 71.8125 C-43.41615913 49.44140613 -70.71116728 35.36755778 -101.57055664 33.87573242 C-137.00199609 32.87526429 -169.25310614 41.03579437 -195.68579102 65.71118164 C-220.17289565 89.32011682 -231.53381039 120.88121704 -232.25 154.5 C-231.52980713 188.30670071 -220.10731285 218.95368401 -196 243 C-169.58991741 267.26912498 -136.05452906 277.5637552 -100.73095703 276.15966797 C-94.32130436 275.7849216 -88.19087231 274.72016778 -82 273 C-81.20561523 272.77957031 -80.41123047 272.55914062 -79.59277344 272.33203125 C-48.14125596 263.29465108 -20.19096582 245.03928063 -4 216 C0.17671118 208.00109954 5 198.14602886 5 189 C2.28797298 188.09599099 0.72552866 187.87358971 -2.05862427 187.86869812 C-3.29480247 187.86268585 -3.29480247 187.86268585 -4.55595398 187.85655212 C-5.45675186 187.85708084 -6.35754974 187.85760956 -7.28564453 187.8581543 C-8.23722946 187.85467987 -9.18881439 187.85120544 -10.16923523 187.84762573 C-12.23831726 187.84026852 -14.30740718 187.83492295 -16.37649918 187.83133507 C-19.65575806 187.8241686 -22.93486739 187.80849922 -26.21408081 187.78999329 C-35.53885816 187.73754186 -44.86355496 187.68957585 -54.18847656 187.67407227 C-59.89145911 187.6639686 -65.5940673 187.63458024 -71.2969017 187.59275246 C-73.46648192 187.58046852 -75.63611508 187.57531641 -77.80572891 187.57755089 C-80.85021877 187.57991416 -83.89364289 187.5576578 -86.93798828 187.5300293 C-87.82664078 187.53663071 -88.71529327 187.54323212 -89.63087463 187.55003357 C-95.70406287 187.46000385 -100.810845 186.27526409 -106 183 C-111.23030883 177.53015905 -112.16196245 172.33766456 -112.203125 165.04296875 C-112.20882507 164.26238602 -112.21452515 163.48180328 -112.22039795 162.67756653 C-112.2298395 161.02586214 -112.23637858 159.37413898 -112.24023438 157.72241211 C-112.24992418 155.20718113 -112.28094801 152.69277309 -112.3125 150.17773438 C-112.31903214 148.57031733 -112.32428178 146.96289447 -112.328125 145.35546875 C-112.3404718 144.60839157 -112.3528186 143.86131439 -112.36553955 143.09159851 C-112.34530219 138.29972316 -111.54340171 135.06173319 -109 131 C-103.46875542 125.70924432 -99.20758831 123.75322458 -91.59939575 123.73930359 C-89.66059036 123.72867638 -89.66059036 123.72867638 -87.68261719 123.71783447 C-86.25732387 123.72012812 -84.83203088 123.7226378 -83.40673828 123.7253418 C-81.90013374 123.7209928 -80.39353142 123.71580902 -78.88693237 123.70985413 C-74.80008697 123.69647224 -70.71333409 123.69588461 -66.62647104 123.69841743 C-63.2120314 123.69948781 -59.79761042 123.69460197 -56.38317478 123.689812 C-48.32591089 123.67871935 -40.26869361 123.67827787 -32.21142578 123.68432617 C-23.90612225 123.69036493 -15.60098817 123.67805692 -7.29571354 123.6567561 C-0.15924569 123.63912761 6.97716829 123.63314076 14.11365712 123.63639385 C18.37333288 123.63820505 22.63288779 123.63558687 26.89254379 123.62167931 C30.89974868 123.60908545 34.90668991 123.61105968 38.91389084 123.62409019 C40.38160797 123.62645225 41.84934374 123.62373459 43.31703949 123.61546707 C52.86323905 123.56558592 59.80834657 123.77636652 67.25 130.25 C67.89453125 130.79140625 68.5390625 131.3328125 69.203125 131.890625 C73.41879929 136.83946003 74.3788312 141.84265195 74.36328125 148.19921875 C74.36545654 149.20185509 74.36545654 149.20185509 74.36767578 150.2247467 C74.36642817 152.37947507 74.34134615 154.53297648 74.3125 156.6875 C74.3065683 157.42609253 74.3006366 158.16468506 74.29452515 158.92565918 C73.88589248 208.95639327 57.55486947 255.26309688 21.83984375 291.171875 C8.86911566 303.36391444 -6.20606929 312.92852622 -22 321 C-22.63470215 321.32693848 -23.2694043 321.65387695 -23.92333984 321.99072266 C-37.71832617 329.00729605 -52.39738378 333.99696996 -67.375 337.8125 C-68.51328247 338.10471436 -68.51328247 338.10471436 -69.67456055 338.40283203 C-83.17037027 341.67410679 -96.49621185 342.40723616 -110.3125 342.375 C-111.19162048 342.37445618 -112.07074097 342.37391235 -112.97650146 342.37335205 C-127.63126216 342.33180325 -141.67956947 341.30763926 -156 338 C-157.40040527 337.68651611 -157.40040527 337.68651611 -158.82910156 337.36669922 C-184.62825222 331.43458311 -207.98217573 319.965906 -229 304 C-229.88558594 303.34 -230.77117187 302.68 -231.68359375 302 C-263.99222326 276.82188994 -286.62829546 241.04310683 -296.3125 201.375 C-296.55500488 200.38701416 -296.79750977 199.39902832 -297.04736328 198.38110352 C-300.40479772 183.88718955 -301.38220433 169.62705653 -301.3125 154.8125 C-301.31067719 154.00362335 -301.30885437 153.1947467 -301.30697632 152.36135864 C-301.25906393 139.69734876 -300.65606451 127.42023868 -298 115 C-297.83371094 114.18934082 -297.66742187 113.37868164 -297.49609375 112.54345703 C-289.16915079 72.93650702 -267.00633859 34.33090112 -235 9 C-234.04996094 8.23558594 -233.09992188 7.47117188 -232.12109375 6.68359375 C-166.86398344 -45.12350135 -68.07269901 -49.30965148 0 0 Z " fill="#FFFFFF" transform="translate(1168,150)"/>
<path d="M0 0 C7.35072617 7.53407761 10.74166402 16.25431897 11.16015625 26.703125 C10.84832028 36.83779393 6.9964424 45.67126811 -0.27734375 52.765625 C-10.4146222 60.25210956 -20.0124593 61.69974577 -32.27734375 60.765625 C-37.31412929 59.66682406 -41.55002818 57.16676603 -46.03125 54.70703125 C-75.2885955 38.69635151 -107.33606539 33.94221104 -139.79296875 42.984375 C-155.51237281 47.68451223 -169.66776636 55.27845173 -182.27734375 65.765625 C-183.19902344 66.52359375 -184.12070313 67.2815625 -185.0703125 68.0625 C-206.83167798 86.84664059 -221.31482887 115.16828745 -224.27734375 143.765625 C-226.16712721 180.04480136 -216.72963842 210.30802036 -192.96484375 237.890625 C-174.33190482 258.04132499 -145.95861436 273.37147454 -118.14379883 274.94262695 C-102.48522609 275.22932195 -87.38419349 275.41854898 -72.27734375 270.765625 C-71.59075684 270.55663574 -70.90416992 270.34764648 -70.19677734 270.13232422 C-55.45211187 265.4755633 -41.88522918 257.98690296 -30.27734375 247.765625 C-29.05144531 246.73695313 -29.05144531 246.73695313 -27.80078125 245.6875 C-11.50817929 231.66476518 0.07407628 213.1342617 6.72265625 192.765625 C5.66744781 192.76197937 4.61223938 192.75833374 3.52505493 192.75457764 C-6.44955816 192.71753652 -16.42386513 192.65966456 -26.39824486 192.58172226 C-31.52543743 192.54231779 -36.65246006 192.51009487 -41.77978516 192.49462891 C-46.73372176 192.47941598 -51.68719094 192.4448884 -56.64091873 192.39731598 C-58.52496895 192.38254988 -60.40908592 192.37458674 -62.29319382 192.37374115 C-75.8817559 192.361516 -86.86923157 191.47986304 -97.27734375 181.765625 C-105.211771 173.09352991 -107.10369292 164.53882994 -106.68359375 153.03515625 C-106.04460494 144.05137295 -102.30674714 136.56429051 -95.65625 130.51953125 C-87.65230817 124.61843128 -79.68389801 121.6570712 -69.76373291 121.62518311 C-68.6929248 121.61947296 -67.6221167 121.61376282 -66.51885986 121.60787964 C-65.35924744 121.60676178 -64.19963501 121.60564392 -63.00488281 121.60449219 C-61.77161255 121.59952728 -60.53834229 121.59456238 -59.2677002 121.58944702 C-55.89557494 121.57737322 -52.52351142 121.56988942 -49.15137196 121.56543636 C-47.04030151 121.56249629 -44.92923639 121.55838975 -42.81816864 121.55393219 C-36.20056633 121.54027248 -29.5829763 121.53059836 -22.96536088 121.5267303 C-15.34953465 121.52225314 -7.73388821 121.50471481 -0.11811662 121.4757297 C5.78445094 121.45405161 11.68696814 121.44402276 17.58957505 121.44268918 C21.10767694 121.44164553 24.62560947 121.43583225 28.14366913 121.41786957 C32.07337636 121.39819374 36.00286207 121.40270221 39.93261719 121.40917969 C41.65989044 121.39535751 41.65989044 121.39535751 43.42205811 121.3812561 C54.78346039 121.43972956 64.33728442 123.96499418 72.85546875 131.703125 C80.16423776 139.25462066 83.19452211 147.71584753 83.2277832 158.19848633 C83.20546631 159.16939209 83.18314941 160.14029785 83.16015625 161.140625 C83.14621826 162.17791748 83.13228027 163.21520996 83.11791992 164.28393555 C82.02936805 210.8221875 62.29925651 254.08391806 30.72265625 287.765625 C30.26294434 288.25933594 29.80323242 288.75304687 29.32958984 289.26171875 C3.6747607 316.59506046 -30.82609392 334.71657232 -67.27734375 342.765625 C-68.35218018 343.0133667 -68.35218018 343.0133667 -69.44873047 343.26611328 C-94.7236984 348.85005068 -124.24633631 347.77306679 -149.27734375 341.765625 C-150.15519531 341.56195313 -151.03304687 341.35828125 -151.9375 341.1484375 C-177.33069814 335.08997197 -200.50932952 323.43249972 -221.27734375 307.765625 C-222.16550781 307.10433594 -223.05367188 306.44304687 -223.96875 305.76171875 C-243.80254362 290.28833166 -260.24548067 270.81158529 -272.27734375 248.765625 C-272.79288818 247.82517334 -272.79288818 247.82517334 -273.31884766 246.86572266 C-297.94843732 201.31658476 -301.79565891 147.87267496 -287.1484375 98.53955078 C-280.47843321 77.29947547 -270.26287255 57.10086094 -256.27734375 39.765625 C-255.8395459 39.21503418 -255.40174805 38.66444336 -254.95068359 38.09716797 C-239.43042423 18.68965579 -221.12813196 2.69097043 -199.27734375 -9.234375 C-198.65037598 -9.57807129 -198.0234082 -9.92176758 -197.37744141 -10.27587891 C-140.4769844 -41.04341858 -51.84642991 -44.11584891 0 0 Z " fill="#FFFFFF" transform="translate(412.27734375,147.234375)"/>
<path d="M0 0 C1.56453692 1.34892007 3.10618357 2.72480081 4.625 4.125 C5.47707031 4.89714844 6.32914063 5.66929687 7.20703125 6.46484375 C14.86827269 13.73555714 19.95385249 21.71952664 24.625 31.125 C24.63901855 29.54416626 24.63901855 29.54416626 24.65332031 27.93139648 C24.69339089 23.9967321 24.75919552 20.06283566 24.83251953 16.12866211 C24.86063071 14.43052078 24.88189402 12.73225099 24.89599609 11.03393555 C24.91756352 8.58315743 24.96428006 6.13390764 25.015625 3.68359375 C25.01685364 2.93226669 25.01808228 2.18093964 25.01934814 1.40684509 C25.16975916 -4.08688251 26.39012641 -7.39110963 29.625 -11.875 C33.3091354 -14.85194025 36.26667697 -15.28328713 40.9375 -15.421875 C42.16855469 -15.4628833 43.39960937 -15.5038916 44.66796875 -15.54614258 C45.97378906 -15.57216553 47.27960938 -15.59818848 48.625 -15.625 C49.97526196 -15.65838492 51.32552237 -15.69183264 52.67578125 -15.7253418 C60.65947192 -15.90165308 68.64282167 -15.95182978 76.625 -15.6875 C77.87603516 -15.66091309 77.87603516 -15.66091309 79.15234375 -15.63378906 C84.34696927 -15.38097243 87.60022159 -14.43860588 91.625 -10.875 C95.29077001 -5.38180583 95.04959094 -0.23502095 95.01268005 6.13232422 C95.02075836 7.79975331 95.02075836 7.79975331 95.02899987 9.50086784 C95.04331211 13.22725353 95.03616745 16.95328564 95.02905273 20.6796875 C95.03475454 23.35061773 95.04161734 26.02152254 95.04985046 28.69244385 C95.06703876 35.19480838 95.06787852 41.69707629 95.06263756 48.19945765 C95.05859509 53.48436113 95.06004032 58.76923606 95.06538582 64.05413818 C95.06613424 64.80649116 95.06688266 65.55884414 95.06765376 66.3339957 C95.06918525 67.86241612 95.07072359 69.39083652 95.07226873 70.91925693 C95.08599359 85.24916484 95.08055593 99.57901815 95.06908352 113.90892482 C95.05914858 127.01865991 95.07209629 140.12825392 95.09601771 153.23796725 C95.12039899 166.70116861 95.13001914 180.16430424 95.12336498 193.62752724 C95.11987093 201.18529997 95.12211723 208.74296417 95.13961601 216.30072021 C95.15432577 222.73362775 95.15498949 229.16635028 95.1375451 235.59925413 C95.12902287 238.88110577 95.12907664 242.1625581 95.14219666 245.4444046 C95.15533676 249.00247594 95.14391975 252.5596438 95.12620544 256.11767578 C95.13581045 257.15444395 95.14541546 258.19121212 95.15531152 259.25939751 C95.09415332 265.21507131 94.56405826 268.57533623 90.625 273.125 C85.35274125 277.95421179 80.31883524 277.71002418 73.53125 277.65625 C72.46636353 277.6600769 71.40147705 277.66390381 70.30432129 277.66784668 C68.05850272 277.6705621 65.81265233 277.66322694 63.56689453 277.64648438 C60.13632456 277.62507069 56.70784886 277.64629991 53.27734375 277.671875 C51.09114123 277.66923166 48.90494 277.66410656 46.71875 277.65625 C45.69672485 277.66434692 44.67469971 277.67244385 43.6217041 277.68078613 C36.05838128 277.58157319 32.62988019 276.20046462 27.296875 270.7421875 C24.67801186 265.07614248 24.94569338 259.41960394 24.875 253.25 C24.84535156 251.98929687 24.81570313 250.72859375 24.78515625 249.4296875 C24.71466475 246.32806134 24.66186259 243.22717803 24.625 240.125 C24.05217285 240.71087891 23.4793457 241.29675781 22.88916016 241.90039062 C18.44269767 246.4050553 14.00508011 250.74666666 9 254.625 C8.41154297 255.08221436 7.82308594 255.53942871 7.21679688 256.01049805 C-3.44300354 264.12213339 -14.84356792 270.39122612 -27.375 275.125 C-28.37402344 275.50398438 -29.37304688 275.88296875 -30.40234375 276.2734375 C-44.15479809 280.98148493 -59.8756293 283.09277683 -74.375 282.125 C-75.02968262 282.08246094 -75.68436523 282.03992188 -76.35888672 281.99609375 C-104.70365075 279.97563079 -131.8562354 269.9025207 -153.375 251.125 C-154.32890625 250.31546875 -155.2828125 249.5059375 -156.265625 248.671875 C-164.03036164 241.94034929 -170.39664614 234.46763572 -176.375 226.125 C-176.77315918 225.56973633 -177.17131836 225.01447266 -177.58154297 224.44238281 C-202.18858095 189.50761107 -210.53409595 143.27185675 -203.77734375 101.38378906 C-198.60029522 72.31943651 -187.84872034 45.07700852 -167.41796875 23.34375 C-165.32467213 21.13364075 -165.32467213 21.13364075 -163.43359375 18.6171875 C-159.7009811 14.09838889 -154.98391602 10.7090223 -150.375 7.125 C-149.62476563 6.53589844 -148.87453125 5.94679687 -148.1015625 5.33984375 C-107.65089519 -24.67880936 -41.54384965 -32.18185536 0 0 Z M-106.375 60.125 C-107.10074219 60.73859375 -107.82648438 61.3521875 -108.57421875 61.984375 C-123.65699678 75.85223378 -133.30400363 98.73497335 -134.55200195 118.99902344 C-135.14982134 148.12306902 -130.66137565 174.79481299 -109.69921875 196.7890625 C-108.93222656 197.55992187 -108.16523437 198.33078125 -107.375 199.125 C-106.63894531 199.89585937 -105.90289063 200.66671875 -105.14453125 201.4609375 C-91.68991348 214.66764774 -73.40810849 220.43285373 -54.875 220.625 C-36.69799503 220.43654571 -18.08238716 214.53464637 -4.375 202.125 C-3.44300781 201.29613281 -2.51101563 200.46726562 -1.55078125 199.61328125 C16.81891852 182.65058512 24.78277682 159.25650527 25.87109375 134.63671875 C26.49975316 109.46778944 19.68551922 85.0289938 2.625 66.125 C1.99980469 65.41859375 1.37460938 64.7121875 0.73046875 63.984375 C-12.58478237 49.77420884 -32.45024373 41.89768048 -51.67578125 40.96484375 C-72.54392253 40.46643539 -90.59464968 46.59222581 -106.375 60.125 Z " fill="#FFFFFF" transform="translate(1861.375,211.875)"/>
<path d="M0 0 C1.13501953 0.35505615 1.13501953 0.35505615 2.29296875 0.71728516 C21.64650699 6.93982557 40.01624384 16.43086016 56 29 C57.36705078 30.03640625 57.36705078 30.03640625 58.76171875 31.09375 C71.67404938 41.19741309 93.14075974 58.68277485 96.53125 75.66015625 C96.45830084 81.26812284 95.97745532 84.73151137 92 89 C85.53872086 93.82884219 78.42104912 97.75258089 71.43237305 101.75146484 C69.6710935 102.75938892 67.91251211 103.77189791 66.15429688 104.78515625 C51.74076362 113.06650697 51.74076362 113.06650697 42 112 C35.3855396 109.27639866 31.98186958 102.66184701 28 97 C12.75179051 76.51916099 -13.92073989 65.00017999 -38.5 60.6875 C-55.2694905 58.67825229 -72.5495972 59.11130543 -89 63 C-89.7105957 63.16628906 -90.42119141 63.33257812 -91.15332031 63.50390625 C-118.9997243 70.28040835 -144.20937426 87.68416969 -159.35302734 112.18945312 C-176.47920146 141.38532486 -182.68071628 177.57972591 -174.58642578 210.77636719 C-166.34435374 242.02898675 -149.31749346 268.26469133 -121.13720703 285.11376953 C-113.39608576 289.5432885 -105.39352109 292.76016321 -96.875 295.375 C-96.10075684 295.61379883 -95.32651367 295.85259766 -94.52880859 296.09863281 C-82.51741373 299.54900648 -70.31994635 300.39219779 -57.875 300.375 C-56.86735596 300.37418427 -56.86735596 300.37418427 -55.83935547 300.37335205 C-25.52287452 300.26118179 1.71494483 289.93162359 23.75 268.625 C27.31681523 264.97607104 30.38282627 261.23742405 33.3125 257.0625 C36.5553982 252.46730012 39.18682322 248.84822169 44.94921875 247.56640625 C55.9724428 246.59667918 67.27575169 255.74018936 76.375 261.0625 C77.93541016 261.9606543 77.93541016 261.9606543 79.52734375 262.87695312 C94.12100958 271.38526533 94.12100958 271.38526533 96 277 C97.19442994 282.92986901 96.22794947 287.32295432 93.0625 292.4375 C91.74037834 294.31465095 90.38547109 296.16910643 89 298 C88.38253906 298.83917969 87.76507812 299.67835938 87.12890625 300.54296875 C63.80295215 330.59843788 30.77160672 351.87360031 -5.6875 362.1875 C-6.51080811 362.42557373 -7.33411621 362.66364746 -8.18237305 362.90893555 C-24.45369638 367.3028859 -40.90192684 368.55742587 -57.6875 368.4375 C-58.5986557 368.43445862 -59.5098114 368.43141724 -60.44857788 368.42828369 C-75.28232438 368.35538263 -89.51729427 367.45690742 -104 364 C-105.36342529 363.67854004 -105.36342529 363.67854004 -106.75439453 363.35058594 C-154.02366431 351.81658191 -194.72565845 321.7655535 -220.51806641 280.57568359 C-247.33845785 236.08287216 -253.26066312 181.02220083 -241.6953125 130.77148438 C-233.99846501 100.09219621 -218.41568957 69.73870385 -195 48 C-194.195625 47.195625 -193.39125 46.39125 -192.5625 45.5625 C-191.716875 44.716875 -190.87125 43.87125 -190 43 C-189.49726562 42.45085937 -188.99453125 41.90171875 -188.4765625 41.3359375 C-163.85008267 15.20390868 -126.81051764 -0.17546531 -92 -6 C-91.32066406 -6.11714355 -90.64132812 -6.23428711 -89.94140625 -6.35498047 C-60.46954521 -11.18796353 -28.41308895 -8.93656993 0 0 Z " fill="#FFFFFF" transform="translate(1528,124)"/>
<path d="M0 0 C1.41694656 -0.01441132 1.41694656 -0.01441132 2.86251831 -0.02911377 C4.39067673 -0.03548859 4.39067673 -0.03548859 5.94970703 -0.04199219 C6.99901398 -0.04769226 8.04832092 -0.05339233 9.12942505 -0.05926514 C11.3502705 -0.06871405 13.57112997 -0.07524869 15.79199219 -0.07910156 C19.18726066 -0.08880926 22.58192435 -0.11983503 25.97705078 -0.15136719 C28.13459927 -0.15789714 30.29215209 -0.16314764 32.44970703 -0.16699219 C33.46443085 -0.17933899 34.47915466 -0.19168579 35.52462769 -0.20440674 C42.12974971 -0.18356134 45.57263934 0.70790598 50.58251953 5.16113281 C53.29666977 8.2630188 53.46049324 10.9256882 53.49073792 14.88774109 C53.50052673 15.8594928 53.51031555 16.83124451 53.520401 17.83244324 C53.52615646 18.89699234 53.53191193 19.96154144 53.5378418 21.05834961 C53.54774139 22.1804483 53.55764099 23.302547 53.56784058 24.45864868 C53.59948446 28.17586135 53.62422452 31.8930868 53.64892578 35.61035156 C53.66949281 38.18439572 53.69048921 40.75843647 53.7118988 43.33247375 C53.76149548 49.42035639 53.80675408 55.50825719 53.84992117 61.59618837 C53.89930776 68.52723327 53.95422061 75.45823093 54.00960076 82.38923013 C54.12339527 96.64648665 54.23023983 110.90378928 54.33251953 125.16113281 C54.80221161 124.75266113 55.27190369 124.34418945 55.75582886 123.92333984 C56.37781158 123.38563965 56.99979431 122.84793945 57.640625 122.29394531 C58.25469208 121.76172363 58.86875916 121.22950195 59.50143433 120.68115234 C85.44895421 99.14161016 120.72883167 95.04279145 153.05517578 97.35595703 C178.90098174 99.92477799 206.380212 112.00958287 223.33251953 132.16113281 C231.18305136 141.78577845 237.31109679 151.81105745 242.33251953 163.16113281 C243.05568359 164.79501953 243.05568359 164.79501953 243.79345703 166.46191406 C251.64040227 185.55614748 253.64363376 205.84074542 253.60717773 226.28833008 C253.61153871 227.93448616 253.6167264 229.58064023 253.62266541 231.22679138 C253.63590533 235.64355184 253.63665199 240.06022599 253.63410211 244.47700238 C253.63302394 248.17780605 253.63793623 251.87859284 253.64270753 255.57939285 C253.65374668 264.30660385 253.65426922 273.03377176 253.64819336 281.76098633 C253.64213256 290.74872674 253.6545306 299.73631144 253.67576343 308.72402531 C253.69338143 316.46792772 253.69938121 324.21178053 253.69612569 331.95570225 C253.69431595 336.56956198 253.69691986 341.18331011 253.71084023 345.79715157 C253.72342029 350.12706054 253.7214729 354.45672537 253.70842934 358.78663063 C253.70606592 360.3720737 253.70878985 361.95753401 253.71705246 363.54295731 C253.72754001 365.71194923 253.71940473 367.88012441 253.70674133 370.04908752 C253.70699295 371.86657171 253.70699295 371.86657171 253.70724964 373.72077274 C253.13993236 378.92925657 251.71312913 382.84955369 247.83251953 386.53613281 C244.39769539 388.7687685 241.79542088 389.28926773 237.78857422 389.33813477 C236.87041931 389.35097 235.9522644 389.36380524 235.00628662 389.37702942 C233.52035004 389.38810982 233.52035004 389.38810982 232.00439453 389.39941406 C230.98202698 389.40748581 229.95965942 389.41555756 228.90631104 389.4238739 C226.74094333 389.43770844 224.57555387 389.44843341 222.41015625 389.45629883 C219.10911377 389.47349428 215.80907737 389.51738486 212.50830078 389.56152344 C210.40283938 389.57165221 208.29736948 389.58016773 206.19189453 389.58691406 C205.20936707 389.60442215 204.2268396 389.62193024 203.21453857 389.63996887 C197.03762167 389.62055364 193.36881672 388.81115112 188.33251953 385.16113281 C184.58902343 380.16980468 184.20783862 375.79894151 184.20121765 369.68232727 C184.19804408 368.70901475 184.19804408 368.70901475 184.1948064 367.71603936 C184.18881855 365.54317915 184.18980572 363.37037722 184.19067383 361.19750977 C184.18764122 359.63831484 184.18411949 358.07912079 184.18014526 356.51992798 C184.17225877 353.16037714 184.16711205 349.80083691 184.1638546 346.44127846 C184.15793059 341.11407372 184.14137327 335.78693533 184.12251282 330.45976257 C184.11617508 328.63285164 184.10984946 326.80594067 184.10353565 324.97902966 C184.10036984 324.06393167 184.09720403 323.14883368 184.09394228 322.20600545 C184.05196287 309.80751506 184.01894364 297.4090547 184.0065918 285.01049805 C183.99817161 276.64433737 183.97553041 268.27834042 183.93723613 259.91226166 C183.91759759 255.49238398 183.90502963 251.07275036 183.91007042 246.65282631 C183.91476848 242.48217412 183.90063511 238.31198191 183.87305832 234.14142227 C183.86623046 232.62470828 183.86592728 231.10794584 183.87325859 229.59123421 C183.96673693 208.04711469 178.18692581 186.48666014 163.14501953 170.41113281 C150.31846446 158.27907819 134.03073655 153.8149389 116.72705078 154.01269531 C99.34136835 154.7729438 84.23562218 161.31193124 72.20751953 173.94628906 C55.72901052 193.41152783 54.19227001 218.12910253 54.17480469 242.51074219 C54.17012275 244.0020665 54.16497699 245.49338942 54.15940857 246.98471069 C54.14823273 250.16733156 54.13974937 253.34994365 54.13328934 256.53257751 C54.12251261 261.56736638 54.1022492 266.60209041 54.08016968 271.63684082 C54.01854802 285.94341095 53.96412085 300.24997341 53.93115234 314.55664062 C53.91281507 322.47995736 53.88390705 330.40316152 53.84314764 338.32639551 C53.82209522 342.51097583 53.80662253 346.69541459 53.80434036 350.88005066 C53.80219532 354.80695912 53.78634115 358.73357086 53.75995064 362.66038895 C53.75275584 364.09990936 53.75065757 365.53946571 53.75405312 366.97900009 C53.75794987 368.94496454 53.74172933 370.91093809 53.72451782 372.87683105 C53.72120768 373.97623772 53.71789753 375.07564438 53.71448708 376.20836639 C53.1148244 380.84400583 51.23224422 383.37113064 47.77001953 386.41113281 C44.4722457 388.77876531 42.80876196 389.29054826 38.81030273 389.33813477 C37.87205154 389.35097 36.93380035 389.36380524 35.96711731 389.37702942 C34.94945786 389.38441635 33.9317984 389.39180328 32.88330078 389.39941406 C31.83732224 389.40748581 30.79134369 389.41555756 29.71366882 389.4238739 C27.49524599 389.43772336 25.27680176 389.44844164 23.05834961 389.45629883 C19.67601672 389.4734754 16.29467033 389.51735043 12.91259766 389.56152344 C10.75700589 389.57165347 8.6014058 389.5801686 6.44580078 389.58691406 C4.93449333 389.61317619 4.93449333 389.61317619 3.39265442 389.63996887 C-2.84930741 389.62082731 -6.58509497 388.86455347 -11.66748047 385.16113281 C-15.3312819 380.27606424 -15.79212697 375.99040453 -15.79890823 370.00377178 C-15.80274938 368.73216849 -15.80659052 367.4605652 -15.81054807 366.15042847 C-15.80976782 364.73640925 -15.80888904 363.32239008 -15.80792236 361.90837097 C-15.81050596 360.40847949 -15.81351911 358.9085887 -15.81692576 357.40869886 C-15.82499951 353.28107423 -15.82678554 349.15346699 -15.82752323 345.02583539 C-15.82937311 340.57650941 -15.83692008 336.12719247 -15.84365845 331.6778717 C-15.85724452 321.94654519 -15.86326679 312.2152228 -15.86766911 302.48388839 C-15.87043082 296.40923904 -15.87466802 290.33459128 -15.87917328 284.25994301 C-15.89136585 267.44535389 -15.90166548 250.63076605 -15.90504837 233.8161726 C-15.90526794 232.73986352 -15.9054875 231.66355444 -15.90571372 230.55462994 C-15.905932 229.47572949 -15.90615028 228.39682904 -15.90637517 227.28523463 C-15.90681864 225.09892921 -15.9072652 222.91262378 -15.90771484 220.72631836 C-15.90793627 219.64183276 -15.9081577 218.55734716 -15.90838584 217.43999837 C-15.91233493 199.86247704 -15.92979238 182.28499715 -15.95307437 164.70749184 C-15.97677743 146.66668177 -15.98924973 128.62589251 -15.99041629 110.58506662 C-15.99133359 100.45345416 -15.9970998 90.32189569 -16.0152359 80.19029808 C-16.03062272 71.56410742 -16.03576571 62.93798743 -16.0274978 54.31178566 C-16.02358639 49.90993319 -16.02454484 45.50822312 -16.03855515 41.10638809 C-16.05126446 37.07649368 -16.05012279 33.0468491 -16.03796443 29.01695517 C-16.03600229 27.55935316 -16.03910975 26.10173362 -16.0478088 24.64415624 C-16.12437584 10.94737641 -16.12437584 10.94737641 -12.66748047 5.16113281 C-8.6284031 1.32400932 -5.50237923 0.04521243 0 0 Z " fill="#FFFFFF" transform="translate(2302.66748046875,99.8388671875)"/>
<path d="M0 0 C1.25683594 1.01320312 1.25683594 1.01320312 2.5390625 2.046875 C20.09639077 16.94070765 30.32817711 37.54061737 33.44140625 60.21484375 C33.69236331 65.59827747 32.7188402 68.88970293 29 73 C23.60473135 77.68276698 18.86946842 77.58641562 11.90625 77.53125 C10.84136353 77.5350769 9.77647705 77.53890381 8.67932129 77.54284668 C6.43350272 77.5455621 4.18765233 77.53822694 1.94189453 77.52148438 C-1.48867544 77.50007069 -4.91715114 77.52129991 -8.34765625 77.546875 C-10.53385877 77.54423166 -12.72006 77.53910656 -14.90625 77.53125 C-15.92827515 77.53934692 -16.95030029 77.54744385 -18.0032959 77.55578613 C-23.98814077 77.47727909 -27.43838568 76.9772602 -32 73 C-34.95582388 69.43562415 -36.45038448 65.88757701 -37.9375 61.5625 C-41.28184852 52.09325265 -46.23428616 46.99658088 -55 42 C-70.37504737 35.187228 -91.12149674 33.92080161 -107 40 C-113.59313478 43.13444113 -118.90101594 46.49448842 -122.06640625 53.2890625 C-123.93005771 58.70066967 -124.08619179 64.8785168 -122.1953125 70.3125 C-112.3642553 87.66940098 -86.8548126 92.09007041 -69.3125 97 C-26.9952191 108.94684007 -26.9952191 108.94684007 -11.9375 116.375 C-10.97706787 116.84196289 -10.01663574 117.30892578 -9.02709961 117.79003906 C-1.65109624 121.47084678 4.74191794 125.60188617 11 131 C11.71671875 131.55816406 12.4334375 132.11632812 13.171875 132.69140625 C27.65919698 144.34303149 34.57153274 161.09150568 37.6875 178.9375 C39.83599869 201.19960348 34.23332172 222.40880354 20.16357422 239.91894531 C0.75088525 263.34828392 -28.51795172 274.1760901 -58.125 277.25 C-85.50355202 279.74770158 -112.8477341 276.43017691 -138 265 C-139.0209375 264.55011719 -140.041875 264.10023438 -141.09375 263.63671875 C-158.44948145 255.52976524 -173.2406788 242.78033776 -184 227 C-184.55429688 226.20078125 -185.10859375 225.4015625 -185.6796875 224.578125 C-192.91170328 213.41159286 -198.21724427 199.41181869 -197 186 C-195.0487667 181.27596148 -191.55057782 178.27528891 -187 176 C-185.42870608 175.89483268 -183.85308077 175.85128765 -182.27832031 175.83886719 C-181.29679993 175.82925964 -180.31527954 175.8196521 -179.30401611 175.80975342 C-177.70720001 175.8033786 -177.70720001 175.8033786 -176.078125 175.796875 C-174.98538269 175.79117493 -173.89264038 175.78547485 -172.76678467 175.77960205 C-170.45000174 175.77014208 -168.1332053 175.76361413 -165.81640625 175.75976562 C-162.27840516 175.75007778 -158.74098922 175.71907046 -155.203125 175.6875 C-152.95312845 175.68096828 -150.70312775 175.67571847 -148.453125 175.671875 C-146.86845428 175.6533548 -146.86845428 175.6533548 -145.25177002 175.63446045 C-139.7509299 175.65106651 -135.72006751 175.83538227 -131 179 C-127.82891122 182.30390925 -126.3073564 185.39766306 -124.8125 189.6875 C-120.63868866 200.03295311 -113.1285128 207.41051764 -103 212 C-84.42988046 218.81050375 -63.69846731 219.66083962 -45.4375 211.25 C-38.52385686 207.47723237 -33.87696665 202.7497043 -31.40625 195.17578125 C-30.37631498 189.65968697 -31.13213739 184.73572522 -33.625 179.75 C-48.64059062 162.36352665 -76.03403031 158.46880195 -97.2265625 152.58911133 C-130.91212708 143.24285329 -166.51107919 132.62308778 -185.390625 100.64453125 C-195.39329824 82.17574 -196.56176506 59.99108324 -191 40 C-183.62763653 17.77488962 -166.77604819 0.52755926 -146.12744141 -9.95019531 C-102.27135919 -31.24821642 -39.08179583 -32.30104261 0 0 Z " fill="#FFFFFF" transform="translate(2200,216)"/>
<path d="M0 0 C9.24391348 5.78131044 13.78436975 13.28873021 18.3359375 23.0234375 C18.8525293 24.11720703 19.36912109 25.21097656 19.90136719 26.33789062 C45.10147245 80.57458127 57.85384597 139.85550196 57.7734375 199.5859375 C57.77250092 200.48989258 57.77156433 201.39384766 57.77059937 202.32519531 C57.73805296 216.8700718 57.37930039 231.26061342 55.5859375 245.7109375 C55.43527832 246.93022949 55.28461914 248.14952148 55.12939453 249.40576172 C49.33473851 294.52169549 38.38706444 361.26484255 6.5859375 395.7109375 C4.21875 397.44140625 4.21875 397.44140625 1.7109375 398.8984375 C0.88851562 399.38699219 0.06609375 399.87554687 -0.78125 400.37890625 C-9.39504579 404.7369246 -19.86222276 405.30364992 -29.2421875 403.0234375 C-31.47162181 402.08801052 -33.39314935 401.03484183 -35.4140625 399.7109375 C-36.10757813 399.28683594 -36.80109375 398.86273438 -37.515625 398.42578125 C-45.61228854 392.98251868 -50.03665294 385.53821902 -51.9387207 376.02392578 C-53.4890893 365.21832645 -50.57784896 356.49860589 -45.86941528 346.91217041 C-44.21748512 343.538233 -42.64441399 340.12773219 -41.06640625 336.71875 C-40.59115761 335.69640762 -40.59115761 335.69640762 -40.10630798 334.65341187 C-22.10758954 295.63468734 -13.56080728 251.51318651 -12.4140625 208.7109375 C-12.39214844 208.0214502 -12.37023437 207.33196289 -12.34765625 206.62158203 C-11.67295147 182.86635118 -14.14180975 159.05120449 -18.4140625 135.7109375 C-18.58776367 134.75590332 -18.76146484 133.80086914 -18.94042969 132.81689453 C-24.44348156 103.43507323 -34.39416376 74.97310437 -47.90258789 48.32324219 C-53.15260674 37.69191909 -53.35473291 28.09604099 -49.671875 16.8671875 C-46.25620828 8.29619771 -40.0636285 2.47561874 -31.84375 -1.546875 C-21.05538489 -5.94213486 -10.31380948 -5.50737399 0 0 Z " fill="#FFFFFF" transform="translate(657.4140625,104.2890625)"/>
<path d="M0 0 C22.71261313 17.22208578 30.04539909 66.3456301 33.82006836 92.48828125 C33.96065674 93.54917969 34.10124512 94.61007812 34.24609375 95.703125 C34.33222931 96.35112061 34.41836487 96.99911621 34.5071106 97.66674805 C36.2353263 111.06189891 36.60815213 124.33276815 36.55859375 137.828125 C36.55677094 138.86148987 36.55494812 139.89485474 36.55307007 140.95953369 C36.50721286 156.41744465 35.98078351 171.45507629 33.24609375 186.703125 C33.07980469 187.69715332 32.91351562 188.69118164 32.7421875 189.71533203 C29.15059807 210.94229067 22.97813205 231.24155466 15.12109375 251.265625 C14.72575439 252.28205078 14.33041504 253.29847656 13.9230957 254.34570312 C9.25585201 265.86330266 3.03087446 276.1134406 -8.81640625 281.140625 C-19.13871252 284.42889431 -29.4247198 283.86455655 -39.16796875 279.17578125 C-47.58802967 274.38067103 -53.36479224 267.17907622 -56.12890625 257.765625 C-58.58359794 245.18849335 -54.75394555 234.78877039 -49.94140625 223.328125 C-43.24754177 206.91736046 -38.66121921 190.17971002 -35.75390625 172.703125 C-35.6353125 172.01202637 -35.51671875 171.32092773 -35.39453125 170.60888672 C-28.28808034 127.21935091 -36.31825347 80.06646003 -54.625 40.41015625 C-58.33994842 31.50199275 -57.33475803 22.47863563 -54.07421875 13.59765625 C-49.97416148 4.60906916 -43.27701782 -1.84023954 -34.015625 -5.328125 C-21.53025045 -9.05819541 -10.94693994 -7.03609868 0 0 Z " fill="#FFFFFF" transform="translate(567.75390625,166.296875)"/>
</svg>
