<?xml version="1.0" encoding="UTF-8"?>
<svg version="1.1" xmlns="http://www.w3.org/2000/svg" width="1609" height="297">
<path d="M0 0 C13.86 0 27.72 0 42 0 C45.3 5.61 48.6 11.22 52 17 C54.72049649 21.48486722 57.44817572 25.96423823 60.1875 30.4375 C66.43199407 40.66487285 72.49794746 50.98100165 78.45336914 61.38012695 C82.92761427 69.17942884 87.49490641 76.91747015 92.125 84.625 C92.74068848 85.65004639 93.35637695 86.67509277 93.99072266 87.73120117 C97.27747504 93.1862656 100.60734582 98.61016072 104 104 C108.23041712 97.04061052 112.45897873 90.08010071 116.68359375 83.1171875 C117.04670151 82.51877548 117.40980927 81.92036346 117.78392029 81.30381775 C123.19040652 72.39180511 128.5644836 63.46455631 133.82421875 54.46484375 C134.17394241 53.86646194 134.52366608 53.26808014 134.88398743 52.65156555 C135.24155624 52.03975937 135.59912506 51.42795319 135.9675293 50.79760742 C142.13880505 40.23952735 148.3346155 29.70037852 154.6875 19.25 C155.23881592 18.34121094 155.79013184 17.43242188 156.3581543 16.49609375 C156.88320557 15.63628906 157.40825684 14.77648437 157.94921875 13.890625 C158.61957153 12.79282715 158.61957153 12.79282715 159.3034668 11.67285156 C161.80105419 7.73795636 164.4147553 3.87786705 167 0 C180.2 0 193.4 0 207 0 C207 70.95 207 141.9 207 215 C194.46 215 181.92 215 169 215 C168.67 165.83 168.34 116.66 168 66 C165.03 70.95 162.06 75.9 159 81 C155.0703125 87.46484375 155.0703125 87.46484375 153.12866211 90.65014648 C145.18859808 103.67719195 137.3558082 116.76481755 129.59619141 129.90014648 C125.39745595 137.00199858 121.14237827 144.06166354 116.80151367 151.07788086 C115.22750331 153.63098155 113.67604576 156.19544215 112.13671875 158.76953125 C111.32042085 160.11725313 110.50401885 161.46491197 109.6875 162.8125 C109.27177734 163.51697266 108.85605469 164.22144531 108.42773438 164.94726562 C107.36625837 166.68376612 106.19214966 168.35047143 105 170 C104.01 170 103.02 170 102 170 C100.33691406 167.82641602 100.33691406 167.82641602 98.515625 164.75390625 C98.01751312 163.9242057 98.01751312 163.9242057 97.50933838 163.07774353 C96.41251694 161.2452999 95.33144555 159.40405268 94.25 157.5625 C93.48477929 156.27801654 92.71849002 154.99416911 91.95117188 153.7109375 C90.3803312 151.08034601 88.81549559 148.44633162 87.25585938 145.80908203 C84.03039804 140.35683418 80.76287521 134.9299069 77.5 129.5 C76.89583252 128.49155029 76.29166504 127.48310059 75.66918945 126.4440918 C63.5579185 106.22885011 51.25269059 86.12942025 39 66 C38.67 115.17 38.34 164.34 38 215 C25.46 215 12.92 215 0 215 C0 144.05 0 73.1 0 0 Z " fill="#FFFFFF" transform="translate(536,41)"/>
<path d="M0 0 C13.47150871 12.53724301 18.43816051 30.71239221 20.99609375 48.3125 C21.12757813 49.19164062 21.2590625 50.07078125 21.39453125 50.9765625 C22.35927175 58.77270874 21.99609375 66.39313354 21.99609375 74.3125 C-12.65390625 74.3125 -47.30390625 74.3125 -83.00390625 74.3125 C-80.9026777 87.9704856 -78.38411529 98.94311384 -67.26171875 107.765625 C-57.48789551 114.4618776 -47.26511545 116.7876135 -35.56640625 114.625 C-22.47225143 111.34576819 -12.64504405 103.14768254 -5.00390625 92.3125 C1.32912662 96.71283619 6.64513905 101.77843278 11.99609375 107.3125 C13.01455582 108.3356991 14.03487265 109.35706263 15.05859375 110.375 C15.69796875 111.014375 16.33734375 111.65375 16.99609375 112.3125 C13.88829246 122.09501088 2.58479821 130.3024224 -6.00390625 135.3125 C-10.26795599 137.49087323 -14.59610144 139.44459305 -19.00390625 141.3125 C-19.71289062 141.6321875 -20.421875 141.951875 -21.15234375 142.28125 C-38.31843254 149.52432544 -60.19044603 147.67446282 -77.31640625 141.125 C-93.37141883 133.83715554 -105.56151636 120.93601732 -112.5078125 104.82421875 C-113.80314016 101.34810063 -114.9417748 97.86639991 -116.00390625 94.3125 C-116.31199219 93.3225 -116.62007812 92.3325 -116.9375 91.3125 C-123.25967653 68.08076999 -120.65886708 41.90509713 -109.75390625 20.5 C-99.89722967 3.31454449 -85.48300251 -8.53845695 -66.62890625 -14.5625 C-42.87268908 -20.80808613 -18.70545896 -15.75196544 0 0 Z M-71.75390625 22.5 C-78.90509025 30.19345388 -80.95287047 36.8021422 -82.00390625 47.3125 C-59.89390625 47.3125 -37.78390625 47.3125 -15.00390625 47.3125 C-15.00390625 36.13788512 -18.14494985 27.36958135 -26.00390625 19.3125 C-40.16695194 6.75049425 -58.64825924 10.54397115 -71.75390625 22.5 Z " fill="#FFFFFF" transform="translate(1587.00390625,113.6875)"/>
<path d="M0 0 C1.21983844 29.92099769 2.15235526 59.84113035 2.70646246 89.78164695 C2.77271765 93.34853104 2.84131981 96.91536638 2.91137695 100.48217773 C2.92527941 101.19200406 2.93918186 101.90183038 2.9535056 102.63316659 C3.15351349 112.59678103 3.47991236 122.54921568 3.90792154 132.50553824 C4.64395757 149.63080237 5.13958996 166.74458653 5.17578125 183.88671875 C5.17864898 184.87885967 5.17864898 184.87885967 5.18157464 185.89104384 C5.23983153 217.84122619 4.25446148 245.63853519 -19.09883118 269.43843079 C-45.52699361 295 -45.52699361 295 -55 295 C-55.15973992 264.43427257 -55.28359412 233.86864073 -55.35745731 203.3025955 C-55.3662121 199.69277782 -55.37527237 196.08296097 -55.38452148 192.47314453 C-55.38635766 191.75450485 -55.38819383 191.03586518 -55.39008565 190.29544854 C-55.4205325 178.66420992 -55.47571747 167.03321385 -55.54006957 155.40211904 C-55.60556521 143.46464455 -55.64441878 131.52729695 -55.65861946 119.58965015 C-55.66735677 112.88553434 -55.68921409 106.18200241 -55.7401104 99.47805786 C-55.78763033 93.16770358 -55.80227904 86.85812554 -55.79175377 80.54760933 C-55.79367921 78.23206934 -55.80759939 75.91650333 -55.83443832 73.60111809 C-55.86931676 70.43690346 -55.86087954 67.27561165 -55.84178162 64.11132812 C-55.86217151 63.19691232 -55.8825614 62.28249651 -55.90356916 61.34037113 C-55.8024165 55.13196321 -54.10729192 52.06739792 -49.75308788 47.65901327 C-49.17456888 47.11153889 -48.59604988 46.56406451 -48 46 C-47.15036179 45.10623657 -46.30072357 44.21247314 -45.42533875 43.29162598 C-44.62973038 42.49220581 -43.83412201 41.69278564 -43.0144043 40.86914062 C-42.10043381 39.94879028 -41.18646332 39.02843994 -40.24479675 38.0802002 C-39.27147253 37.10534863 -38.29794179 36.13070322 -37.32421875 35.15625 C-36.3076122 34.13642342 -35.29107806 33.11652466 -34.27461243 32.09655762 C-32.1609905 29.97699434 -30.04535965 27.85946028 -27.9284668 25.74316406 C-25.21195256 23.0267524 -22.50243937 20.30346758 -19.79454327 17.57846832 C-17.70564842 15.47849357 -15.6122637 13.38304034 -13.51755714 11.28886414 C-12.51557644 10.28570186 -11.5152204 9.28091415 -10.51651573 8.27449036 C-9.12861399 6.87684914 -7.73379042 5.48609164 -6.33862305 4.09570312 C-5.15117744 2.90612 -5.15117744 2.90612 -3.93974304 1.69250488 C-2 0 -2 0 0 0 Z " fill="#FFFFFF" transform="translate(55,1)"/>
<path d="M0 0 C10.65912762 8.97777713 15.56372148 19.65990638 17.03883171 33.35687065 C17.41457461 37.99042439 17.37998379 42.61780579 17.36352539 47.26391602 C17.36367142 48.35763016 17.36381744 49.4513443 17.3639679 50.57820129 C17.36327554 54.16543617 17.355515 57.75261803 17.34765625 61.33984375 C17.34578967 63.83804801 17.3443669 66.33625264 17.34336853 68.8344574 C17.33995058 74.72030051 17.33208249 80.60612429 17.32201904 86.49195951 C17.30970198 93.85726653 17.30436481 101.22257593 17.29882812 108.58789062 C17.28812423 121.71225097 17.27054284 134.83658886 17.25 147.9609375 C5.37 147.9609375 -6.51 147.9609375 -18.75 147.9609375 C-19.08 143.3409375 -19.41 138.7209375 -19.75 133.9609375 C-20.94625 135.1365625 -22.1425 136.3121875 -23.375 137.5234375 C-34.86659931 147.66625755 -49.7332226 152.70039914 -65.03515625 152.18359375 C-78.19637193 151.10418469 -89.5866556 147.74033713 -99.75 138.9609375 C-99.75 138.3009375 -99.75 137.6409375 -99.75 136.9609375 C-100.41 136.9609375 -101.07 136.9609375 -101.75 136.9609375 C-111.86367607 124.73783756 -113.96735476 111.35865087 -112.75 95.9609375 C-111.26901897 87.75207123 -108.5091598 81.0205752 -102.75 74.9609375 C-102.07453125 74.23390625 -101.3990625 73.506875 -100.703125 72.7578125 C-95.9652716 68.08355445 -90.94443963 64.67024643 -85.0625 61.6484375 C-84.46453613 61.33519531 -83.86657227 61.02195312 -83.25048828 60.69921875 C-70.37132241 54.46123725 -55.92526942 52.90979683 -41.9050293 51.17919922 C-39.68340629 50.90110878 -37.46495201 50.60392936 -35.24609375 50.3046875 C-33.94857178 50.14162109 -32.6510498 49.97855469 -31.31420898 49.81054688 C-26.55894302 48.67702228 -23.28130608 46.54727995 -19.90234375 43.046875 C-17.64416196 38.95918322 -18.18565419 34.47570398 -18.75 29.9609375 C-20.9463539 24.80428051 -24.39989837 22.40012022 -29.26953125 19.9375 C-38.14883889 16.44170959 -48.15151928 17.75526253 -56.86328125 21.1875 C-65.95614235 25.50863094 -73.65826975 30.90413298 -79.75 38.9609375 C-85.68197933 36.61760481 -88.93022018 30.81084219 -92.75 25.9609375 C-93.46800781 25.10757813 -94.18601562 24.25421875 -94.92578125 23.375 C-95.56902344 22.59898437 -96.21226562 21.82296875 -96.875 21.0234375 C-97.74511719 19.98896484 -97.74511719 19.98896484 -98.6328125 18.93359375 C-99.75 16.9609375 -99.75 16.9609375 -99.67578125 14.98046875 C-94.70267808 4.13196944 -81.17372765 -1.78774119 -70.76953125 -5.94140625 C-48.43257795 -14.06130777 -19.77142735 -14.66006403 0 0 Z M-34.625 75.7109375 C-35.88570312 75.86820312 -37.14640625 76.02546875 -38.4453125 76.1875 C-52.45241769 78.06087827 -66.41300091 80.69519952 -75.5625 92.28125 C-79.0446226 97.20662078 -79.5078902 102.07498504 -78.75 107.9609375 C-77.09860845 114.05667811 -73.6483064 117.57584901 -68.2890625 120.76171875 C-58.99845947 125.14974203 -50.32194263 124.14800809 -40.75 120.9609375 C-36.37094566 119.0572353 -32.63464731 116.72451209 -28.75 113.9609375 C-27.69683594 113.33960938 -26.64367187 112.71828125 -25.55859375 112.078125 C-21.92438452 109.41396651 -19.34862659 107.1825448 -17.75 102.9609375 C-16.40683962 93.39074472 -17.07584129 83.56793483 -17.75 73.9609375 C-23.41062376 73.9609375 -29.02134297 74.9660069 -34.625 75.7109375 Z " fill="#FFFFFF" transform="translate(881.75,108.0390625)"/>
<path d="M0 0 C1.21983844 29.92099769 2.15235526 59.84113035 2.70646246 89.78164695 C2.77271765 93.34853104 2.84131981 96.91536638 2.91137695 100.48217773 C2.92527941 101.19200406 2.93918186 101.90183038 2.9535056 102.63316659 C3.15351348 112.59678097 3.47991185 122.5492157 3.90792046 132.50553824 C4.64396684 149.63083968 5.13852446 166.74456865 5.17578125 183.88671875 C5.17775932 184.54814603 5.17973738 185.20957331 5.18177539 185.89104384 C5.24401616 217.87450907 4.24935408 245.6355357 -19.1476593 269.43843079 C-45.61849896 295 -45.61849896 295 -54 295 C-55.19655066 264.93413888 -56.11161027 234.86952931 -56.65539713 204.78510545 C-56.72040304 201.20191302 -56.78771075 197.61876729 -56.85644531 194.03564453 C-56.87008545 193.32256528 -56.8837256 192.60948604 -56.89777908 191.87479833 C-57.09406083 181.86298399 -57.41435749 171.86186968 -57.83418721 161.85703546 C-58.55603636 144.65120526 -59.04264001 127.45635712 -59.078125 110.234375 C-59.07999825 109.57016753 -59.0818715 108.90596006 -59.08380151 108.22162509 C-59.14004254 76.57054401 -58.44237335 48.52206696 -35.2633667 24.88970947 C-9.50895546 0 -9.50895546 0 0 0 Z " fill="#FFFFFF" transform="translate(162,1)"/>
<path d="M0 0 C0.11403485 30.74422338 0.20253374 61.48839845 0.25532665 92.23278276 C0.26158027 95.86148768 0.26805187 99.49019219 0.2746582 103.11889648 C0.27662553 104.20252232 0.27662553 104.20252232 0.2786326 105.30803958 C0.30039599 117.0091398 0.33982259 128.71011734 0.38576398 140.41114476 C0.43250278 152.41528298 0.46028992 164.41935689 0.47044247 176.42358238 C0.47669068 183.16714968 0.49173267 189.91046104 0.52865028 196.65393639 C0.56252244 202.99783231 0.57307051 209.34133451 0.56553841 215.68531227 C0.56691686 218.01660423 0.57690108 220.34790901 0.59602737 222.67912292 C0.62082723 225.85705991 0.61495197 229.0335015 0.60127258 232.21147156 C0.61583679 233.13851684 0.630401 234.06556212 0.64540654 235.02069968 C0.59318007 239.49531573 0.50937349 241.36676393 -2.37742329 244.95553303 C-3.67559876 245.96754418 -3.67559876 245.96754418 -5 247 C-7.43919256 249.37970005 -9.74421621 251.66483503 -11.8125 254.375 C-14.31273383 257.3752806 -17.0882937 259.77188422 -20.046875 262.30859375 C-23.59723199 265.3832029 -26.75038895 268.65818741 -29.6875 272.3125 C-30.450625 273.199375 -31.21375 274.08625 -32 275 C-32.66 275 -33.32 275 -34 275 C-34.268125 275.639375 -34.53625 276.27875 -34.8125 276.9375 C-36 279 -36 279 -39 280 C-39 280.66 -39 281.32 -39 282 C-39.66 282 -40.32 282 -41 282 C-41 282.66 -41 283.32 -41 284 C-41.66 284 -42.32 284 -43 284 C-43 284.66 -43 285.32 -43 286 C-43.66 286 -44.32 286 -45 286 C-45 286.66 -45 287.32 -45 288 C-45.66 288 -46.32 288 -47 288 C-47.226875 288.598125 -47.45375 289.19625 -47.6875 289.8125 C-49.33777054 292.5629509 -51.24194255 293.44497245 -54 295 C-54.13689332 264.28983678 -54.24306703 233.57974338 -54.30639198 202.8693479 C-54.31389616 199.24322036 -54.3216621 195.61709343 -54.32958984 191.9909668 C-54.33116371 191.2690742 -54.33273757 190.54718159 -54.33435912 189.80341346 C-54.36046279 178.11656849 -54.40776781 166.42990071 -54.46291678 154.74316084 C-54.51903797 142.75031648 -54.5523552 130.75756489 -54.56453097 118.76459461 C-54.57202302 112.0287369 -54.590033 105.29324858 -54.63438034 98.55752373 C-54.67508264 92.2185004 -54.68767343 85.88004469 -54.67864609 79.54090309 C-54.68029775 77.2136667 -54.69224613 74.88641148 -54.71523285 72.55928802 C-54.74508127 69.38183976 -54.73791172 66.2065352 -54.7215271 63.02903748 C-54.73900415 62.10781788 -54.7564812 61.18659828 -54.77448785 60.23746294 C-54.69544241 54.5674565 -53.60438981 51.56117041 -49.62893069 47.4716354 C-47.94416985 45.949561 -46.23529124 44.46416908 -44.5 43 C-39.66887846 38.90425148 -35.46389242 34.25196317 -31.1875 29.59375 C-21.46796875 19.01466837 -21.46796875 19.01466837 -15.9375 14.5 C-12.99177358 11.99299879 -10.69085822 9.37368953 -8.296875 6.35546875 C-7.86890625 5.90816406 -7.4409375 5.46085938 -7 5 C-6.34 5 -5.68 5 -5 5 C-5 4.34 -5 3.68 -5 3 C-1.42307692 0 -1.42307692 0 0 0 Z " fill="#FFFFFF" transform="translate(269,1)"/>
<path d="M0 0 C11.55 0 23.1 0 35 0 C35.01458252 3.05733398 35.02916504 6.11466797 35.04418945 9.26464844 C35.09466701 19.39881616 35.16128512 29.53283236 35.23571491 39.66685104 C35.28032354 45.80734682 35.31960057 51.94777769 35.34643555 58.08837891 C35.37256338 64.02129713 35.41303262 69.95396434 35.46318626 75.88672638 C35.47979101 78.14313876 35.49134488 80.3995945 35.49761391 82.65605927 C34.83327264 103.0215453 34.83327264 103.0215453 43 121 C48.50075735 126.07762217 53.54610626 127.53926908 60.90625 127.37109375 C71.35598769 126.11765299 80.10409363 120.68115154 88 114 C88.86389343 113.34387726 89.72778687 112.68775452 90.61785889 112.01174927 C94.0537076 107.66779383 93.66052169 104.13828273 93.55175781 98.74951172 C93.55044357 97.20482712 93.55044357 97.20482712 93.54910278 95.62893677 C93.54052877 92.22862923 93.49676845 88.8297104 93.453125 85.4296875 C93.44125722 83.06748491 93.43174766 80.70526938 93.42449951 78.3430481 C93.39974804 72.12640239 93.34585206 65.91035434 93.28503418 59.69396973 C93.20458698 50.92466482 93.16373985 42.15507149 93.11834717 33.38552856 C93.09406141 28.71455024 93.05882499 24.04384998 93.01495361 19.37301636 C92.99854333 17.2459109 92.98216388 15.11880519 92.96582031 12.99169922 C92.94864456 11.53289337 92.94864456 11.53289337 92.93112183 10.0446167 C92.92234512 8.71141891 92.92234512 8.71141891 92.91339111 7.35128784 C92.90597523 6.57886686 92.89855934 5.80644588 92.89091873 5.01061821 C93 3 93 3 94 0 C105.22 0 116.44 0 128 0 C129.12504293 10.1253864 129.12504293 10.1253864 129.12698364 15.31216431 C129.12980347 16.48398758 129.13262329 17.65581085 129.13552856 18.86314392 C129.13249222 20.74774071 129.13249222 20.74774071 129.12939453 22.67041016 C129.13075206 24.02982123 129.13253397 25.38923194 129.13470459 26.74864197 C129.13923617 30.41582672 129.13750729 34.08298312 129.1343255 37.75016832 C129.13178075 41.5999156 129.13414522 45.44966058 129.13571167 49.29940796 C129.13752677 55.76015658 129.13514393 62.22089374 129.13037109 68.68164062 C129.12492513 76.13945928 129.12669621 83.59725061 129.1321975 91.05506861 C129.13674193 97.47399237 129.1373728 103.89290793 129.13475883 110.31183279 C129.13320398 114.13880764 129.13298065 117.96576966 129.13629532 121.79274368 C129.13919354 125.38953742 129.13716258 128.98629605 129.13140106 132.58308601 C129.12945825 134.52469459 129.13241041 136.46630616 129.13552856 138.40791321 C129.13270874 139.57409683 129.12988892 140.74028046 129.12698364 141.94180298 C129.1264181 143.4521408 129.1264181 143.4521408 129.12584114 144.99299049 C128.98548798 148.3467689 128.47471104 151.67702271 128 155 C116.12 155 104.24 155 92 155 C91.67 150.38 91.34 145.76 91 141 C88.958125 142.7634375 88.958125 142.7634375 86.875 144.5625 C74.20068928 154.65898481 59.27808846 160.47798564 43 159 C28.92908192 156.98316841 17.02421671 152.23270406 8.2109375 140.6484375 C0.89809807 129.30092804 -0.15853676 116.79635276 -0.11352539 103.64868164 C-0.11367142 102.52599884 -0.11381744 101.40331604 -0.1139679 100.24661255 C-0.11327354 96.55110718 -0.10550347 92.85565277 -0.09765625 89.16015625 C-0.09579038 86.59183276 -0.09436727 84.02350891 -0.09336853 81.45518494 C-0.0899459 75.39573647 -0.08207154 69.3363089 -0.07201904 63.27686828 C-0.06081862 56.37478418 -0.05533757 49.47269919 -0.05032361 42.57060826 C-0.0398878 28.38039417 -0.02155809 14.19020145 0 0 Z " fill="#FFFFFF" transform="translate(1082,101)"/>
<path d="M0 0 C11.22454818 9.56637629 15.49497545 20.62783249 16.86080742 34.96526718 C17.20510857 39.73230707 17.19285341 44.48872407 17.17602539 49.26611328 C17.17617142 50.36972702 17.17631744 51.47334076 17.1764679 52.61039734 C17.17577637 56.22466054 17.16801984 59.83887091 17.16015625 63.453125 C17.15828937 65.97232027 17.15686674 68.49151591 17.15586853 71.01071167 C17.15245254 76.94256157 17.14458709 82.87439479 17.13451904 88.80623615 C17.12329805 95.56570805 17.11783244 102.3251809 17.11282361 109.08465981 C17.10240265 122.97572291 17.0840813 136.86676249 17.0625 150.7578125 C5.5125 150.7578125 -6.0375 150.7578125 -17.9375 150.7578125 C-17.95731934 147.70047852 -17.97713867 144.64314453 -17.99755859 141.49316406 C-18.06465206 131.35902439 -18.14228833 121.22498486 -18.22502708 111.09096146 C-18.27484038 104.95047487 -18.32117119 98.81000425 -18.359375 92.66943359 C-18.39641751 86.73656506 -18.4428277 80.80383518 -18.49556351 74.87108612 C-18.51400711 72.61466672 -18.52915152 70.35821772 -18.54084396 68.10175323 C-17.58225378 46.63567664 -17.58225378 46.63567664 -25.9375 27.7578125 C-32.11080731 22.94263279 -37.29413552 21.89421158 -44.9375 22.7578125 C-54.18960228 25.14028226 -62.26482468 29.09921445 -69.9375 34.7578125 C-71.47593063 35.71955635 -71.47593063 35.71955635 -73.04544067 36.70072937 C-75.07213731 38.41722923 -75.84437406 39.38718859 -76.49715805 41.98514748 C-76.71784805 44.84318305 -76.74479508 47.64839254 -76.71044922 50.51489258 C-76.72107895 51.59826904 -76.73170868 52.68164551 -76.74266052 53.79785156 C-76.77074042 57.37481978 -76.75664342 60.95031545 -76.7421875 64.52734375 C-76.75343567 67.00885814 -76.76731544 69.49036189 -76.78372192 71.97184753 C-76.81980915 78.50020152 -76.82012702 85.02808766 -76.81304932 91.55651855 C-76.80891722 98.21939137 -76.84498023 104.88213193 -76.875 111.54492188 C-76.92890899 124.61599026 -76.94191903 137.68663354 -76.9375 150.7578125 C-88.4875 150.7578125 -100.0375 150.7578125 -111.9375 150.7578125 C-111.9375 99.6078125 -111.9375 48.4578125 -111.9375 -4.2421875 C-100.3875 -4.2421875 -88.8375 -4.2421875 -76.9375 -4.2421875 C-76.4425 3.1828125 -76.4425 3.1828125 -75.9375 10.7578125 C-74.37 9.5615625 -72.8025 8.3653125 -71.1875 7.1328125 C-51.10604985 -7.40184323 -21.81516292 -15.96035817 0 0 Z " fill="#FFFFFF" transform="translate(1039.9375,105.2421875)"/>
<path d="M0 0 C-2.05338861 6.51470776 -4.49534683 12.78730029 -7.1875 19.0625 C-7.55552734 19.92810547 -7.92355469 20.79371094 -8.30273438 21.68554688 C-9.19872592 23.79170883 -10.09784655 25.89647192 -11 28 C-12.01707031 27.58427734 -12.01707031 27.58427734 -13.0546875 27.16015625 C-21.88016257 23.72531069 -29.87330048 21.37754471 -39.0234375 24.91796875 C-43.82680617 27.54748085 -46.37127418 31.8660115 -48 37 C-48.23183894 39.81561828 -48.3714824 42.5455963 -48.4140625 45.36328125 C-48.43170654 46.06594116 -48.44935059 46.76860107 -48.4675293 47.49255371 C-48.53024656 50.09897646 -48.57667422 52.70577071 -48.625 55.3125 C-48.74875 61.149375 -48.8725 66.98625 -49 73 C-35.8 73 -22.6 73 -9 73 C-13 90 -13 90 -17 102 C-27.56 102 -38.12 102 -49 102 C-49 143.58 -49 185.16 -49 228 C-60.55 228 -72.1 228 -84 228 C-84 186.42 -84 144.84 -84 102 C-90.93 102 -97.86 102 -105 102 C-105 92.43 -105 82.86 -105 73 C-98.07 73 -91.14 73 -84 73 C-84.04640625 70.11894531 -84.0928125 67.23789063 -84.140625 64.26953125 C-84.17194308 61.43629716 -84.19616083 58.60308337 -84.21972656 55.76977539 C-84.23967151 53.82144341 -84.26683757 51.87316994 -84.30175781 49.92504883 C-84.59754651 32.98244645 -83.4006832 19.34075152 -71.5 6.25 C-70.675 5.5075 -69.85 4.765 -69 4 C-67.6078125 2.7315625 -67.6078125 2.7315625 -66.1875 1.4375 C-47.48012049 -13.59437422 -20.31472171 -8.93847755 0 0 Z " fill="#FFFFFF" transform="translate(1480,28)"/>
<path d="M0 0 C0 78.54 0 157.08 0 238 C-11.55 238 -23.1 238 -35 238 C-35.20840876 211.55729211 -35.3689855 185.11478227 -35.46630955 158.67141819 C-35.51270163 146.39304698 -35.57594141 134.11519568 -35.67895508 121.8371582 C-35.76870742 111.13460835 -35.82673522 100.43243504 -35.84679645 89.72951931 C-35.85852209 84.06305157 -35.88604433 78.39766098 -35.95157051 72.73153877 C-36.01278083 67.39524697 -36.03148029 62.06047313 -36.01796913 56.7238636 C-36.02043982 54.76830284 -36.03827331 52.81268996 -36.07284927 50.85743332 C-36.32120112 36.08537329 -36.32120112 36.08537329 -33.02474403 30.88227177 C-30.79773033 28.62937957 -28.58797693 26.81412172 -26 25 C-22.71672103 21.71933418 -19.44090365 18.43158306 -16.171875 15.13671875 C-14.36464996 13.32024621 -12.5573564 11.50384184 -10.75 9.6875 C-9.82703125 8.75615234 -8.9040625 7.82480469 -7.953125 6.86523438 C-7.0765625 5.98544922 -6.2 5.10566406 -5.296875 4.19921875 C-4.49604492 3.39315186 -3.69521484 2.58708496 -2.87011719 1.7565918 C-1 0 -1 0 0 0 Z " fill="#FFFFFF" transform="translate(1282,18)"/>
<path d="M0 0 C11.88 0 23.76 0 36 0 C36 51.15 36 102.3 36 155 C24.12 155 12.24 155 0 155 C0 103.85 0 52.7 0 0 Z " fill="#FFFFFF" transform="translate(1319,101)"/>
<path d="M0 0 C5.70704006 5.45366196 8.8779631 10.26261076 9.4375 18.25 C9.28016346 24.45954887 6.64884183 30.10050051 2.47265625 34.671875 C-3.64746946 39.96664024 -8.5745703 40.50253785 -16.51171875 40.37890625 C-22.89103547 39.68596815 -26.68990077 36.65547062 -30.875 32 C-35.43151109 25.56727846 -35.68057108 19.70615869 -35 12 C-33.75 8.5625 -33.75 8.5625 -32 6 C-31.4225 5.13375 -30.845 4.2675 -30.25 3.375 C-22.37259023 -4.94004364 -9.58049849 -6.59989896 0 0 Z " fill="#FFFFFF" transform="translate(1350,35)"/>
</svg>
