<?xml version="1.0" encoding="UTF-8"?>
<svg version="1.1" xmlns="http://www.w3.org/2000/svg" width="2541" height="731">
<path d="M0 0 C1.13612228 0.00273422 1.13612228 0.00273422 2.29519653 0.00552368 C57.28546929 0.22700557 107.40873359 22.37083995 146.8125 60.3125 C147.33618164 60.81426758 147.85986328 61.31603516 148.39941406 61.83300781 C168.93520437 81.60585855 184.79359727 105.53896217 196.8125 131.3125 C197.1410498 132.01262207 197.46959961 132.71274414 197.80810547 133.43408203 C205.87095616 150.87014422 211.52794071 169.4646912 215.1875 188.3125 C215.4026123 189.41924072 215.4026123 189.41924072 215.62207031 190.54833984 C218.80249547 208.48949732 219.11628003 226.3675025 219.10326743 244.53906047 C219.10285348 248.15784041 219.11395136 251.77659003 219.12338257 255.39535522 C219.13985992 262.45405526 219.14548571 269.51272186 219.14660732 276.57143954 C219.14756255 282.30749532 219.15169625 288.04354019 219.15800858 293.77959251 C219.17557157 310.07219518 219.18485325 326.36477169 219.18334763 342.6573839 C219.18322776 343.96961192 219.18322776 343.96961192 219.18310547 345.30834961 C219.18302371 346.18424381 219.18294195 347.060138 219.18285771 347.96257444 C219.18204244 362.19988286 219.20125341 376.43708612 219.2293822 390.67436407 C219.25809284 405.3222228 219.27192404 419.97003013 219.27019465 434.61791772 C219.26953094 442.83054741 219.27501727 451.04306627 219.29655075 459.25567055 C219.31473679 466.23538649 219.31912985 473.21494113 219.3055319 480.19467048 C219.29899397 483.75405221 219.29891533 487.31312415 219.3162384 490.87247658 C219.33481882 494.72964787 219.32243932 498.58636455 219.30697632 502.44355774 C219.31726344 503.56873206 219.32755057 504.69390638 219.33814943 505.85317689 C219.28354445 511.99664296 218.94873199 515.65357725 214.8125 520.3125 C211.06022466 523.6180759 208.72957805 525.43095545 203.74005127 525.45967102 C202.46156815 525.47040398 202.46156815 525.47040398 201.15725708 525.48135376 C200.22009857 525.48404266 199.28294006 525.48673157 198.31738281 525.48950195 C196.83910507 525.49935875 196.83910507 525.49935875 195.33096313 525.50941467 C192.05918304 525.52917644 188.78744892 525.54081697 185.515625 525.55078125 C184.39962669 525.55485678 183.28362839 525.5589323 182.13381195 525.56313133 C176.22657963 525.58400479 170.31937062 525.59830075 164.41210938 525.60766602 C158.30761167 525.61873041 152.20347848 525.65312735 146.09910965 525.69283772 C141.40821654 525.71897364 136.71741064 525.72735521 132.02645111 525.73094749 C129.77618703 525.7358216 127.52592704 525.74745892 125.27573395 525.76598549 C122.12526015 525.79031094 118.97573411 525.78942359 115.82519531 525.7824707 C114.89613373 525.79528076 113.96707214 525.80809082 113.00985718 525.82128906 C107.43307658 525.77644876 104.2285339 525.04834355 99.8125 521.3125 C96.00455546 517.09288578 94.68965213 514.11676121 94.67942142 508.47742271 C94.67518038 507.47523213 94.67093933 506.47304154 94.66656977 505.44048154 C94.6669559 504.33633205 94.66734203 503.23218255 94.66773987 502.09457397 C94.6624496 500.33850104 94.6624496 500.33850104 94.65705246 498.54695189 C94.6482044 495.2914895 94.64380247 492.03605519 94.64120948 488.7805829 C94.63731768 485.2710667 94.62767961 481.76156602 94.61865234 478.25205994 C94.60370281 472.16580903 94.59216238 466.07955936 94.58270454 459.99329758 C94.56882426 451.17502599 94.5476331 442.35678301 94.52427601 433.53853197 C94.48633456 419.20766092 94.45138244 404.87678464 94.41967773 390.54589844 C94.41777724 389.68776655 94.41587675 388.82963466 94.41391867 387.94549878 C94.38714365 375.7942812 94.36325694 363.64305963 94.34053367 351.49183388 C94.33893637 350.63794667 94.33733906 349.78405946 94.33569336 348.90429688 C94.33409989 348.05145518 94.33250643 347.19861348 94.33086468 346.31992809 C94.30402402 332.0601037 94.26958963 317.8003094 94.22903961 303.54051745 C94.20435942 294.75515625 94.18597998 285.96982733 94.175884 277.18443705 C94.16844834 271.14973871 94.15385549 265.1150837 94.13381977 259.08041416 C94.12251649 255.60696373 94.11428854 252.13358286 94.11482811 248.66011238 C94.10982525 231.35542536 94.03597236 214.24802645 89.6875 197.375 C89.47649658 196.55 89.26549316 195.725 89.0480957 194.875 C84.07024374 176.48660078 74.94908933 161.07349759 61.8125 147.3125 C60.98685547 146.37470703 60.98685547 146.37470703 60.14453125 145.41796875 C48.08990812 132.23229456 29.84877077 125.88846642 12.8125 122.3125 C11.91144531 122.11785156 11.01039063 121.92320313 10.08203125 121.72265625 C-18.11419872 118.18549478 -47.53776228 124.55161223 -70.3125 142 C-71.9624654 143.40877444 -73.58551926 144.84939065 -75.1875 146.3125 C-75.68991211 146.7672168 -76.19232422 147.22193359 -76.70996094 147.69042969 C-95.17174334 164.59987003 -107.60989861 187.13078861 -110.1875 212.3125 C-110.33030146 215.76889824 -110.329396 219.22180737 -110.32553101 222.68080139 C-110.32835229 223.71160417 -110.33117357 224.74240694 -110.33408034 225.80444616 C-110.34239947 229.25123025 -110.34376226 232.6979821 -110.34521484 236.14477539 C-110.34988487 238.61880076 -110.35502875 241.09282527 -110.36061096 243.56684875 C-110.37187793 248.89076259 -110.38036873 254.21467025 -110.38673019 259.53859138 C-110.39707708 267.95465799 -110.41764456 276.37068543 -110.43984985 284.78672791 C-110.44732853 287.66843116 -110.45474237 290.55013457 -110.46213722 293.43183804 C-110.46491307 294.5119216 -110.46491307 294.5119216 -110.467745 295.61382504 C-110.48865211 303.80154688 -110.50749151 311.98927302 -110.52539062 320.17700195 C-110.52702881 320.9251045 -110.52866699 321.67320705 -110.53035481 322.44397938 C-110.55666101 334.57714461 -110.57529515 346.71031289 -110.59198253 358.8434946 C-110.60940205 371.30781777 -110.63824215 383.77208122 -110.6768719 396.23635668 C-110.70026319 403.92110051 -110.71426567 411.60574702 -110.71619953 419.29052674 C-110.71855782 425.17665139 -110.73642195 431.06266406 -110.76006889 436.94874382 C-110.76727643 439.36344295 -110.76935585 441.77816358 -110.76596642 444.19287109 C-110.76208198 447.48585299 -110.77649348 450.77826457 -110.79550171 454.07118225 C-110.78997201 455.02944933 -110.78444232 455.98771642 -110.77874506 456.9750219 C-110.84551238 463.66278809 -112.10616416 467.83739793 -116.5 473.0625 C-121.83463548 477.52870645 -127.36432184 477.60752886 -134.00341797 477.5871582 C-134.86926514 477.59226913 -135.7351123 477.59738007 -136.62719727 477.60264587 C-139.47809845 477.61650037 -142.32875673 477.61558812 -145.1796875 477.61328125 C-147.16977019 477.61717065 -149.15985206 477.62150582 -151.14993286 477.62626648 C-155.31759331 477.63371993 -159.48516903 477.63344388 -163.65283203 477.62817383 C-168.98125431 477.62238251 -174.30932862 477.6393064 -179.63769341 477.6625185 C-183.74706026 477.67728449 -187.85634389 477.6781236 -191.96573257 477.67500877 C-193.92963474 477.67552061 -195.89354174 477.68073247 -197.85741806 477.69082069 C-200.60943649 477.70322241 -203.36078445 477.69637095 -206.11279297 477.68481445 C-206.91617096 477.69245819 -207.71954895 477.70010193 -208.54727173 477.70797729 C-214.32123776 477.65465924 -220.28347091 476.9395369 -224.75337029 472.8959856 C-227.98357289 469.16686013 -229.30986924 466.12616906 -229.32057858 461.26387787 C-229.32694014 460.02369675 -229.32694014 460.02369675 -229.33343023 458.75846148 C-229.3330441 457.85022363 -229.33265797 456.94198579 -229.33226013 456.00622559 C-229.33578698 455.04109905 -229.33931382 454.07597251 -229.34294754 453.08159971 C-229.35366145 449.83238982 -229.35732036 446.58320921 -229.36108398 443.33398438 C-229.36738772 441.00971858 -229.37415332 438.685454 -229.38134766 436.3611908 C-229.39603783 431.34553784 -229.40775492 426.32988961 -229.41729546 421.31422424 C-229.4314381 414.04170089 -229.45238103 406.76921199 -229.47572399 399.49671286 C-229.5136654 387.67050561 -229.54861396 375.84429201 -229.58032227 364.01806641 C-229.58222276 363.30998988 -229.58412325 362.60191335 -229.58608133 361.87237996 C-229.61283012 351.85621063 -229.63672313 341.84003649 -229.65946633 331.82385737 C-229.66106363 331.1206319 -229.66266094 330.41740643 -229.66430664 329.69287109 C-229.66669684 328.63932943 -229.66669684 328.63932943 -229.66913532 327.56450409 C-229.69601794 315.80199321 -229.7304712 304.03951852 -229.77096039 292.27704668 C-229.79776515 284.39528877 -229.81558578 276.51356441 -229.82699764 268.63176918 C-229.83619355 263.70002162 -229.85358884 258.76832699 -229.87317657 253.83661079 C-229.88058344 251.56766667 -229.88472893 249.2987089 -229.88517189 247.02975273 C-229.86242367 222.07922428 -229.86242367 222.07922428 -234.375 197.625 C-234.69645996 196.46158081 -234.69645996 196.46158081 -235.02441406 195.2746582 C-242.65277148 168.84784857 -258.58199026 146.65474883 -282.81713867 133.109375 C-307.09115802 120.02947943 -336.35655519 117.42859828 -362.90625 124.61914062 C-369.2943003 126.56071413 -375.25664248 129.2738203 -381.1875 132.3125 C-382.24324219 132.83585938 -383.29898438 133.35921875 -384.38671875 133.8984375 C-407.45978975 146.26439712 -421.97502806 169.65556159 -429.375 194.13671875 C-432.78751548 206.34398919 -434.49165216 218.30191323 -434.44578552 230.99008179 C-434.44946123 232.19681474 -434.45313693 233.4035477 -434.45692402 234.64684832 C-434.46510718 237.95610076 -434.46456191 241.26513385 -434.46019709 244.57437873 C-434.4577001 248.15851537 -434.46681522 251.74262523 -434.47457886 255.32675171 C-434.4865724 261.52471773 -434.49172903 267.72265814 -434.49246025 273.92063522 C-434.49379089 282.88928839 -434.50894493 291.85787974 -434.52795542 300.82651098 C-434.5587322 315.39068066 -434.58293013 329.9548519 -434.60083008 344.51904297 C-434.60190276 345.38909602 -434.60297544 346.25914907 -434.60408062 347.15556736 C-434.61591095 356.87116623 -434.62611739 366.58676573 -434.63452148 376.30236816 C-434.63759588 379.83097332 -434.64068458 383.35957847 -434.64379883 386.88818359 C-434.64456417 387.75898707 -434.64532951 388.62979054 -434.64611804 389.52698199 C-434.65919932 404.04698287 -434.68383281 418.56693862 -434.71754223 433.08690608 C-434.73781836 442.03420842 -434.74812355 450.98141425 -434.74555302 459.92873974 C-434.74451797 466.0543877 -434.7541545 472.17995925 -434.77219205 478.30558054 C-434.78223365 481.83865627 -434.78736864 485.37156292 -434.77942467 488.90464783 C-434.77091347 492.73547412 -434.78548006 496.56601652 -434.80223083 500.39682007 C-434.79601902 501.51150142 -434.7898072 502.62618277 -434.78340715 503.77464235 C-434.83753597 510.55486873 -435.26135653 515.97403632 -439.90625 521.2734375 C-440.4940625 521.74007812 -441.081875 522.20671875 -441.6875 522.6875 C-442.2753125 523.16960938 -442.863125 523.65171875 -443.46875 524.1484375 C-446.3387396 526.09220319 -448.85552471 526.43885552 -452.22161865 526.45294189 C-453.44951111 526.46150711 -453.44951111 526.46150711 -454.70220947 526.47024536 C-456.04409332 526.47192215 -456.04409332 526.47192215 -457.41308594 526.47363281 C-458.35812988 526.47859772 -459.30317383 526.48356262 -460.27685547 526.48867798 C-463.40853602 526.50330251 -466.54016589 526.51010259 -469.671875 526.515625 C-471.84800213 526.52137681 -474.02412925 526.52713454 -476.20025635 526.53289795 C-480.76664466 526.54340918 -485.33301535 526.54925085 -489.89941406 526.55273438 C-495.7447705 526.55821516 -501.58989354 526.58223393 -507.43517685 526.61070633 C-511.93223749 526.62935085 -516.42924217 526.63453931 -520.9263382 526.63607025 C-523.08086674 526.63909389 -525.23539437 526.64711266 -527.38988495 526.66025543 C-530.40821455 526.67735132 -533.42597727 526.67542672 -536.44433594 526.66894531 C-537.7740744 526.68276749 -537.7740744 526.68276749 -539.13067627 526.6968689 C-545.13362962 526.65658404 -550.12966394 525.87352517 -554.89453125 521.8828125 C-558.5094566 517.15658501 -560.43689221 513.30740834 -560.43918228 507.33176041 C-560.44439778 506.34793829 -560.44961327 505.36411618 -560.45498681 504.35048127 C-560.45052537 503.27706916 -560.44606392 502.20365704 -560.44146729 501.09771729 C-560.44458727 499.95135544 -560.44770725 498.80499359 -560.45092177 497.6238935 C-560.45751884 494.44535648 -560.45514407 491.2669722 -560.44894934 488.08843899 C-560.44442502 484.65787888 -560.4514092 481.22733945 -560.45690918 477.79678345 C-560.46581071 471.07201551 -560.46387614 464.3472922 -560.4580839 457.6225225 C-560.4535629 452.14564025 -560.45295643 446.66877048 -560.45513153 441.1918869 C-560.455438 440.41157983 -560.45574446 439.63127276 -560.45606022 438.82732002 C-560.45669971 437.24176297 -560.45734814 435.65620592 -560.4580054 434.07064888 C-560.46371285 419.18889042 -560.45714821 404.30715656 -560.44640467 389.42540213 C-560.43750385 376.70416191 -560.4389916 363.98295828 -560.44824219 351.26171875 C-560.4589983 336.4633797 -560.46312665 321.66506238 -560.45701766 306.86671996 C-560.45638065 305.28095611 -560.4557519 303.69519226 -560.45513153 302.10942841 C-560.45482298 301.32941383 -560.45451443 300.54939926 -560.45419653 299.74574788 C-560.45248288 294.29668228 -560.45535642 288.84763063 -560.46009064 283.3985672 C-560.46576064 276.72577667 -560.46405836 270.05303305 -560.45352915 263.38024774 C-560.44834781 259.98677538 -560.44719835 256.59344349 -560.45282745 253.19996262 C-560.48432708 232.25679909 -560.29767876 210.9726393 -556.0625 190.375 C-555.85004639 189.31692139 -555.63759277 188.25884277 -555.41870117 187.16870117 C-542.39821181 125.26314757 -505.72948412 70.41441812 -452.85302734 35.58740234 C-450.63845522 34.15063116 -448.41653583 32.72671372 -446.1875 31.3125 C-445.58470215 30.92964844 -444.9819043 30.54679687 -444.36083984 30.15234375 C-425.43046914 18.31471938 -403.72144367 10.61368915 -382.0625 5.5625 C-380.79418335 5.26424316 -380.79418335 5.26424316 -379.50024414 4.95996094 C-365.70566676 1.90468936 -351.96558075 0.8998851 -337.875 0.9375 C-337.09847076 0.93804382 -336.32194153 0.93858765 -335.5218811 0.93914795 C-273.27920144 1.13769426 -217.06885907 27.90415973 -173.66259766 71.53710938 C-162.07021718 83.40555812 -150.64017301 97.40715398 -143.1875 112.3125 C-139.20309128 111.02025933 -137.55121527 109.72290443 -135.1875 106.3125 C-137.37273013 102.06145751 -139.55990205 97.81142159 -141.7487793 93.56225586 C-142.49115912 92.12046509 -143.2330331 90.67841373 -143.97436523 89.23608398 C-145.04794363 87.14756498 -146.12345598 85.06005079 -147.19921875 82.97265625 C-147.54564423 82.29756012 -147.8920697 81.62246399 -148.24899292 80.9269104 C-150.50447128 76.55476168 -152.88345563 72.28640442 -155.48364258 68.10717773 C-156.39266938 65.78936434 -156.04146808 64.61368749 -155.1875 62.3125 C-129.99958361 28.29582941 -73.73455435 8.43225727 -34.1875 2.3125 C-22.76281691 0.66707582 -11.53855014 -0.05831181 0 0 Z " fill="#FFFFFF" transform="translate(560.1875,-0.3125)"/>
<path d="M0 0 C1.04341553 0.73428223 1.04341553 0.73428223 2.10791016 1.48339844 C13.56751106 9.56088414 24.02344158 18.16017614 34 28 C34.72509766 28.70608398 35.45019531 29.41216797 36.19726562 30.13964844 C38.45173002 32.33539279 40.69673063 34.54028687 42.9375 36.75 C43.64285889 37.44206543 44.34821777 38.13413086 45.07495117 38.84716797 C45.71924072 39.49057129 46.36353027 40.13397461 47.02734375 40.796875 C47.60218506 41.36760742 48.17702637 41.93833984 48.76928711 42.52636719 C50 44 50 44 50 46 C52.31 44.02 54.62 42.04 57 40 C55.38731743 35.30691253 52.84748839 31.47753628 50.125 27.375 C49.13831561 25.87045178 48.15267951 24.36521568 47.16796875 22.859375 C46.65282715 22.07240234 46.13768555 21.28542969 45.60693359 20.47460938 C42.31338894 15.40269072 39.10552795 10.27631968 35.88525391 5.15771484 C35.40620605 4.39668457 34.9271582 3.6356543 34.43359375 2.8515625 C34.01134521 2.17947754 33.58909668 1.50739258 33.15405273 0.81494141 C32.12454279 -0.80413559 31.06428756 -2.40356866 30 -4 C29.54896156 -7.08866573 29.62970669 -10.19431585 29.625 -13.3125 C29.60050781 -14.15490234 29.57601562 -14.99730469 29.55078125 -15.86523438 C29.52469382 -21.42620436 30.29441329 -24.59665199 34 -29 C39.43610689 -33.905755 43.69473419 -34.15180502 50.7824707 -34.16113281 C51.68035309 -34.16609772 52.57823547 -34.17106262 53.50332642 -34.17617798 C56.47748579 -34.190798 59.45159182 -34.19760148 62.42578125 -34.203125 C64.49220278 -34.20887674 66.55862428 -34.21463447 68.62504578 -34.22039795 C72.96023813 -34.23090759 77.29541193 -34.23675045 81.63061523 -34.24023438 C87.18237273 -34.24571789 92.73388482 -34.26974314 98.28556538 -34.29820633 C102.55525933 -34.31684143 106.82489429 -34.32203879 111.09462547 -34.32357025 C113.14112883 -34.32659551 115.18763118 -34.33461977 117.23409462 -34.34775543 C120.09936752 -34.36483336 122.96404238 -34.3629313 125.8293457 -34.35644531 C127.09434654 -34.37026749 127.09434654 -34.37026749 128.38490295 -34.3843689 C133.33660049 -34.34930309 136.70068813 -33.72306871 141 -31 C146.31994443 -25.3845031 147.29761449 -20.31676658 147.25447559 -12.76741982 C147.25928531 -11.52348965 147.25928531 -11.52348965 147.26419219 -10.25442958 C147.27252256 -7.4633834 147.26655728 -4.67255011 147.26069641 -1.88150024 C147.26371571 0.134855 147.26760407 2.15120911 147.27228898 4.16756117 C147.28260632 9.71813935 147.28037767 15.26865321 147.27610838 20.81923676 C147.27364792 26.80162256 147.28264685 32.7839926 147.29014587 38.76637268 C147.30291389 50.49029195 147.30468979 62.21419318 147.30234561 73.93811677 C147.30051382 83.46501968 147.30227016 92.99191584 147.30657005 102.5188179 C147.30717245 103.88695238 147.30777365 105.25508686 147.30837366 106.62322135 C147.3092809 108.68480683 147.31018956 110.74639231 147.31110601 112.8079778 C147.31953726 131.97899222 147.32387005 151.15000411 147.31969929 170.32102013 C147.31954291 171.04393218 147.31938654 171.76684424 147.31922542 172.51166273 C147.31841962 176.17576546 147.31757385 179.83986818 147.31671212 183.50397091 C147.31654103 184.23168832 147.31636994 184.95940574 147.31619367 185.7091752 C147.31584702 187.18079709 147.31549849 188.65241898 147.31514808 190.12404087 C147.30979057 213.02378987 147.31772145 235.92350037 147.33618164 258.82324219 C147.35689217 284.54470552 147.36762616 310.266145 147.36360615 335.98761714 C147.3632108 338.72959494 147.36284926 341.47157275 147.36250877 344.21355057 C147.36241804 344.88870669 147.36232731 345.56386281 147.36223383 346.25947821 C147.36106727 356.45696538 147.3677206 366.65442848 147.37832069 376.85190964 C147.39036222 388.44798155 147.39166504 400.04400984 147.37953053 411.64008425 C147.37362579 417.55885185 147.37258638 423.47751568 147.38453293 429.39627647 C147.39533745 434.81208103 147.39235334 440.2276945 147.37827124 445.64348991 C147.37560928 447.60509391 147.37803752 449.56671262 147.38600711 451.52830224 C147.39607623 454.19101271 147.38772279 456.85305416 147.37473011 459.51573753 C147.38203946 460.28044412 147.3893488 461.04515071 147.39687964 461.83303022 C147.33989426 467.45268412 146.28836841 472.26771312 142.5703125 476.70703125 C136.55493573 481.30798159 131.96134583 482.29804703 124.48120117 482.2746582 C123.63500717 482.27976913 122.78881317 482.28488007 121.91697693 482.29014587 C119.12556847 482.30402106 116.33440756 482.30308635 113.54296875 482.30078125 C111.59629729 482.30466994 109.64962667 482.30900497 107.70295715 482.31376648 C103.62347666 482.3212247 99.54408272 482.32094074 95.46459961 482.31567383 C90.24936678 482.30988646 85.03448993 482.32679448 79.81931591 482.3500185 C75.79830368 482.36478788 71.77737649 482.36562306 67.75634193 482.36250877 C65.83430592 482.36302059 63.91226496 482.36823211 61.99025536 482.37832069 C59.29559959 482.39072694 56.60162813 482.38386797 53.90698242 482.37231445 C53.12073486 482.37995819 52.3344873 482.38760193 51.52441406 482.39547729 C45.4434106 482.33816329 39.71684556 481.31473179 34.94140625 477.24609375 C34.48636719 476.64925781 34.03132813 476.05242188 33.5625 475.4375 C33.08941406 474.83808594 32.61632813 474.23867188 32.12890625 473.62109375 C27.9595252 467.63392027 28.8043575 457.95026851 30 451 C31.85241155 445.9055708 35.19676632 441.66891692 38.36865234 437.32714844 C41.63564632 432.66671944 44.50077999 427.74733765 47.4375 422.875 C48.04029785 421.89047852 48.6430957 420.90595703 49.26416016 419.89160156 C52.04232733 415.34095277 54.7324628 410.82765983 57 406 C55.02 404.68 53.04 403.36 51 402 C50.64796509 402.83881714 50.64796509 402.83881714 50.28881836 403.69458008 C48.68259441 406.5677706 46.7040561 408.55533346 44.37890625 410.88671875 C43.68981422 411.57868095 43.68981422 411.57868095 42.98680115 412.28462219 C42.01164385 413.261138 41.03396617 414.23514256 40.05395508 415.20678711 C38.5916286 416.6585812 37.14006331 418.12049529 35.68945312 419.58398438 C29.46185468 425.82165395 22.95050358 431.57052259 16 437 C15.28610107 437.55824463 14.57220215 438.11648926 13.83666992 438.69165039 C-41.02277247 480.80333781 -109.61863205 498.17188031 -177.953125 489.97265625 C-220.7863623 484.32963984 -261.84292536 468.08899784 -297 443 C-297.84328857 442.40324463 -297.84328857 442.40324463 -298.70361328 441.79443359 C-311.41137116 432.74324575 -322.76317975 422.41412097 -333.8125 411.4375 C-334.68382568 410.57543945 -335.55515137 409.71337891 -336.45288086 408.82519531 C-351.6332381 393.57119609 -364.55790308 375.80896448 -375 357 C-375.43554199 356.21786133 -375.87108398 355.43572266 -376.31982422 354.62988281 C-383.22733831 342.11076908 -389.08183347 329.42301626 -394 316 C-394.40726318 314.90969482 -394.40726318 314.90969482 -394.82275391 313.79736328 C-402.41072773 293.28311904 -406.68446151 271.70702019 -409 250 C-409.13148437 248.80117188 -409.26296875 247.60234375 -409.3984375 246.3671875 C-415.53997414 177.4823847 -393.42940551 106.66985838 -349.21875 53.5859375 C-346.26399042 50.14218602 -343.24663264 46.76139357 -340.1875 43.41015625 C-338.06733383 41.07418746 -336.0030269 38.69673125 -333.9375 36.3125 C-330.8634173 32.85036741 -327.63797612 29.77639105 -324.1015625 26.79296875 C-321.83801946 24.86180471 -319.67715618 22.84038627 -317.5 20.8125 C-239.29901214 -49.50869366 -121.75015403 -62.90783802 0 0 Z M-255.625 122.8125 C-282.41552201 153.52004779 -296.33432511 193.46412656 -293.65844727 234.22143555 C-291.27687864 263.171134 -281.35967243 290.63838955 -264 314 C-262.95972656 315.40378906 -262.95972656 315.40378906 -261.8984375 316.8359375 C-237.05805676 348.56091814 -201.38221972 368.75132835 -161.58740234 374.60742188 C-154.98135516 375.33033761 -148.38667793 375.34793301 -141.75 375.3125 C-141.02189117 375.31034485 -140.29378235 375.3081897 -139.54360962 375.30596924 C-128.75989183 375.25477111 -118.46102208 374.84608797 -108 372 C-106.82920898 371.69400879 -106.82920898 371.69400879 -105.63476562 371.38183594 C-82.34410476 365.19440979 -61.09750838 355.17224153 -43 339 C-42.02804687 338.15953125 -41.05609375 337.3190625 -40.0546875 336.453125 C-10.40221088 310.46320966 6.98217635 273.12034868 10 234 C12.12760085 193.09821119 -0.89872675 153.84552811 -28 123 C-51.19523579 97.33390913 -80.89164746 80.31731788 -115 74 C-116.16917969 73.77570313 -117.33835937 73.55140625 -118.54296875 73.3203125 C-169.85918151 65.00492175 -220.69039822 85.36505844 -255.625 122.8125 Z " fill="#FFFFFF" transform="translate(2394,44)"/>
<path d="M0 0 C0.93529037 -0.0049649 1.87058075 -0.00992981 2.83421326 -0.01504517 C5.93342827 -0.02966912 9.03259207 -0.03646969 12.13183594 -0.04199219 C14.28554282 -0.04774407 16.43924969 -0.05350179 18.59295654 -0.05926514 C23.11226643 -0.06977621 27.63155852 -0.07561798 32.15087891 -0.07910156 C37.93570226 -0.08458221 43.72028976 -0.10860075 49.50503922 -0.13707352 C53.95577679 -0.15571896 58.40645781 -0.16090655 62.85723114 -0.16243744 C64.98943113 -0.16546089 67.12163019 -0.17347901 69.25379181 -0.18662262 C72.24099023 -0.20372041 75.22761594 -0.20179346 78.21484375 -0.1953125 C79.09198532 -0.20452728 79.96912689 -0.21374207 80.87284851 -0.22323608 C88.26833589 -0.1730978 93.63074244 1.60505843 99.24121094 6.66113281 C99.90894531 7.24894531 100.57667969 7.83675781 101.26464844 8.44238281 C103.91385388 11.28543255 103.99145066 13.97315225 103.99370289 17.67992687 C103.99671054 18.61161605 103.99971819 19.54330523 104.00281698 20.50322741 C104.0010666 21.52867405 103.99931623 22.5541207 103.99751282 23.61064148 C104.00068639 25.24292473 104.00068639 25.24292473 104.00392407 26.9081834 C104.00994076 30.57413419 104.00892269 34.24005071 104.00805664 37.90600586 C104.01108733 40.52757323 104.01460853 43.14914007 104.01858521 45.77070618 C104.02670474 51.42968933 104.03164473 57.08866797 104.03487587 62.74765587 C104.04038072 71.71442425 104.05729086 80.68115474 104.07621765 89.64790344 C104.08257525 92.71939748 104.08888373 95.79089162 104.09519482 98.86238575 C104.09677858 99.63017057 104.09836234 100.39795539 104.0999941 101.18900641 C104.11794027 109.9345139 104.13415721 118.68002411 104.14916992 127.42553711 C104.15054579 128.22501114 104.15192166 129.02448518 104.15333923 129.8481857 C104.17518452 142.75189946 104.186004 155.65560343 104.19354067 168.55933239 C104.20165117 181.83497246 104.22507473 195.11052946 104.26149434 208.38612205 C104.28336977 216.55578501 104.2932303 224.72527641 104.286994 232.89496712 C104.28378533 238.51720228 104.29537032 244.13929265 104.31788842 249.76148298 C104.33038447 252.99084745 104.33469421 256.21983024 104.32547188 259.44921494 C104.23374644 295.21965251 110.83595852 331.2521569 134.86621094 359.16113281 C136.23326172 360.4953125 136.23326172 360.4953125 137.62792969 361.85644531 C139.86621094 364.16113281 139.86621094 364.16113281 139.86621094 366.16113281 C140.44757813 366.41765625 141.02894531 366.67417969 141.62792969 366.93847656 C144.07027236 368.27260092 145.6898654 369.78186055 147.67871094 371.72363281 C173.89820363 395.40714179 209.23680073 398.31209501 242.86621094 397.16113281 C248.72089704 396.75451647 254.19688631 395.7159111 259.86621094 394.16113281 C260.56601074 393.97309082 261.26581055 393.78504883 261.98681641 393.59130859 C279.79927975 388.66495734 295.79962565 380.10518808 309.86621094 368.16113281 C310.73375 367.45601563 311.60128906 366.75089844 312.49511719 366.02441406 C330.25440147 350.98877588 342.24367313 329.33577088 348.61621094 307.22363281 C348.91446777 306.20595825 348.91446777 306.20595825 349.21875 305.16772461 C353.56140387 289.17700043 353.13869064 272.93516073 353.08984375 256.50878906 C353.08931879 253.82830828 353.08962336 251.14784057 353.09107971 248.46736145 C353.09288007 242.72177703 353.08814207 236.97622945 353.0794754 231.23065186 C353.06635794 222.14576864 353.07402914 213.06095585 353.0848999 203.97607422 C353.08837672 200.86029063 353.09172195 197.74450692 353.09502792 194.62872314 C353.09585926 193.85041909 353.0966906 193.07211503 353.09754713 192.270226 C353.10670518 183.43877852 353.11167644 174.60733046 353.11474609 165.77587891 C353.11503184 164.96975977 353.11531759 164.16364063 353.115612 163.33309364 C353.11972533 150.24080838 353.10846215 137.14856848 353.09337059 124.05629337 C353.0784041 110.58937434 353.08637173 97.12259296 353.11398768 83.65569401 C353.13014378 75.36070607 353.12748412 67.06615217 353.10051456 58.77119035 C353.08362786 53.09355753 353.08846721 47.4162061 353.11039886 41.73859149 C353.12235855 38.46447807 353.12127796 35.19127669 353.10051918 31.91718483 C353.07948644 28.3661405 353.09523337 24.81708895 353.12017822 21.26611328 C353.09775271 19.71870248 353.09775271 19.71870248 353.07487416 18.14003086 C353.16330387 12.18719394 354.00069178 8.71380817 358.29073608 4.45205319 C363.9645637 -0.19699573 371.35801047 -0.28087364 378.38989258 -0.24291992 C379.74784187 -0.2532148 379.74784187 -0.2532148 381.13322449 -0.26371765 C384.09776914 -0.2818794 387.06177936 -0.2781643 390.02636719 -0.27246094 C392.10184398 -0.27702693 394.17731925 -0.28233375 396.25279236 -0.28834534 C400.59087286 -0.29725489 404.92876903 -0.2948768 409.2668457 -0.28491211 C414.81388177 -0.27340902 420.36028249 -0.29366576 425.90723515 -0.32282925 C430.18904122 -0.34120901 434.47069541 -0.34089549 438.75253105 -0.33519173 C440.79737682 -0.33503882 442.84223307 -0.3410579 444.88704109 -0.3534832 C447.7490704 -0.36842972 450.60993009 -0.35769017 453.47192383 -0.34057617 C454.30799164 -0.35024414 455.14405945 -0.35991211 456.00546265 -0.36987305 C461.68105345 -0.29912514 466.16292296 0.88019214 470.86621094 4.16113281 C475.34156954 9.78401926 476.01356902 14.17346455 475.9976387 21.14863396 C475.99969134 21.97577542 476.00174397 22.80291688 476.0038588 23.65512323 C476.00955255 26.45107626 476.00806861 29.2469804 476.00665283 32.04293823 C476.00923519 34.05838647 476.01224798 36.07383419 476.01565623 38.0892812 C476.0237462 43.64749379 476.02551693 49.20569347 476.0262537 54.76391125 C476.02810105 60.75220272 476.0356473 66.74048744 476.04238892 72.72877502 C476.0567022 86.52404308 476.06250345 100.31930936 476.06708086 114.11458302 C476.06941739 120.93952951 476.07302035 127.76447515 476.07677624 134.58942098 C476.08961987 157.97382236 476.10033314 181.35822327 476.10377884 204.7426281 C476.10400047 206.21144798 476.10422225 207.68026786 476.10444419 209.14908773 C476.10466483 210.62140767 476.10488531 212.09372761 476.10510564 213.56604755 C476.10554818 216.51961764 476.1059953 219.47318773 476.10644531 222.42675781 C476.1066094 223.52523298 476.1066094 223.52523298 476.1067768 224.64589956 C476.11039883 248.33455302 476.12628228 272.02317571 476.14963568 295.7118174 C476.17430521 320.78165682 476.1879552 345.85147868 476.18914676 370.92133057 C476.18931819 373.68114671 476.18953361 376.44096283 476.18978119 379.20077896 C476.18983696 379.88027738 476.18989273 380.5597758 476.18995018 381.25986508 C476.19109519 392.13954351 476.20207115 403.01919014 476.21666824 413.89885789 C476.23113048 424.86919686 476.23396646 435.83949374 476.22622827 446.80983953 C476.2223493 452.73942289 476.22311453 458.66890065 476.23728561 464.59847069 C476.37305285 524.97233305 470.82040406 586.90242368 431.86621094 636.16113281 C431.17140625 637.04671875 430.47660156 637.93230469 429.76074219 638.84472656 C391.33143486 686.79634013 336.06296978 711.63653796 275.86621094 719.16113281 C274.95484375 719.27827637 274.04347656 719.39541992 273.10449219 719.51611328 C257.54396077 721.40504504 241.8931359 721.39121213 226.24121094 721.47363281 C225.18899353 721.4832605 224.13677612 721.49288818 223.05267334 721.50280762 C220.01894049 721.5266016 216.98595717 721.52882643 213.95214844 721.52441406 C212.58322449 721.53807762 212.58322449 721.53807762 211.18664551 721.55201721 C203.45307974 721.49695198 197.57326663 719.70965918 191.86621094 714.16113281 C188.69940307 709.10016677 188.42555144 705.0331225 188.44628906 699.25341797 C188.43781952 698.37781723 188.42934998 697.50221649 188.42062378 696.6000824 C188.39729854 693.71663737 188.39623061 690.8337274 188.39746094 687.95019531 C188.39035636 685.93769112 188.38265693 683.92518896 188.37438965 681.91268921 C188.36095488 677.69792041 188.35937145 673.48333889 188.36523438 669.26855469 C188.37112763 663.87937471 188.34054936 658.49109649 188.30011749 653.10209084 C188.27421032 648.94637244 188.27136587 644.79087026 188.27500916 640.63508224 C188.27332055 638.64883535 188.26370316 636.66257819 188.24586487 634.67641068 C188.22361665 631.89288029 188.23340663 629.11116331 188.25097656 626.32763672 C188.23771332 625.51490799 188.22445007 624.70217926 188.21078491 623.86482239 C188.29791078 617.89505684 190.03115068 613.75878842 193.86621094 609.16113281 C198.72729068 605.12986722 203.29417814 604.58997813 209.45605469 604.65722656 C210.2693222 604.64907425 211.08258972 604.64092194 211.92050171 604.63252258 C213.65321153 604.61557362 215.3860132 604.6064625 217.11880493 604.60461426 C221.64221842 604.59453698 226.16403577 604.51029657 230.68652344 604.42285156 C231.57489395 604.4061441 232.46326447 604.38943665 233.3785553 604.3722229 C268.87848667 603.59650976 306.17458218 593.09326288 333.86621094 570.16113281 C334.94902344 569.32195312 334.94902344 569.32195312 336.05371094 568.46582031 C347.83542981 558.93919607 355.79517939 545.18629119 357.86621094 530.16113281 C357.92750714 526.96303625 357.8549508 523.78051739 357.78515625 520.58276367 C357.60998569 506.69465772 359.6659503 499.10279669 369.1328125 489.08740234 C372.23465106 485.64042963 374.82571473 481.82350429 377.49121094 478.03613281 C378.57060802 476.53257146 379.65131856 475.02995207 380.73339844 473.52832031 C381.25514648 472.8009668 381.77689453 472.07361328 382.31445312 471.32421875 C383.83225036 469.20847244 385.3529723 467.094853 386.87402344 464.98144531 C387.78830934 463.7081682 388.70238402 462.43473938 389.61621094 461.16113281 C390.24390381 460.28884033 390.24390381 460.28884033 390.88427734 459.39892578 C393.04280222 456.38361865 393.04280222 456.38361865 394.86621094 453.16113281 C393.20328859 452.20567034 393.20328859 452.20567034 390.86621094 452.16113281 C388.56315223 453.68333916 386.57966571 455.19463246 384.49121094 456.97363281 C383.23406319 458.00078435 381.9748944 459.02546655 380.71386719 460.04785156 C380.07336426 460.57040527 379.43286133 461.09295898 378.77294922 461.63134766 C369.08297106 469.40566304 358.65065418 476.02726039 347.86621094 482.16113281 C347.23440918 482.52561523 346.60260742 482.89009766 345.95166016 483.265625 C309.47235401 504.14516724 266.6698538 514.67283562 224.74121094 514.47363281 C223.53498077 514.47089859 223.53498077 514.47089859 222.30438232 514.46810913 C208.96341559 514.41746394 196.0028887 513.62501773 182.86621094 511.16113281 C181.94308105 510.99484375 181.01995117 510.82855469 180.06884766 510.65722656 C122.93898343 500.13356063 67.18691581 467.82334843 31.86621094 421.16113281 C31.24335205 420.35289062 31.24335205 420.35289062 30.60791016 419.52832031 C19.26248404 404.77058048 9.74040022 389.02230652 1.86621094 372.16113281 C1.56763184 371.53062012 1.26905273 370.90010742 0.96142578 370.25048828 C-13.62244342 339.23095613 -21.30358113 304.77084836 -21.27423096 270.50820923 C-21.27720208 269.39963039 -21.2801732 268.29105155 -21.28323436 267.14887941 C-21.29184156 263.46887398 -21.29342272 259.78890138 -21.29492188 256.10888672 C-21.29955533 253.45678559 -21.30456077 250.80468733 -21.30996704 248.15258789 C-21.32347099 240.97544024 -21.32956077 233.79829823 -21.3339777 226.62114 C-21.33674999 222.13645721 -21.34098874 217.65177654 -21.34548187 213.16709518 C-21.35765727 200.73657937 -21.36796444 188.30606524 -21.37135696 175.87554359 C-21.37157653 175.08221938 -21.3717961 174.28889516 -21.37202232 173.47153082 C-21.37224059 172.67640482 -21.37245887 171.88127882 -21.37268376 171.06205809 C-21.37312722 169.45104003 -21.37357378 167.84002197 -21.37402344 166.22900391 C-21.37424487 165.4298978 -21.3744663 164.63079169 -21.37469444 163.80747025 C-21.37864997 150.8339421 -21.39613465 137.86046985 -21.41938296 124.88696332 C-21.4430889 111.55014587 -21.45555823 98.21335652 -21.45672488 84.87651765 C-21.45764133 77.39485706 -21.46338732 69.91326962 -21.48154449 62.43162918 C-21.49693426 56.06843889 -21.50207209 49.70534444 -21.49380639 43.34213908 C-21.48989774 40.09675225 -21.49247 36.8515991 -21.50486374 33.60622787 C-21.51751387 30.08803601 -21.51174407 26.57034249 -21.50128174 23.05215454 C-21.50933814 22.02726099 -21.51739455 21.00236743 -21.52569509 19.9464165 C-21.48314017 13.84353047 -20.92811048 9.22469875 -16.63378906 4.51660156 C-11.05334808 0.17141444 -6.86411771 0.00866785 0 0 Z " fill="#FFFFFF" transform="translate(1460.1337890625,9.8388671875)"/>
<path d="M0 0 C0.94939453 0.4957251 0.94939453 0.4957251 1.91796875 1.00146484 C18.75143991 9.83220821 34.33634301 20.84129738 48.43261719 33.58398438 C49.97807614 34.9801934 51.53826541 36.35819833 53.1015625 37.734375 C60.57349381 44.37821911 67.3307571 51.56213868 74 59 C75.98 57.35 77.96 55.7 80 54 C78.6392899 50.31955991 76.96910963 47.13918212 74.875 43.82421875 C74.2550415 42.83945557 73.63508301 41.85469238 72.99633789 40.84008789 C72.33754639 39.79973389 71.67875488 38.75937988 71 37.6875 C70.33025146 36.61169678 69.66050293 35.53589355 68.97045898 34.42749023 C66.01366929 29.69017658 63.04826017 24.99412427 59.78515625 20.4609375 C54.02254205 12.3253068 51.41325606 5.85740286 52.34375 -4.26171875 C53.18797451 -9.07078335 54.25497499 -12.74882444 58 -16 C63.59321069 -19.80724742 67.54465298 -20.57918838 74.23657227 -20.50170898 C75.13503876 -20.50711197 76.03350525 -20.51251495 76.959198 -20.51808167 C79.9119418 -20.53053006 82.86370322 -20.51410506 85.81640625 -20.49609375 C87.87711132 -20.49624881 89.93781668 -20.49773903 91.9985199 -20.50050354 C96.30993599 -20.50188575 100.62101869 -20.48935803 104.93237305 -20.46655273 C110.45269069 -20.43815101 115.97245539 -20.44091277 121.49281406 -20.45364285 C125.74538377 -20.4606042 129.99782612 -20.45280576 134.25037956 -20.44038582 C136.28569996 -20.43587704 138.32103405 -20.4355295 140.35635567 -20.43945122 C143.20212878 -20.44236834 146.04714492 -20.42583292 148.89282227 -20.40405273 C150.14839684 -20.41080521 150.14839684 -20.41080521 151.42933655 -20.41769409 C157.03419207 -20.34658135 161.38502136 -19.44106082 165.64453125 -15.46484375 C169.58873183 -10.30704299 170.14630933 -7.46196112 170.13422108 -1.08971119 C170.13657331 -0.25882082 170.13892554 0.57206954 170.14134905 1.42813841 C170.14806356 4.24264772 170.14758009 7.05711113 170.14717102 9.87162781 C170.15046812 11.89776757 170.15419336 13.92390667 170.1583125 15.95004493 C170.16835814 21.54158724 170.1720534 27.13311881 170.17470181 32.72466886 C170.17859729 38.74596006 170.18817614 44.76724269 170.19691467 50.78852844 C170.21576512 64.65370971 170.22593841 78.51889163 170.23437535 92.38408207 C170.23857966 99.23342084 170.24380194 106.08275874 170.24905988 112.93209678 C170.26695168 136.37075592 170.28194832 159.8094153 170.28938007 183.24808025 C170.28985483 184.72003334 170.29033072 186.19198643 170.29080774 187.66393952 C170.2911623 188.75889282 170.2911623 188.75889282 170.29152403 189.87596638 C170.29272525 193.5744561 170.29394069 197.27294583 170.29516602 200.97143555 C170.29540617 201.70541707 170.29564632 202.43939858 170.29589374 203.19562197 C170.30378771 226.99624151 170.32722074 250.79681124 170.35972196 274.59740902 C170.39400832 299.75111024 170.41373012 324.90478229 170.41702431 350.05850726 C170.41744186 352.81906785 170.41792143 355.57962841 170.41844749 358.34018898 C170.41857069 359.01993405 170.41869388 359.69967913 170.4188208 360.40002254 C170.42115436 371.34641158 170.43682305 382.29274284 170.45728934 393.23911127 C170.47753041 404.23944002 170.48269898 415.23970868 170.47351871 426.24005403 C170.46896104 432.20136566 170.47094529 438.16248939 170.49028015 444.12377548 C170.50781996 449.57859962 170.50698898 455.03309751 170.49138286 460.48792467 C170.48899278 462.46375419 170.49340229 464.43960575 170.50521151 466.41540142 C170.52025225 469.09750182 170.51071235 471.77843456 170.49498463 474.46050549 C170.50520683 475.23088265 170.51542904 476.00125982 170.52596101 476.79498175 C170.45564084 482.27477417 169.07704188 485.4547553 166 490 C160.92858836 494.90953748 155.48459914 495.72713477 148.68164062 495.63110352 C147.78624069 495.63825882 146.89084076 495.64541412 145.9683075 495.65278625 C143.03042412 495.66959223 140.09408425 495.65031823 137.15625 495.62890625 C135.10176467 495.62973569 133.04727942 495.63219792 130.99279785 495.63621521 C126.69567796 495.63906768 122.39908088 495.62442559 118.10205078 495.59692383 C112.60761615 495.5628424 107.1141159 495.56886474 101.61963654 495.5875864 C97.37982464 495.59817988 93.14022829 495.58919719 88.9004364 495.57420158 C86.87514385 495.56903657 84.84982863 495.56948106 82.82453918 495.57574654 C79.98865745 495.58122712 77.15409102 495.56073278 74.31835938 495.53344727 C73.49007126 495.53997314 72.66178314 495.54649902 71.80839539 495.55322266 C64.94134566 495.44147739 59.58974202 493.52159091 54.625 488.6875 C50.38655695 481.67776727 50.05773953 474.02979735 51 466 C52.5323613 462.00295364 54.71832619 458.65079929 57.125 455.125 C58.40192382 453.14770482 59.67793666 451.1698211 60.953125 449.19140625 C61.94795898 447.67957764 61.94795898 447.67957764 62.96289062 446.13720703 C66.3924362 440.8556082 69.62295069 435.45447701 72.875 430.0625 C74.05899645 428.11533825 75.24380777 426.1686716 76.4296875 424.22265625 C76.92710449 423.40547119 77.42452148 422.58828613 77.93701172 421.74633789 C78.28779785 421.17004639 78.63858398 420.59375488 79 420 C76.28395285 417.12579877 76.28395285 417.12579877 73 415 C72.76764648 415.5561499 72.53529297 416.1122998 72.29589844 416.68530273 C70.65885403 419.60934532 68.62423531 421.65301262 66.265625 424.03515625 C65.79581711 424.51051819 65.32600922 424.98588013 64.84196472 425.47564697 C63.31797977 427.01142513 61.78519392 428.53793088 60.25 430.0625 C59.72834259 430.58266693 59.20668518 431.10283386 58.66921997 431.63876343 C50.87383278 439.39397517 42.95496512 446.60201503 34 453 C32.91383399 453.81306345 31.82922366 454.62820884 30.74609375 455.4453125 C-5.31614467 482.33114044 -48.36280243 498.9263525 -93 504 C-93.76771729 504.0928125 -94.53543457 504.185625 -95.32641602 504.28125 C-138.97175288 509.18177905 -183.91953652 498.17646101 -223 479 C-224.29333252 478.36771484 -224.29333252 478.36771484 -225.61279297 477.72265625 C-243.32885135 468.97013776 -259.67679983 458.47624083 -275 446 C-275.54011719 445.56284668 -276.08023438 445.12569336 -276.63671875 444.67529297 C-290.71149098 433.1964796 -303.94176869 420.43120534 -315 406 C-315.77085937 405.04609375 -316.54171875 404.0921875 -317.3359375 403.109375 C-360.44891084 348.98015295 -379.93893799 277.61080382 -372.75 209.04296875 C-365.37172283 146.40015208 -337.93406902 92.47417989 -295 47 C-294.36449219 46.32195312 -293.72898437 45.64390625 -293.07421875 44.9453125 C-288.97148137 40.69569908 -284.46721218 37.0029524 -279.86328125 33.30859375 C-278.0491531 31.84590652 -276.25231811 30.3612826 -274.48046875 28.84765625 C-201.19534825 -33.40529557 -95.93245964 -46.81720221 0 0 Z M-228 131 C-228.66515625 131.61359375 -229.3303125 132.2271875 -230.015625 132.859375 C-253.35539853 154.89037618 -266.60447865 187.80491939 -271 219 C-271.19722656 220.32837891 -271.19722656 220.32837891 -271.3984375 221.68359375 C-276.08810681 259.26432215 -264.38513847 299.49132789 -241.26953125 329.24609375 C-238.30105761 332.84811425 -235.21947077 336.32658064 -232.04296875 339.74609375 C-230.6244739 341.31104887 -229.26401964 342.92980725 -227.953125 344.5859375 C-225.01703534 348.21494432 -221.59411343 351.03845054 -218 354 C-217.06027344 354.77730469 -216.12054687 355.55460937 -215.15234375 356.35546875 C-206.98033546 362.95618569 -198.31573227 368.17471672 -189 373 C-188.38930664 373.32097656 -187.77861328 373.64195312 -187.14941406 373.97265625 C-176.56984866 379.46644469 -165.53661314 383.06896403 -154 386 C-153.29633301 386.18079102 -152.59266602 386.36158203 -151.86767578 386.54785156 C-131.42080487 391.51994538 -106.36068784 391.14824377 -86 386 C-85.23961426 385.81727539 -84.47922852 385.63455078 -83.69580078 385.44628906 C-64.36150923 380.67635446 -45.75928237 372.22663392 -30 360 C-29.20722656 359.42636719 -28.41445312 358.85273438 -27.59765625 358.26171875 C-12.92972681 347.2546702 -0.74797104 333.453546 9 318 C9.39010254 317.38527832 9.78020508 316.77055664 10.18212891 316.13720703 C15.55437989 307.54301242 19.62386203 298.53035518 23 289 C23.22816406 288.35804688 23.45632813 287.71609375 23.69140625 287.0546875 C28.42258868 273.48295274 31.31029054 259.37939731 32 245 C32.05285156 244.030625 32.10570312 243.06125 32.16015625 242.0625 C33.28279432 201.45228825 17.59671084 162.85495993 -9.83007812 133.3125 C-36.67781687 105.00033914 -74.15042036 86.90685326 -113.42578125 85.796875 C-157.69335116 85.20819056 -196.19923416 100.2534032 -228 131 Z " fill="#FFFFFF" transform="translate(1210,30)"/>
</svg>
