<svg width="1000" height="1000" viewBox="0 0 1000 1000" fill="none" xmlns="http://www.w3.org/2000/svg">
<path d="M516.25 556.138V809.049L750.733 673.697C790.766 650.186 790.766 615.871 790.766 603.797V532.626L722.137 572.66V582.827C722.137 605.704 715.783 615.236 699.896 624.767L583.608 691.49V556.138C583.608 533.77 599.495 522.459 612.204 516.105L722.137 453.83V492.593L790.131 453.83V335L551.835 472.894C516.25 495.77 516.25 511.656 516.25 556.138Z" fill="#D0D0D0"/>
<path d="M225.25 336V651.821L293.244 691.855C293.244 625.344 293.879 481.646 293.879 454.195C323.745 466.904 327.558 478.342 327.558 490.416V711.554L396.187 750.317C396.187 688.889 396.823 556.757 396.823 514.563C425.8 523.713 430.502 539.981 430.502 552.69V768.745L498.496 808.778V559.68C498.496 494.864 491.506 489.78 442.576 461.185C424.359 449.323 225.25 336 225.25 336Z" fill="#EEEEEE"/>
<path d="M505.38 474L238.25 322.538C334.143 267.232 481.27 183.881 491.681 177.272C502.092 170.663 514.513 173.01 519.764 175.764L775.25 323.227L505.38 474Z" fill="white"/>
</svg>
